<svg width="51" height="51" viewBox="0 0 51 51" fill="none" xmlns="http://www.w3.org/2000/svg">
<rect x="1" y="1" width="48.7002" height="48.7002" rx="11" stroke="#FBA94B" stroke-width="2"/>
<g clip-path="url(#clip0_3349_6405)">
<path d="M30.1013 26.5079L27.0417 24.7419V18.2917C27.0417 17.9049 26.888 17.534 26.6145 17.2605C26.341 16.987 25.9701 16.8333 25.5833 16.8333C25.1966 16.8333 24.8256 16.987 24.5521 17.2605C24.2787 17.534 24.125 17.9049 24.125 18.2917V25.5833C24.125 25.8393 24.1924 26.0908 24.3204 26.3125C24.4484 26.5342 24.6325 26.7183 24.8542 26.8463L28.6429 29.0338C28.8088 29.131 28.9924 29.1945 29.1829 29.2206C29.3735 29.2466 29.5673 29.2347 29.7532 29.1856C29.9392 29.1364 30.1135 29.051 30.2663 28.9341C30.4191 28.8173 30.5472 28.6714 30.6434 28.5049C30.7396 28.3383 30.8018 28.1544 30.8266 27.9636C30.8514 27.7729 30.8382 27.5792 30.7879 27.3936C30.7375 27.208 30.6509 27.0342 30.533 26.8822C30.4152 26.7302 30.2684 26.603 30.1013 26.5079ZM25.5833 11C22.699 11 19.8795 11.8553 17.4813 13.4577C15.0831 15.0602 13.2139 17.3378 12.1101 20.0025C11.0063 22.6673 10.7175 25.5995 11.2802 28.4284C11.8429 31.2573 13.2319 33.8558 15.2714 35.8953C17.3109 37.9348 19.9094 39.3238 22.7383 39.8865C25.5672 40.4492 28.4994 40.1604 31.1641 39.0566C33.8289 37.9528 36.1065 36.0836 37.7089 33.6854C39.3114 31.2872 40.1667 28.4676 40.1667 25.5833C40.1624 21.7169 38.6246 18.01 35.8906 15.276C33.1566 12.5421 29.4498 11.0042 25.5833 11ZM25.5833 37.25C23.2759 37.25 21.0203 36.5658 19.1017 35.2838C17.1831 34.0019 15.6878 32.1798 14.8047 30.048C13.9217 27.9162 13.6907 25.5704 14.1408 23.3073C14.591 21.0442 15.7021 18.9654 17.3338 17.3338C18.9654 15.7021 21.0442 14.591 23.3073 14.1408C25.5704 13.6907 27.9162 13.9217 30.048 14.8047C32.1798 15.6878 34.0019 17.1831 35.2838 19.1017C36.5658 21.0203 37.25 23.2759 37.25 25.5833C37.2461 28.6763 36.0157 31.6416 33.8287 33.8286C31.6416 36.0157 28.6763 37.2461 25.5833 37.25Z" fill="#FBA94B"/>
</g>
<defs>
<clipPath id="clip0_3349_6405">
<rect width="36.7576" height="36.7576" fill="white" transform="translate(7.60498 6.3374)"/>
</clipPath>
</defs>
</svg>
