<svg width="51" height="51" viewBox="0 0 51 51" fill="none" xmlns="http://www.w3.org/2000/svg">
<rect x="1.2998" y="1" width="48.7002" height="48.7002" rx="11" stroke="#B981DA" stroke-width="2"/>
<path d="M32.4097 15.5267C32.4097 12.6381 32.4097 11.1954 31.5122 10.2979C30.6147 9.40039 29.172 9.40039 26.2835 9.40039C23.3949 9.40039 21.9522 9.40039 21.0547 10.2979C20.1572 11.1954 20.1572 12.6381 20.1572 15.5267M10.9678 27.7792C10.9678 22.0037 10.9678 19.1151 12.7628 17.3217C14.5562 15.5267 17.4448 15.5267 23.2203 15.5267H29.3466C35.1221 15.5267 38.0107 15.5267 39.8041 17.3217C41.5991 19.1151 41.5991 22.0037 41.5991 27.7792C41.5991 33.5548 41.5991 36.4433 39.8041 38.2368C38.0107 40.0318 35.1221 40.0318 29.3466 40.0318H23.2203C17.4448 40.0318 14.5562 40.0318 12.7628 38.2368C10.9678 36.4433 10.9678 33.5548 10.9678 27.7792Z" stroke="#B981DA" stroke-width="2"/>
<path d="M26.2834 32.8838C27.9757 32.8838 29.3465 31.7413 29.3465 30.3322C29.3465 28.9232 27.9757 27.7791 26.2834 27.7791C24.591 27.7791 23.2202 26.6366 23.2202 25.226C23.2202 23.8169 24.591 22.6744 26.2834 22.6744M26.2834 32.8838C24.591 32.8838 23.2202 31.7413 23.2202 30.3322M26.2834 32.8838V33.9054M26.2834 22.6744V21.6528M26.2834 22.6744C27.9757 22.6744 29.3465 23.8169 29.3465 25.226" stroke="#B981DA" stroke-width="2" stroke-linecap="round"/>
</svg>
