<svg width="23" height="11" viewBox="0 0 23 11" fill="none" xmlns="http://www.w3.org/2000/svg">
<path d="M0 1.69231C0 0.757672 1.02975 0 2.3 0H20.7C21.9703 0 23 0.757672 23 1.69231V9.30769C23 10.2423 21.9703 11 20.7 11H2.3C1.02975 11 0 10.2423 0 9.30769V1.69231Z" fill="#F53F3F" fill-opacity="0.95"/>
<path d="M15.0981 7.225V6.5718H19.1553L18.9345 6.765V4.4834C18.9345 4.08473 18.8087 3.78727 18.5573 3.591C18.3119 3.3886 17.9347 3.2874 17.4257 3.2874C17.2662 3.2874 17.0362 3.30273 16.7357 3.3334C16.4351 3.35793 16.1193 3.39473 15.7881 3.4438L15.7053 2.855C15.9567 2.79367 16.2327 2.74153 16.5333 2.6986C16.8338 2.64953 17.1251 2.625 17.4073 2.625C17.8734 2.625 18.2721 2.6986 18.6033 2.8458C18.9406 2.98687 19.1982 3.1954 19.3761 3.4714C19.5601 3.7474 19.6521 4.08473 19.6521 4.4834V7.225H15.0981ZM15.0981 7.225C15.0183 7.225 14.9693 7.19433 14.9509 7.133C14.9263 7.07167 14.9141 6.99193 14.9141 6.8938C14.9141 6.79567 14.9263 6.719 14.9509 6.6638C14.9693 6.60247 15.0183 6.5718 15.0981 6.5718V7.225ZM17.0485 8.881V8.053H17.7661V8.881H17.0485Z" fill="white"/>
<path d="M14.1029 7.225V6.5718H15.0965V7.225H14.1029ZM10.5425 7.225V6.5718H13.9741L13.3853 7.0962V5.0906C13.3853 4.63673 13.3331 4.27793 13.2289 4.0142C13.1246 3.75047 12.9529 3.5634 12.7137 3.453C12.4806 3.33647 12.1647 3.2782 11.7661 3.2782H11.0209V2.625H11.7661C12.2567 2.625 12.6769 2.70167 13.0265 2.855C13.3761 3.00833 13.6429 3.26593 13.8269 3.6278C14.0109 3.98353 14.1029 4.47113 14.1029 5.0906V7.225H10.5425ZM15.0965 7.225V6.5718C15.1762 6.5718 15.2253 6.60247 15.2437 6.6638C15.2682 6.719 15.2805 6.79567 15.2805 6.8938C15.2805 6.99193 15.2682 7.07167 15.2437 7.133C15.2253 7.19433 15.1762 7.225 15.0965 7.225Z" fill="white"/>
<path d="M7.72209 7.225V6.5718H9.04689L8.71569 6.8386V2.625H9.43329V7.225H7.72209ZM7.72209 7.225C7.64235 7.225 7.59329 7.19433 7.57489 7.133C7.55035 7.07167 7.53809 6.99193 7.53809 6.8938C7.53809 6.79567 7.55035 6.719 7.57489 6.6638C7.59329 6.60247 7.64235 6.5718 7.72209 6.5718V7.225ZM8.09009 8.881V8.053H8.80769V8.881H8.09009ZM9.35049 8.881V8.053H10.0681V8.881H9.35049Z" fill="white"/>
<path d="M6.7269 7.225V6.5718H7.7205V7.225H6.7269ZM3.1665 7.225V6.5718H6.5981L6.0093 7.0962V5.0906C6.0093 4.63673 5.95717 4.27793 5.8529 4.0142C5.74864 3.75047 5.5769 3.5634 5.3377 3.453C5.10464 3.33647 4.78877 3.2782 4.3901 3.2782H3.6449V2.625H4.3901C4.88077 2.625 5.3009 2.70167 5.6505 2.855C6.0001 3.00833 6.2669 3.26593 6.4509 3.6278C6.6349 3.98353 6.7269 4.47113 6.7269 5.0906V7.225H3.1665ZM7.7205 7.225V6.5718C7.80024 6.5718 7.8493 6.60247 7.8677 6.6638C7.89224 6.719 7.9045 6.79567 7.9045 6.8938C7.9045 6.99193 7.89224 7.07167 7.8677 7.133C7.8493 7.19433 7.80024 7.225 7.7205 7.225Z" fill="white"/>
</svg>
