<svg width="263" height="25" viewBox="0 0 263 25" fill="none" xmlns="http://www.w3.org/2000/svg">
<path d="M15.9998 4.6665H3.99984C3.26317 4.6665 2.6665 5.26317 2.6665 5.99984V17.9998C2.6665 18.7365 3.26317 19.3332 3.99984 19.3332H10.6665V13.3332H8.6665V11.3332H10.6665V10.2592C10.6665 8.22584 11.6572 7.33317 13.3472 7.33317C14.1565 7.33317 14.5845 7.39317 14.7872 7.4205V9.33317H13.6345C12.9172 9.33317 12.6665 9.71184 12.6665 10.4785V11.3332H14.7692L14.4838 13.3332H12.6665V19.3332H15.9998C16.7365 19.3332 17.3332 18.7365 17.3332 17.9998V5.99984C17.3332 5.26317 16.7358 4.6665 15.9998 4.6665Z" fill="#192847"/>
<path d="M46.6654 4C44.0927 4 42 5.96372 42 8.37622V14.6262C42 17.0381 44.0946 19 46.668 19H53.3346C55.9073 19 58 17.0363 58 14.6238V8.37378C58 5.9619 55.9054 4 53.332 4H46.6654ZM54.6667 6.5C55.0347 6.5 55.3333 6.78 55.3333 7.125C55.3333 7.47 55.0347 7.75 54.6667 7.75C54.2987 7.75 54 7.47 54 7.125C54 6.78 54.2987 6.5 54.6667 6.5ZM50 7.75C52.206 7.75 54 9.43188 54 11.5C54 13.5681 52.206 15.25 50 15.25C47.794 15.25 46 13.5681 46 11.5C46 9.43188 47.794 7.75 50 7.75ZM50 9C49.2928 9 48.6145 9.26339 48.1144 9.73223C47.6143 10.2011 47.3333 10.837 47.3333 11.5C47.3333 12.163 47.6143 12.7989 48.1144 13.2678C48.6145 13.7366 49.2928 14 50 14C50.7072 14 51.3855 13.7366 51.8856 13.2678C52.3857 12.7989 52.6667 12.163 52.6667 11.5C52.6667 10.837 52.3857 10.2011 51.8856 9.73223C51.3855 9.26339 50.7072 9 50 9Z" fill="#192847"/>
<path d="M95.9998 4.6665H83.9998C83.2632 4.6665 82.6665 5.26317 82.6665 5.99984V17.9998C82.6665 18.7365 83.2632 19.3332 83.9998 19.3332H95.9998C96.7365 19.3332 97.3332 18.7365 97.3332 17.9998V5.99984C97.3332 5.26317 96.7358 4.6665 95.9998 4.6665ZM95.1258 10.9825C95.0392 10.9905 94.9518 10.9958 94.8638 10.9958C93.8672 10.9958 92.9912 10.4838 92.4812 9.7085C92.4812 11.7412 92.4812 14.0545 92.4812 14.0932C92.4812 15.8832 91.0298 17.3338 89.2405 17.3338C87.4512 17.3332 85.9998 15.8818 85.9998 14.0925C85.9998 12.3025 87.4512 10.8518 89.2405 10.8518C89.3085 10.8518 89.3745 10.8578 89.4405 10.8618V12.4592C89.3738 12.4512 89.3092 12.4392 89.2405 12.4392C88.3272 12.4392 87.5865 13.1798 87.5865 14.0932C87.5865 15.0065 88.3265 15.7472 89.2405 15.7472C90.1545 15.7472 90.9612 15.0272 90.9612 14.1138C90.9612 14.0772 90.9772 6.66717 90.9772 6.66717H92.5032C92.6465 8.03184 93.7485 9.10917 95.1258 9.20784V10.9825Z" fill="#192847"/>
<path d="M126 4.6665C125.263 4.6665 124.667 5.26317 124.667 5.99984V17.9998C124.667 18.7365 125.263 19.3332 126 19.3332H138C138.737 19.3332 139.333 18.7365 139.333 17.9998V5.99984C139.333 5.26317 138.737 4.6665 138 4.6665H126ZM127.765 7.99984H130.84L132.634 10.5649L134.854 7.99984H135.821L133.069 11.1873L136.436 15.9998H133.362L131.371 13.1535L128.913 15.9998H127.93L130.933 12.5298L127.765 7.99984ZM129.252 8.7889L133.755 15.2069H134.948L130.444 8.7889H129.252Z" fill="#192847"/>
<path d="M244.739 18.9173C244.155 18.9173 243.67 18.7264 243.279 18.3445C243.089 18.1475 243.092 17.8462 243.285 17.6642C243.604 17.3629 243.819 17.145 243.934 17.0108C244.049 16.8765 244.206 16.5901 244.403 16.1485C243.797 15.0893 243.449 13.8661 243.449 12.5622C243.449 8.52839 246.769 5.25537 250.867 5.25537C254.963 5.25833 258.283 8.53138 258.283 12.5652C258.283 16.5991 254.963 19.8721 250.864 19.8721C249.28 19.8721 247.811 19.3828 246.605 18.5474C246.024 18.795 245.403 18.9173 244.739 18.9173ZM244.961 17.8402C245.476 17.8402 245.948 17.7448 246.39 17.5568L246.702 17.4225C246.805 17.3778 246.924 17.3897 247.017 17.4553L247.296 17.6493C248.335 18.3683 249.568 18.7592 250.867 18.7592C254.303 18.7592 257.083 16.0172 257.083 12.6368C257.083 9.25638 254.299 6.51146 250.867 6.51146C247.435 6.51146 244.649 9.25341 244.649 12.6338C244.649 13.702 244.927 14.7283 245.448 15.6383L245.597 15.9009C245.645 15.9874 245.651 16.0948 245.612 16.1843L245.488 16.4588C245.264 16.9631 245.082 17.2972 244.894 17.518C244.827 17.5956 244.739 17.6881 244.627 17.8015C244.727 17.8253 244.836 17.8402 244.961 17.8402ZM247.226 13.9496C247.226 14.2629 247.081 14.421 246.79 14.421C246.505 14.421 246.36 14.2629 246.36 13.9436V11.7477C246.36 11.6075 246.402 11.5001 246.481 11.4195C246.563 11.339 246.666 11.2972 246.793 11.2972C247.078 11.2972 247.223 11.4493 247.223 11.7537V13.9496H247.226ZM252.182 13.9914C252.182 14.2778 252.037 14.421 251.746 14.421C251.455 14.421 251.31 14.2778 251.31 13.9914V12.3444C251.31 12.1057 251.176 11.9894 250.913 11.9894C250.822 11.9894 250.737 12.0252 250.655 12.0968C250.577 12.1684 250.54 12.2519 250.54 12.3444V13.9884C250.54 14.2748 250.398 14.418 250.11 14.418C249.816 14.418 249.668 14.2748 249.668 13.9884V12.3116C249.668 12.0938 249.565 11.9864 249.362 11.9864C249.259 11.9864 249.159 12.0282 249.056 12.1057C248.953 12.1833 248.902 12.2668 248.902 12.3593V13.9854C248.902 14.2718 248.759 14.415 248.477 14.415C248.181 14.415 248.029 14.2718 248.029 13.9854V11.7C248.029 11.4314 248.172 11.2942 248.453 11.2942C248.677 11.2942 248.82 11.3837 248.883 11.5657C249.071 11.3837 249.304 11.2942 249.583 11.2942C249.907 11.2942 250.162 11.4165 250.356 11.6612C250.546 11.4165 250.834 11.2942 251.213 11.2942C251.543 11.2942 251.791 11.3956 251.961 11.5955C252.109 11.7686 252.182 12.0043 252.182 12.3027V13.9914ZM254.1 14.4717C253.297 14.4717 252.649 13.7616 252.649 12.8844C252.649 12.0073 253.297 11.2972 254.1 11.2972C254.902 11.2972 255.551 12.0073 255.551 12.8844C255.551 13.7616 254.902 14.4717 254.1 14.4717ZM254.1 13.6781C254.457 13.6781 254.745 13.2872 254.745 12.8039C254.745 12.3206 254.457 11.9297 254.1 11.9297C253.742 11.9297 253.454 12.3206 253.454 12.8039C253.454 13.2872 253.745 13.6781 254.1 13.6781ZM246.845 11.1361C246.578 11.1361 246.36 10.9242 246.36 10.6587C246.36 10.3961 246.575 10.1813 246.845 10.1813C247.111 10.1813 247.329 10.3961 247.329 10.6587C247.329 10.9212 247.111 11.1361 246.845 11.1361Z" fill="#192847"/>
<path d="M219.293 5.00123C219.098 5.01055 218.916 5.07212 218.756 5.1422C218.606 5.20752 218.033 5.47364 217.132 5.89274C216.229 6.31221 215.034 6.86827 213.759 7.46241C211.209 8.65068 208.343 9.98827 206.874 10.6729C206.819 10.6986 206.626 10.7653 206.422 10.9383C206.217 11.1113 206 11.4697 206 11.8692C206 12.1912 206.142 12.5112 206.32 12.7022C206.498 12.8933 206.687 12.9877 206.848 13.0591C207.435 13.3184 209.253 14.1248 209.596 14.277C209.717 14.6782 210.375 16.86 210.528 17.3947C210.629 17.7476 210.725 17.9686 210.849 18.144C210.912 18.2317 210.984 18.3086 211.072 18.3688C211.107 18.3929 211.145 18.4114 211.184 18.4285L211.187 18.4297C211.196 18.4336 211.203 18.4403 211.213 18.4437C211.23 18.4502 211.241 18.451 211.264 18.4564C211.355 18.4884 211.448 18.5085 211.53 18.5085C211.881 18.5085 212.096 18.2989 212.096 18.2989L212.109 18.2888L213.915 16.5959L216.105 18.8412C216.136 18.8885 216.424 19.3162 217.058 19.3162C217.434 19.3162 217.733 19.1114 217.925 18.8933C218.117 18.6752 218.236 18.4461 218.287 18.158V18.1567C218.335 17.8845 220.353 6.65471 220.353 6.65471L220.35 6.66995C220.409 6.37767 220.424 6.10547 220.359 5.83686C220.294 5.56825 220.122 5.31107 219.909 5.17267C219.696 5.03431 219.488 4.99191 219.293 5.00123ZM219.18 6.36008C219.177 6.37906 219.182 6.36952 219.178 6.39183L219.177 6.39945L219.175 6.40707C219.175 6.40707 217.182 17.4932 217.108 17.9154C217.114 17.8835 217.089 17.9469 217.064 17.9853C217.028 17.9586 216.955 17.9243 216.955 17.9243L216.943 17.9103L213.951 14.8434L211.836 16.8245L212.465 14.0941C212.465 14.0941 216.399 9.68132 216.636 9.42449C216.827 9.21902 216.867 9.14739 216.867 9.07652C216.867 8.98159 216.821 8.9127 216.719 8.9127C216.627 8.9127 216.504 9.00942 216.438 9.05493C215.578 9.64893 211.803 12.0332 210.111 13.0997C209.842 12.9805 207.974 12.1517 207.341 11.8717C207.345 11.8694 207.344 11.8702 207.349 11.8679C208.818 11.1831 211.683 9.84554 214.232 8.65743C215.507 8.06338 216.703 7.5069 217.605 7.08777C218.493 6.67509 219.11 6.39108 219.18 6.36008Z" fill="#192847"/>
<path d="M181 4.6665H169C168.263 4.6665 167.667 5.26317 167.667 5.99984V17.9998C167.667 18.7365 168.263 19.3332 169 19.3332H181C181.737 19.3332 182.333 18.7365 182.333 17.9998V5.99984C182.333 5.26317 181.737 4.6665 181 4.6665ZM172.303 16.6665H170.336V10.3385H172.303V16.6665ZM171.299 9.43384C170.665 9.43384 170.153 8.91984 170.153 8.28717C170.153 7.6545 170.666 7.14117 171.299 7.14117C171.931 7.14117 172.445 7.65517 172.445 8.28717C172.445 8.91984 171.931 9.43384 171.299 9.43384ZM179.669 16.6665H177.704V13.5892C177.704 12.8552 177.691 11.9112 176.682 11.9112C175.659 11.9112 175.501 12.7105 175.501 13.5358V16.6665H173.536V10.3385H175.423V11.2032H175.449C175.712 10.7058 176.353 10.1812 177.31 10.1812C179.301 10.1812 179.669 11.4918 179.669 13.1958V16.6665Z" fill="#192847"/>
</svg>
