<svg width="29" height="29" viewBox="0 0 29 29" fill="none" xmlns="http://www.w3.org/2000/svg">
<path d="M14.5 7.25C15.6395 7.25 16.2086 7.25 16.5626 7.60404C16.9167 7.95808 16.9167 8.52721 16.9167 9.66667V19.3333C16.9167 20.4728 16.9167 21.0419 16.5626 21.396C16.2086 21.75 15.6395 21.75 14.5 21.75M14.5 7.25C13.3605 7.25 12.7914 7.25 12.4374 7.60404C12.0833 7.95808 12.0833 8.52721 12.0833 9.66667V19.3333C12.0833 20.4728 12.0833 21.0419 12.4374 21.396C12.7914 21.75 13.3605 21.75 14.5 21.75M14.5 7.25V3.625M14.5 21.75V25.375M22.9583 6.04167C24.0978 6.04167 24.6669 6.04167 25.021 6.39571C25.375 6.74975 25.375 7.31888 25.375 8.45833V10.875C25.375 12.0145 25.375 12.5836 25.021 12.9376C24.6669 13.2917 24.0978 13.2917 22.9583 13.2917M22.9583 6.04167C21.8189 6.04167 21.2497 6.04167 20.8957 6.39571C20.5417 6.74975 20.5417 7.31888 20.5417 8.45833V10.875C20.5417 12.0145 20.5417 12.5836 20.8957 12.9376C21.2497 13.2917 21.8189 13.2917 22.9583 13.2917M22.9583 6.04167V3.625M22.9583 13.2917V15.7083M6.04167 12.0833C7.18113 12.0833 7.75025 12.0833 8.10429 12.4374C8.45833 12.7914 8.45833 13.3605 8.45833 14.5V16.9167C8.45833 18.0561 8.45833 18.6253 8.10429 18.9793C7.75025 19.3333 7.18113 19.3333 6.04167 19.3333M6.04167 12.0833C4.90221 12.0833 4.33308 12.0833 3.97904 12.4374C3.625 12.7914 3.625 13.3605 3.625 14.5V16.9167C3.625 18.0561 3.625 18.6253 3.97904 18.9793C4.33308 19.3333 4.90221 19.3333 6.04167 19.3333M6.04167 12.0833V9.66667M6.04167 19.3333V21.75" stroke="white" stroke-width="1.5" stroke-linecap="round" stroke-linejoin="round"/>
</svg>
