<svg width="186" height="34" viewBox="0 0 186 34" fill="none" xmlns="http://www.w3.org/2000/svg">
<path d="M13.3928 33.9919H11.6729C11.6321 33.9919 11.5914 33.9756 11.5506 33.9756C10.4909 33.935 9.42309 33.8944 8.3634 33.8375C7.8417 33.8131 7.32001 33.7644 6.79832 33.7075C6.24402 33.6425 5.68972 33.5775 5.14357 33.48C4.49145 33.3582 3.84749 33.2119 3.21168 33.0576C2.86931 32.9763 2.61662 32.7732 2.5188 32.4158C2.4862 32.2858 2.47804 32.1477 2.46989 32.0177C2.46989 31.9446 2.44544 31.9039 2.38023 31.8714C2.19274 31.7658 2.05417 31.6196 1.9808 31.4165C1.91559 31.2378 1.86668 31.0509 1.81778 30.8722C1.79332 30.7747 1.75256 30.7097 1.63029 30.6934C1.49987 30.6772 1.44281 30.5797 1.45911 30.466C1.47541 30.3603 1.55693 30.2953 1.6792 30.3116C1.80962 30.3278 1.89929 30.271 1.9808 30.1816C2.07862 30.0679 2.16829 29.946 2.26611 29.8323C2.42098 29.6454 2.60032 29.4829 2.85301 29.4504C2.86931 29.4504 2.90192 29.4342 2.90192 29.4179C2.91822 29.3204 2.95898 29.2148 2.94268 29.1254C2.90192 28.9142 2.88562 28.7111 2.94268 28.508C3.06495 28.0287 3.43992 27.7118 3.83934 27.6875C3.90455 27.6875 3.96976 27.655 4.03497 27.6225C4.22246 27.5331 4.41809 27.5006 4.62188 27.5656C4.80936 27.6306 4.99685 27.6793 5.18433 27.7362C5.31475 27.7768 5.31475 27.7687 5.35551 27.6387C5.77123 26.1601 6.18696 24.6815 6.61083 23.2029C6.62714 23.146 6.63529 23.0891 6.65159 23.0404C6.49671 23.1541 6.35814 23.276 6.21956 23.406C4.52406 24.9415 2.82856 26.4688 1.13305 28.0043C0.823297 28.2887 0.513542 28.5649 0.203786 28.8411C0.171181 28.8736 0.105969 28.8898 0.05706 28.8817C0.0326056 28.8817 0 28.8086 0 28.7599C0 28.443 0.0163037 28.1343 0.0326066 27.8256C0.057061 27.2244 0.0896656 26.6151 0.11412 26.0139C0.130423 25.632 0.146727 25.2502 0.154878 24.8683C0.179333 24.2265 0.211939 23.5847 0.236393 22.9429C0.252696 22.5935 0.260847 22.2442 0.27715 21.903C0.301604 21.2855 0.33421 20.6681 0.358665 20.0507C0.374968 19.6769 0.383118 19.3113 0.399421 18.9376C0.423876 18.2958 0.456482 17.6621 0.480936 17.0203C0.497239 16.6628 0.50539 16.3135 0.521693 15.956C0.546147 15.3548 0.578753 14.7536 0.603208 14.1525C0.619511 13.7706 0.627663 13.3806 0.643966 12.9988C0.66842 12.3489 0.701025 11.7071 0.725479 11.0571C0.741782 10.7159 0.749935 10.3665 0.766238 10.0253C0.790692 9.40789 0.823298 8.79044 0.847753 8.173C0.864055 7.80741 0.904812 7.44994 1.01078 7.10872C1.22272 6.45878 1.62214 5.9957 2.31501 5.83321C2.75519 5.7276 3.20352 5.7601 3.6437 5.85759C4.47515 6.03632 5.24139 6.37754 5.96687 6.81625C6.9695 7.42557 8.05364 7.72617 9.2193 7.75866C9.30081 7.75866 9.35788 7.73429 9.39863 7.6693C9.52906 7.45806 9.67578 7.25496 9.80621 7.0356C10.6051 5.73572 11.0452 4.33835 11.0289 2.80287C11.0289 2.28292 10.8007 1.8767 10.4013 1.56798C10.1078 1.3405 9.82251 1.3405 9.52091 1.55173C9.35788 1.66547 9.2356 1.61673 9.21115 1.41362C9.17039 1.1049 9.2356 0.82055 9.34972 0.544325C9.42309 0.373716 9.55351 0.251852 9.73284 0.194982C9.85511 0.162485 9.98554 0.129988 10.1078 0.121864C10.5317 0.0893669 10.9474 0.162485 11.3631 0.251852C11.4283 0.268101 11.461 0.259976 11.4936 0.194982C11.5425 0.0812425 11.6321 0 11.7544 0C11.9256 0 12.1049 -1.49012e-08 12.2761 0.0162485C12.7978 0.0731183 13.2869 0.219355 13.776 0.406213C14.2243 0.584946 14.4933 0.909916 14.6319 1.36487C14.7949 1.88483 14.8438 2.42915 14.8601 2.96535C14.8683 3.27407 14.852 3.59092 14.8438 3.90777C14.8357 4.63895 14.9172 5.36201 15.0802 6.07694C15.2025 6.62939 15.3737 7.16559 15.6345 7.6693C15.6753 7.74241 15.716 7.77491 15.7975 7.76679C16.0828 7.74241 16.3763 7.73429 16.6616 7.70179C17.5419 7.57993 18.3652 7.28746 19.1233 6.82437C19.6858 6.48315 20.2808 6.20693 20.9085 6.00382C21.4546 5.83321 22.0008 5.7276 22.5714 5.80072C23.2235 5.89008 23.68 6.2313 23.9571 6.82437C24.1283 7.19809 24.2017 7.59618 24.2261 8.00239C24.2587 8.54671 24.275 9.09104 24.2913 9.63536C24.3077 10.0172 24.324 10.399 24.3403 10.7809C24.3647 11.3821 24.3892 11.9752 24.4218 12.5763C24.4381 12.9663 24.4544 13.3563 24.4707 13.7462C24.5033 14.5018 24.5359 15.2573 24.5685 16.021C24.5848 16.411 24.6011 16.8091 24.6174 17.199C24.65 17.9465 24.6826 18.702 24.7152 19.4495C24.7315 19.8476 24.7478 20.2456 24.7641 20.6519C24.7967 21.3993 24.8293 22.1467 24.862 22.8941C24.8783 23.2922 24.8946 23.6903 24.9109 24.0965C24.9435 24.8033 24.9761 25.5102 25.0087 26.2251C25.025 26.6557 25.0413 27.0863 25.0576 27.5168C25.0657 27.7281 25.082 27.9474 25.0902 28.1587C25.0983 28.3699 25.1065 28.5811 25.1065 28.7924C25.1065 28.833 25.082 28.8898 25.0494 28.898C25.0168 28.9142 24.9598 28.898 24.9272 28.8736C24.862 28.833 24.813 28.7761 24.756 28.7192C24.3321 28.3293 23.9164 27.9393 23.4925 27.5493C22.1475 26.3063 20.8025 25.0552 19.4575 23.8122C19.1559 23.5278 18.8299 23.2679 18.5201 22.9998C18.4957 22.9754 18.4631 22.9591 18.4141 22.9266C18.4223 22.9835 18.4305 23.016 18.4386 23.0404C18.8788 24.5921 19.3108 26.1357 19.751 27.6875C19.7754 27.7606 19.808 27.7768 19.8733 27.7606C20.077 27.6956 20.2808 27.6468 20.4846 27.5737C20.6803 27.5087 20.8677 27.5412 21.0471 27.6306C21.1204 27.6631 21.2019 27.6956 21.2835 27.7037C21.4628 27.7281 21.6258 27.7849 21.7562 27.9068C22.1231 28.2318 22.2453 28.6299 22.1394 29.1011C22.1149 29.2148 22.1557 29.3123 22.172 29.4179C22.172 29.4342 22.2127 29.4585 22.2372 29.4585C22.4654 29.491 22.6285 29.6292 22.7752 29.7916C22.8811 29.9135 22.979 30.0354 23.0849 30.1654C23.1746 30.271 23.2724 30.336 23.4273 30.3197C23.5659 30.3035 23.6555 30.4172 23.6311 30.5553C23.6148 30.6366 23.5577 30.6934 23.4762 30.7016C23.3458 30.7097 23.2969 30.7909 23.2724 30.9047C23.248 30.994 23.2317 31.0834 23.2072 31.1646C23.1338 31.4409 23.0197 31.6927 22.767 31.8471C22.6529 31.9121 22.6285 31.9933 22.6203 32.1152C22.6121 32.6189 22.3676 32.9439 21.8867 33.082C21.5117 33.1876 21.1367 33.2851 20.7618 33.3501C20.1993 33.4557 19.6287 33.545 19.0663 33.6263C18.6668 33.6832 18.2593 33.7238 17.8517 33.7644C17.4686 33.805 17.0855 33.8294 16.7023 33.8538C16.1073 33.8944 15.5204 33.9269 14.9253 33.9513C14.4607 33.9675 13.9961 33.9756 13.5314 33.9838C13.4907 33.9838 13.4499 34 13.4092 34L13.3928 33.9919ZM22.2453 7.73429C22.2698 8.19737 22.2861 8.64421 22.3105 9.09104C22.3268 9.481 22.3432 9.87097 22.3595 10.2609C22.3921 11.0002 22.4247 11.7314 22.4573 12.4707C22.4736 12.8363 22.4899 13.21 22.5062 13.5756C22.5388 14.2987 22.5714 15.0299 22.604 15.7529C22.6203 16.1266 22.6366 16.5004 22.6529 16.8822C22.6855 17.6053 22.7181 18.3283 22.7507 19.0514C22.767 19.4332 22.7833 19.8069 22.7996 20.1888C22.8241 20.7168 22.8485 21.253 22.873 21.7811C22.8893 22.1873 22.9056 22.6017 22.9219 23.0079C22.9545 23.6903 22.9871 24.3646 23.0197 25.0471C23.0442 25.6158 23.0686 26.1845 23.0931 26.7532C23.0931 26.81 23.0931 26.8832 23.1257 26.9157C23.2561 27.0538 23.3947 27.1756 23.5333 27.3056C23.5577 27.2406 23.5577 27.1919 23.5577 27.1431C23.5333 26.5338 23.5007 25.9245 23.4762 25.3233C23.4599 24.9496 23.4436 24.584 23.4273 24.2103C23.4028 23.6091 23.3784 23.0079 23.3458 22.4067C23.3295 22.033 23.3132 21.6593 23.2969 21.2774C23.2724 20.6762 23.248 20.075 23.2154 19.4738C23.1991 19.092 23.1828 18.7183 23.1665 18.3364C23.1338 17.5809 23.1012 16.8253 23.0686 16.0616C23.0523 15.6798 23.036 15.298 23.0197 14.9161C22.9953 14.3637 22.9708 13.8031 22.9464 13.2507C22.9301 12.8282 22.9138 12.4139 22.8974 11.9914C22.8648 11.2846 22.8322 10.5859 22.7996 9.87909C22.7833 9.44851 22.767 9.02605 22.7507 8.59546C22.7426 8.38423 22.7263 8.173 22.7181 7.96177C22.7181 7.78304 22.7181 7.61243 22.7181 7.42557C23.1664 7.55556 23.5822 7.76679 23.9979 8.04301C23.9979 7.72616 23.9408 7.44182 23.8512 7.16559C23.68 6.61314 23.3458 6.20693 22.7589 6.04444C22.3024 5.92258 21.8541 5.9632 21.4057 6.06882C20.6884 6.2313 20.02 6.50753 19.4005 6.88124C18.406 7.49056 17.3463 7.8724 16.1806 7.94552C16.0665 7.94552 15.9524 7.96177 15.8301 7.96989C15.8301 7.97802 15.822 7.98614 15.8138 7.99427C15.8872 8.06738 15.9606 8.14863 16.0421 8.21362C16.1154 8.26237 16.0991 8.31111 16.0828 8.38423C16.0665 8.46547 16.0095 8.44922 15.9606 8.4411C15.6671 8.39235 15.3737 8.33548 15.0802 8.27861C14.9905 8.26237 14.9009 8.22174 14.7949 8.19737C14.8194 8.36798 14.9335 8.53047 14.8031 8.69295C14.1998 8.64421 13.6863 8.40048 13.2135 8.00239C12.9771 8.25424 12.7407 8.50609 12.5043 8.76607C12.2679 8.52234 12.0316 8.27049 11.787 8.01864C11.3387 8.40048 10.8577 8.71732 10.3116 8.96105C10.385 8.63608 10.4583 8.33548 10.5317 8.01051C9.95293 8.30299 9.40678 8.56296 8.75467 8.53047C8.90139 8.34361 9.03182 8.173 9.17854 7.98614C9.12963 7.98614 9.11333 7.97802 9.09703 7.96989C8.86879 7.95364 8.6487 7.9374 8.42046 7.91302C7.57271 7.80741 6.77386 7.53931 6.04023 7.10872C5.51854 6.80812 4.98869 6.51565 4.41809 6.31254C3.81488 6.09319 3.19537 5.92258 2.54326 6.01195C2.16014 6.06069 1.81778 6.21505 1.56508 6.51565C1.25532 6.88124 1.1412 7.31995 1.08414 7.78303C1.07599 7.8724 1.06784 7.95364 1.05969 8.06738C1.47541 7.78304 1.89114 7.5718 2.35577 7.44182C2.35577 7.50681 2.35577 7.54743 2.35577 7.59618C2.33947 7.97802 2.31501 8.35986 2.29871 8.7417C2.26611 9.38351 2.24165 10.0335 2.2172 10.6834C2.19274 11.3415 2.16014 11.9995 2.13568 12.6657C2.11123 13.3075 2.07862 13.9493 2.05417 14.5912C2.02971 15.2492 1.99711 15.9073 1.97265 16.5735C1.9482 17.2153 1.91559 17.8571 1.89114 18.4989C1.86668 19.157 1.83408 19.8151 1.80962 20.4812C1.78517 20.9606 1.76887 21.4399 1.74441 21.9192C1.71996 22.5854 1.68735 23.2435 1.6629 23.9097C1.63844 24.389 1.62214 24.8602 1.59769 25.3395C1.57323 25.9895 1.54063 26.6394 1.51617 27.2894C1.51617 27.3137 1.51617 27.3462 1.52432 27.395C1.6629 27.2731 1.78517 27.1675 1.89929 27.0538C1.94005 27.0131 1.9808 26.94 1.9808 26.8832C2.00526 26.4769 2.01341 26.0789 2.02971 25.6726C2.04602 25.3314 2.05417 24.9902 2.07047 24.649C2.09493 24.0559 2.12753 23.4628 2.15198 22.8698C2.16829 22.5204 2.18459 22.1711 2.19274 21.8136C2.2172 21.2206 2.2498 20.6275 2.27426 20.0344C2.29056 19.6851 2.29871 19.3438 2.31501 18.9945C2.33947 18.3933 2.37208 17.784 2.39653 17.1828C2.41283 16.8416 2.42913 16.5004 2.43729 16.1591C2.46174 15.5579 2.49435 14.9486 2.5188 14.3474C2.5351 14.0062 2.54325 13.665 2.55956 13.3238C2.58401 12.747 2.61662 12.1701 2.64107 11.5933C2.65738 11.2277 2.66553 10.8621 2.68183 10.4965C2.71444 9.72473 2.74704 8.95293 2.7878 8.18112C2.7878 8.04301 2.8041 7.91302 2.81225 7.76679C2.83671 7.78303 2.84486 7.78304 2.85301 7.79116C3.23613 8.12425 3.6274 8.45735 4.01052 8.79857C4.04312 8.83106 4.06758 8.89606 4.06758 8.93668C4.05128 9.39976 4.02682 9.86284 4.01052 10.3259C3.97791 11.0002 3.95346 11.6746 3.92085 12.3489C3.90455 12.8201 3.88009 13.2913 3.86379 13.7625C3.83934 14.4287 3.80673 15.0949 3.78228 15.7611C3.75782 16.2404 3.74152 16.7197 3.71707 17.199C3.69261 17.8652 3.66001 18.5314 3.63555 19.1976C3.6111 19.8394 3.57849 20.4812 3.55404 21.1231C3.52143 21.8786 3.49698 22.6342 3.46437 23.3979C3.46437 23.5847 3.44807 23.7634 3.43992 23.9503C3.41546 24.5027 3.39101 25.0552 3.36655 25.6076C3.36655 25.6239 3.36655 25.6483 3.38286 25.6808C3.53773 25.5427 3.68446 25.4045 3.83119 25.2827C3.929 25.2014 3.96976 25.1039 3.96976 24.974C3.96976 24.6002 3.99422 24.2265 4.01052 23.8609C4.03497 23.276 4.06758 22.691 4.09203 22.098C4.10834 21.7486 4.12464 21.4074 4.13279 21.0581C4.15724 20.4731 4.18985 19.8882 4.2143 19.3114C4.23061 18.962 4.23876 18.6208 4.25506 18.2714C4.27952 17.6703 4.31212 17.0691 4.33658 16.4679C4.35288 16.1348 4.36103 15.8017 4.37733 15.4686C4.40179 14.8755 4.43439 14.2906 4.45885 13.6975C4.47515 13.3563 4.4833 13.0069 4.49961 12.6657C4.53221 11.9589 4.56482 11.2602 4.59742 10.5534C4.61373 10.1797 4.63003 9.80597 4.64633 9.42413C4.64633 9.39976 4.65448 9.37539 4.66263 9.35102C4.67894 9.35102 4.68709 9.35102 4.69524 9.35102C4.99684 9.59474 5.29845 9.83847 5.5919 10.0903C5.62451 10.1147 5.64081 10.1797 5.64081 10.2284C5.62451 10.6671 5.60005 11.114 5.58375 11.5527C5.55114 12.2595 5.52669 12.9663 5.50224 13.6812C5.47778 14.2093 5.46148 14.7293 5.43702 15.2573C5.41257 15.9642 5.37996 16.671 5.35551 17.3859C5.33105 17.9059 5.31475 18.4258 5.2903 18.9458C5.26584 19.6607 5.23324 20.3675 5.20878 21.0824C5.18433 21.7161 5.16803 22.3579 5.14357 22.9916C5.13542 23.211 5.11912 23.4385 5.11097 23.6578C5.11097 23.8041 5.11097 23.9503 5.11097 24.1128C5.13542 24.0965 5.15172 24.0884 5.15987 24.0803C5.31475 23.9422 5.47778 23.7959 5.63266 23.6497C5.66526 23.6172 5.68157 23.5685 5.68157 23.5197C5.68972 23.3085 5.69787 23.1054 5.70602 22.8941C5.73048 22.3011 5.76308 21.7161 5.78754 21.1231C5.80384 20.7493 5.82014 20.3756 5.82829 19.9938C5.85275 19.3682 5.88535 18.7345 5.90981 18.109C5.92611 17.7677 5.93426 17.4184 5.95056 17.0772C5.97502 16.4841 6.00763 15.891 6.03208 15.298C6.04838 14.9243 6.05654 14.5505 6.07284 14.1849C6.10544 13.4619 6.13805 12.7307 6.17065 12.0076C6.18696 11.6014 6.20326 11.2033 6.21956 10.7971C6.21956 10.6834 6.23587 10.5697 6.24402 10.4478C6.52117 10.5697 6.78201 10.6834 7.05101 10.8053C7.06732 10.7484 7.07547 10.7159 7.08362 10.6834C7.53195 10.789 7.98028 10.7403 8.42046 10.6671C9.30082 10.529 10.1649 10.3097 11.0045 10.001C11.4691 9.83035 11.9174 9.64349 12.3169 9.34289C12.4065 9.2779 12.488 9.18853 12.5777 9.10729C12.7326 9.32664 12.9364 9.481 13.1646 9.61099C13.6945 9.92784 14.2732 10.1228 14.8683 10.2934C15.5367 10.4884 16.2133 10.6346 16.898 10.6996C17.1996 10.7321 17.5012 10.7078 17.8028 10.6996C17.8843 10.6996 17.9577 10.6671 17.9821 10.7971C18.2511 10.6753 18.512 10.5615 18.7891 10.4397C18.7891 10.5615 18.8054 10.6671 18.8136 10.7646C18.8299 11.179 18.8462 11.6014 18.8625 12.0158C18.8869 12.6088 18.9114 13.2019 18.944 13.795C18.9603 14.1687 18.9766 14.5424 18.9929 14.9243C19.0255 15.6798 19.0581 16.4272 19.0907 17.1828C19.107 17.5646 19.1233 17.9465 19.1396 18.3283C19.1641 18.8726 19.1885 19.4088 19.213 19.9532C19.2293 20.3756 19.2456 20.79 19.2619 21.2124C19.2945 21.9355 19.3271 22.6585 19.3597 23.3816C19.3597 23.4303 19.3923 23.4872 19.4249 23.5278C19.5635 23.666 19.7021 23.7878 19.8488 23.9178C19.8733 23.9422 19.8977 23.9584 19.9466 23.999C19.9385 23.7797 19.9222 23.5847 19.9222 23.3979C19.8977 22.8779 19.8814 22.3579 19.857 21.838C19.8325 21.1231 19.7999 20.4163 19.7754 19.7013C19.751 19.1814 19.7347 18.6614 19.7102 18.1415C19.6858 17.4346 19.6532 16.7278 19.6287 16.0129C19.6043 15.4848 19.588 14.9649 19.5635 14.4368C19.539 13.73 19.5064 13.0232 19.482 12.3082C19.4657 11.8452 19.4494 11.3821 19.4331 10.919C19.4249 10.6915 19.4086 10.464 19.3923 10.2284C19.3923 10.1553 19.4086 10.0984 19.4657 10.0578C19.6695 9.89534 19.8733 9.73286 20.077 9.56225C20.1749 9.481 20.2727 9.39976 20.3786 9.31852C20.3868 9.48913 20.4031 9.63537 20.4031 9.78973C20.4357 10.4153 20.4602 11.0409 20.4846 11.6664C20.5091 12.2839 20.5417 12.9013 20.5661 13.5188C20.5987 14.3068 20.6395 15.0867 20.6721 15.8748C20.6966 16.4922 20.7292 17.1016 20.7536 17.719C20.7862 18.507 20.827 19.287 20.8596 20.075C20.884 20.53 20.9003 20.9931 20.9248 21.448C20.9493 22.0736 20.9819 22.7073 21.0063 23.3329C21.0308 23.8772 21.0471 24.4215 21.0715 24.9658C21.0715 25.0227 21.1041 25.0877 21.1449 25.1283C21.2835 25.2664 21.4302 25.3964 21.5769 25.5264C21.6014 25.5427 21.6258 25.5589 21.6666 25.5914C21.6666 25.5183 21.6666 25.4695 21.6666 25.4208C21.6503 24.9658 21.6258 24.5109 21.6095 24.0559C21.5932 23.6903 21.5769 23.3166 21.5606 22.951C21.5362 22.3661 21.5117 21.7811 21.4791 21.2043C21.4628 20.8062 21.4465 20.4162 21.4302 20.0182C21.4057 19.417 21.3813 18.8158 21.3487 18.2146C21.3324 17.8327 21.3161 17.4509 21.2998 17.0691C21.2753 16.476 21.2509 15.891 21.2182 15.298C21.2019 14.908 21.1856 14.518 21.1693 14.1281C21.1367 13.3644 21.1041 12.5926 21.0715 11.8289C21.0552 11.4471 21.0389 11.0652 21.0226 10.6834C20.9982 10.0984 20.9656 9.5135 20.9493 8.93668C20.9493 8.88793 20.9819 8.82294 21.0226 8.79044C21.1938 8.63608 21.3731 8.48984 21.5443 8.34361C21.7644 8.15675 21.9763 7.96177 22.2127 7.75866L22.2453 7.73429ZM12.5369 33.5532C12.5369 33.5532 12.5369 33.5857 12.5369 33.5938C13.4581 33.5694 14.371 33.545 15.2921 33.5125C15.8872 33.4882 16.4741 33.4557 17.0692 33.4069C17.6561 33.3582 18.2511 33.3176 18.838 33.2363C19.5635 33.1307 20.289 33.0007 21.0145 32.8626C21.2672 32.8139 21.5117 32.7489 21.7644 32.6758C22.0497 32.5945 22.1883 32.432 22.2046 32.172C22.2127 32.0502 22.2209 31.9283 22.2209 31.8065C22.2209 31.6927 22.2698 31.6115 22.3758 31.579C22.5795 31.5059 22.7018 31.3677 22.767 31.1646C22.8159 31.0022 22.8567 30.8397 22.9056 30.6772C22.9301 30.6041 22.9219 30.5634 22.8648 30.5147C22.7996 30.4578 22.7426 30.3847 22.6774 30.3197C22.5714 30.1979 22.4817 30.076 22.3676 29.9622C22.2779 29.8729 22.172 29.816 22.0415 29.8404C21.8541 29.8648 21.7807 29.7998 21.7725 29.621C21.7481 29.2311 21.6014 29.0361 21.2509 28.9223C21.0797 28.8655 20.9085 28.8898 20.7292 28.9223C19.8814 29.1173 19.0337 29.2879 18.1778 29.4748C18.137 29.4829 18.0881 29.5073 18.0636 29.5479C17.974 29.6779 17.9006 29.8241 17.8109 29.9541C17.7131 30.1004 17.6235 30.2385 17.6235 30.4172C17.6235 30.4497 17.5664 30.5066 17.5338 30.5147C17.4686 30.5309 17.436 30.4822 17.436 30.4172C17.436 30.2547 17.3545 30.1247 17.2403 30.0191C17.1425 29.9298 17.0529 29.8241 16.955 29.7266C16.9306 29.7023 16.8817 29.686 16.8491 29.686C16.3274 29.7185 15.7975 29.7591 15.2758 29.7835C14.8438 29.7998 14.4199 29.7916 13.9961 29.7266C13.9635 29.7266 13.9145 29.751 13.8901 29.7754C13.8249 29.8404 13.7678 29.9135 13.6945 29.9785C13.5966 30.0597 13.4825 30.1166 13.3928 30.206C13.3195 30.2791 13.2624 30.3847 13.2054 30.4741C13.1809 30.5147 13.1483 30.5797 13.1238 30.5797C13.0831 30.5797 13.0179 30.5391 12.9934 30.5066C12.9038 30.3116 12.8059 30.1085 12.7407 29.9054C12.6755 29.6941 12.6837 29.6941 12.4554 29.6941C12.3902 29.6941 12.3576 29.7104 12.3495 29.7835C12.3087 30.0435 12.2272 30.2953 12.0723 30.5147C12.0479 30.5553 11.9826 30.5797 11.9419 30.5797C11.9174 30.5797 11.893 30.5147 11.8685 30.4741C11.8278 30.4091 11.8033 30.3278 11.7463 30.271C11.6484 30.1816 11.5343 30.1085 11.4365 30.0272C11.355 29.9541 11.2653 29.8891 11.2001 29.7998C11.1512 29.7348 11.1186 29.7266 11.0452 29.7348C10.8414 29.7591 10.6295 29.7835 10.4257 29.7916C9.69209 29.816 8.95845 29.7916 8.22482 29.6941C8.18407 29.6941 8.13516 29.7185 8.10255 29.7429C8.02919 29.8079 7.97213 29.8891 7.89877 29.9541C7.75204 30.076 7.63792 30.2141 7.62977 30.4172C7.62977 30.4822 7.59716 30.5391 7.5238 30.5147C7.48304 30.4984 7.43413 30.4416 7.42598 30.401C7.42598 30.2303 7.34446 30.1004 7.2548 29.9622C7.16513 29.8241 7.08362 29.6779 6.99395 29.5398C6.9695 29.5073 6.92874 29.4829 6.88798 29.4748C6.07284 29.2961 5.25769 29.1255 4.44255 28.9548C4.27137 28.9223 4.10834 28.8411 3.92085 28.8898C3.55404 28.9873 3.38286 29.1255 3.31764 29.4423C3.30134 29.5154 3.30134 29.5967 3.29319 29.6698C3.27689 29.7916 3.17907 29.8648 3.0568 29.8404C2.94268 29.816 2.84486 29.8404 2.76334 29.9135C2.69813 29.9704 2.63292 30.0272 2.57586 30.0922C2.43729 30.2385 2.30686 30.3928 2.17644 30.5472C2.16014 30.5634 2.15198 30.6041 2.16014 30.6284C2.20089 30.7909 2.2498 30.9453 2.29056 31.1078C2.35577 31.3352 2.47804 31.5059 2.71444 31.5871C2.81225 31.6196 2.86116 31.6927 2.86116 31.7902C2.86116 31.8958 2.86116 32.0096 2.87747 32.1152C2.89377 32.3751 2.99974 32.562 3.25243 32.6433C3.3584 32.6758 3.47252 32.7082 3.58664 32.7407C4.55667 33.0007 5.53484 33.1632 6.52932 33.2688C7.17328 33.3338 7.8091 33.4069 8.45306 33.4476C9.16224 33.4963 9.87957 33.5369 10.5969 33.5532C11.249 33.5694 11.893 33.5532 12.5451 33.5532H12.5369ZM9.19485 8.27861C9.19485 8.27861 9.22745 8.28674 9.2356 8.28674C9.71654 8.18925 10.1486 7.97802 10.5724 7.74241C10.5887 7.73429 10.605 7.71804 10.6132 7.70179C10.7436 7.48244 10.8903 7.26308 10.9882 7.02748C11.2816 6.35317 11.4365 5.63823 11.5751 4.91517C11.6321 4.6227 11.681 4.3221 11.7381 4.01338C11.8033 4.01338 11.8685 4.02963 11.9337 4.03775C11.9337 4.06213 11.9337 4.07025 11.9337 4.0865C11.8115 4.90705 11.6566 5.71135 11.412 6.50753C11.2816 6.92999 11.1267 7.34433 10.8822 7.71804C10.8251 7.80741 10.7762 7.91302 10.7436 8.01051C10.6866 8.18925 10.654 8.37611 10.605 8.59546C10.6703 8.56296 10.711 8.54671 10.7436 8.52234C10.9963 8.35173 11.249 8.16488 11.5099 7.99427C11.681 7.88053 11.7789 7.71804 11.8359 7.53118C11.9908 7.05998 12.0886 6.58065 12.1457 6.09319C12.2272 5.41888 12.3006 4.73644 12.3739 4.054C12.3821 3.96464 12.4065 3.93214 12.488 3.94839C12.5206 3.94839 12.5451 3.94839 12.5859 3.95651C12.5695 4.14337 12.5696 4.33023 12.5451 4.50896C12.488 5.02891 12.431 5.54887 12.3576 6.06882C12.2761 6.65376 12.1783 7.23871 11.95 7.79928C11.9419 7.82366 11.9337 7.8724 11.95 7.89677C12.1294 8.09176 12.3087 8.27861 12.4636 8.43298C12.6755 8.24612 12.8793 8.06738 13.0749 7.88053C13.0912 7.86428 13.0912 7.82366 13.0831 7.79928C13.0586 7.61243 13.026 7.41744 13.0179 7.23059C12.9934 6.87312 12.9771 6.51565 12.969 6.15818C12.9527 5.492 12.9445 4.83393 12.9282 4.16774C12.9282 4.10275 12.9445 4.07838 13.0179 4.07025C13.1157 4.07025 13.132 4.10275 13.132 4.19211C13.132 4.76081 13.1483 5.32951 13.1646 5.90633C13.1809 6.45066 13.2135 6.98686 13.2543 7.53118C13.2624 7.66117 13.2624 7.80741 13.3928 7.9049C13.7352 8.18112 14.102 8.38423 14.5341 8.46547C14.6563 8.48985 14.6808 8.4736 14.6237 8.35173C14.5422 8.15675 14.4444 7.96989 14.3547 7.78303C14.1183 7.3037 13.9879 6.78375 13.8982 6.2638C13.8167 5.77634 13.7515 5.28889 13.6863 4.80143C13.6618 4.6227 13.6618 4.43584 13.6455 4.24898C13.7189 4.24898 13.7841 4.24898 13.8493 4.24086C13.8575 4.3871 13.8656 4.52521 13.8819 4.6552C13.9471 5.30514 14.0287 5.95508 14.1754 6.59689C14.2732 7.02748 14.3873 7.44994 14.6237 7.82366C14.6645 7.88865 14.7297 7.95364 14.7949 7.97802C14.9987 8.05114 15.2025 8.11613 15.4144 8.16488C15.5122 8.18925 15.6182 8.19737 15.7242 8.21362C15.6019 8.00239 15.4715 7.80741 15.3737 7.6043C14.9253 6.63752 14.7134 5.60574 14.6563 4.54146C14.6156 3.80215 14.6319 3.05472 14.6074 2.30729C14.5911 1.95795 14.5096 1.62485 14.3955 1.29176C14.3384 1.1374 14.2406 1.0724 14.0939 1.04803C13.7841 0.999283 13.4825 1.02366 13.1809 1.08053C12.9201 1.12927 12.6592 1.18614 12.5369 1.47049C12.5206 1.51111 12.4391 1.53548 12.3902 1.53548C12.2679 1.54361 12.2027 1.46237 12.1457 1.373C12.1131 1.31613 12.0886 1.26738 12.0071 1.25114C11.8767 1.22676 11.7381 1.20239 11.624 1.1374C11.412 1.01553 11.2164 0.869295 11.0208 0.723059C10.8251 0.584946 10.6295 0.454958 10.3768 0.446834C10.2627 0.446834 10.1404 0.446834 10.0181 0.454958C9.63503 0.471207 9.48015 0.601195 9.41494 0.966786C9.39048 1.09677 9.39048 1.23489 9.38233 1.373C9.39863 1.373 9.41494 1.38112 9.42309 1.38925C9.45569 1.35675 9.4883 1.32425 9.51275 1.29176C9.56981 1.21051 9.61872 1.12927 9.68394 1.05615C9.83066 0.885544 10.0263 0.796177 10.2545 0.853047C10.4339 0.901792 10.6132 0.958662 10.7681 1.04803C11.2083 1.29988 11.5343 1.68172 11.8033 2.10418C11.8359 2.16105 11.8685 2.2098 11.9093 2.28292C11.8522 2.28292 11.8196 2.26667 11.7952 2.26667C11.6647 2.25854 11.5343 2.23417 11.4039 2.23417C11.249 2.23417 11.1757 2.33166 11.2001 2.48602C11.2164 2.61601 11.2409 2.75412 11.2327 2.89223C11.2246 3.20908 11.2083 3.53405 11.1757 3.8509C11.0941 4.50896 10.9311 5.15078 10.6866 5.76822C10.3361 6.64564 9.83881 7.43369 9.27636 8.18925C9.25191 8.22174 9.2356 8.25424 9.21115 8.28674L9.19485 8.27861ZM12.5777 9.37539C12.5777 9.37539 12.5532 9.38351 12.5451 9.39164C12.2435 9.64349 11.9011 9.8141 11.5425 9.96846C10.7355 10.3097 9.89587 10.5534 9.03997 10.724C8.49382 10.8378 7.94767 10.919 7.39337 10.8946C7.2548 10.8946 7.24665 10.8946 7.2548 11.0327C7.26295 11.3415 7.26295 11.6583 7.29556 11.967C7.34447 12.4464 7.38522 12.9176 7.46674 13.3888C7.67052 14.5587 8.02919 15.6798 8.52643 16.7522C9.43939 18.7102 10.7599 20.3513 12.4636 21.6836C12.5206 21.7243 12.5532 21.7243 12.6103 21.6836C12.7815 21.5374 12.9527 21.3993 13.1238 21.253C14.583 20.0019 15.7242 18.507 16.5312 16.7603C17.0773 15.5823 17.4604 14.3474 17.6479 13.0638C17.705 12.6738 17.7539 12.2839 17.7865 11.8858C17.8109 11.5771 17.8028 11.2683 17.8109 10.9596C17.8109 10.8946 17.7946 10.8784 17.7213 10.8784C17.436 10.8784 17.1588 10.8865 16.8735 10.8621C16.2296 10.7971 15.6019 10.6671 14.9824 10.4884C14.1265 10.2366 13.2706 9.97658 12.5777 9.36726V9.37539ZM10.3524 21.3343C10.3116 21.383 10.2871 21.4074 10.2708 21.4318C10.0589 21.708 9.85511 21.9761 9.63503 22.2523C9.61057 22.2848 9.54536 22.3173 9.5046 22.3092C9.472 22.3011 9.43939 22.2361 9.43124 22.1873C9.41494 22.1061 9.41494 22.0249 9.40679 21.9355C9.35788 21.4968 9.30897 21.0499 9.26821 20.6112C9.26006 20.5137 9.24376 20.4163 9.22745 20.2944C9.17039 20.3431 9.14594 20.3675 9.11333 20.4C8.76282 20.7331 8.40416 21.0743 8.05364 21.4074C7.94767 21.513 7.89061 21.4968 7.83355 21.3587C7.76834 21.2043 7.71128 21.0499 7.64607 20.8956C7.61346 20.8143 7.58086 20.7412 7.54825 20.66C7.5401 20.66 7.53195 20.66 7.51565 20.66C7.2385 21.6511 6.9532 22.6504 6.67605 23.6416C6.69235 23.6497 6.70865 23.666 6.72495 23.6741C6.74126 23.6416 6.75756 23.601 6.78201 23.5766C7.13253 23.2191 7.48304 22.8535 7.83355 22.4961C7.95583 22.3742 8.02104 22.3904 8.06994 22.5529C8.18406 22.951 8.29819 23.3572 8.41231 23.7553C8.42861 23.8041 8.44491 23.8447 8.46122 23.9097C8.49382 23.8691 8.51828 23.8366 8.54273 23.8041C8.72206 23.5603 8.90139 23.3166 9.08073 23.0729C9.17854 22.9429 9.26821 22.8129 9.36603 22.691C9.39048 22.6585 9.44754 22.6342 9.48015 22.6423C9.51275 22.6423 9.53721 22.6992 9.56166 22.7398C9.56981 22.756 9.56981 22.7723 9.57796 22.7885C9.68393 23.3816 9.7899 23.9665 9.89587 24.5596C9.91217 24.6571 9.93663 24.7546 9.96108 24.8683C9.98554 24.8358 10.0018 24.8277 10.01 24.8115C10.3197 24.3484 10.6295 23.8853 10.9311 23.4141C10.9556 23.3816 10.9474 23.3166 10.9393 23.276C10.7762 22.6992 10.605 22.1305 10.442 21.5536C10.4176 21.4805 10.4013 21.4074 10.3687 21.318L10.3524 21.3343ZM17.5501 20.6762C17.5501 20.6762 17.5256 20.6762 17.5175 20.6762C17.5012 20.7087 17.493 20.7331 17.4767 20.7656C17.3952 20.9606 17.3137 21.1637 17.2322 21.3587C17.167 21.513 17.1181 21.5211 16.9958 21.4074C16.6453 21.0743 16.2866 20.7331 15.9361 20.4C15.9035 20.3756 15.879 20.3431 15.8301 20.3025C15.8057 20.4975 15.7894 20.6762 15.7649 20.855C15.716 21.3018 15.6671 21.7486 15.6182 22.1955C15.6182 22.2361 15.5774 22.3092 15.5448 22.3092C15.5041 22.3092 15.4389 22.2767 15.4063 22.2442C15.1943 21.9761 14.9905 21.708 14.7867 21.4399C14.7623 21.4074 14.7378 21.383 14.6971 21.3343C14.6808 21.383 14.6645 21.4155 14.6563 21.4399C14.477 22.0573 14.2977 22.6748 14.1183 23.2922C14.102 23.341 14.1183 23.406 14.1428 23.4547C14.4281 23.9016 14.7215 24.3403 15.015 24.779C15.0313 24.8115 15.0557 24.8358 15.0965 24.8765C15.1128 24.7952 15.121 24.7384 15.1373 24.6896C15.2514 24.0559 15.3655 23.4303 15.4878 22.7967C15.4959 22.7398 15.5448 22.6992 15.5774 22.6423C15.6263 22.6748 15.6916 22.6992 15.7242 22.7398C15.9932 23.0973 16.254 23.4547 16.523 23.8122C16.5475 23.8447 16.5719 23.8691 16.6045 23.9178C16.6208 23.8609 16.6371 23.8284 16.6453 23.7959C16.7594 23.3897 16.8735 22.9916 16.9876 22.5854C17.0366 22.3986 17.1099 22.3823 17.2403 22.5204C17.5827 22.8779 17.9332 23.2272 18.2756 23.5847C18.3 23.6091 18.3245 23.6335 18.3571 23.6578C18.3652 23.6578 18.3734 23.6497 18.3815 23.6416C18.1044 22.6504 17.8272 21.6593 17.5419 20.6762H17.5501ZM7.24665 26.4769C7.24665 26.4769 7.26295 26.4769 7.27925 26.4769C7.30371 26.4444 7.32001 26.4119 7.34447 26.3795C7.61346 25.9407 7.87431 25.502 8.14331 25.0714C8.16776 25.0308 8.22482 24.9821 8.26558 24.9902C8.30634 24.9902 8.33079 25.0633 8.3634 25.0958C8.3634 25.0958 8.3634 25.1121 8.37155 25.1283C8.51012 25.5589 8.6487 25.9895 8.79543 26.4119C8.81173 26.4526 8.82803 26.4932 8.84433 26.5419C8.86879 26.5094 8.88509 26.4932 8.89324 26.4769C9.17039 26.0464 9.45569 25.6158 9.72469 25.1771C9.74915 25.1364 9.7573 25.0633 9.74915 25.0146C9.65133 24.454 9.54536 23.8853 9.43939 23.3247C9.42309 23.2272 9.39863 23.1297 9.37418 23.0079C9.33342 23.0566 9.30897 23.081 9.29266 23.1135C9.03182 23.4628 8.77097 23.8203 8.51012 24.1697C8.47752 24.2103 8.41231 24.259 8.37155 24.259C8.33079 24.259 8.29003 24.1859 8.27373 24.1372C8.15146 23.7147 8.02919 23.2922 7.91507 22.8698C7.90692 22.8373 7.89061 22.8048 7.87431 22.756C7.84986 22.7804 7.8254 22.7885 7.81725 22.8048C7.41783 23.211 7.01841 23.6172 6.62714 24.0234C6.60268 24.0559 6.58638 24.1209 6.60268 24.1615C6.75756 24.7465 6.92059 25.3233 7.07547 25.9082C7.12438 26.1032 7.18144 26.2982 7.23035 26.4851L7.24665 26.4769ZM16.2133 26.5501C16.2377 26.4932 16.254 26.4526 16.2622 26.4201C16.4089 25.9814 16.5475 25.5508 16.6942 25.1121C16.7105 25.0633 16.7594 24.9902 16.792 24.9902C16.8409 24.9902 16.898 25.039 16.9306 25.0877C17.1914 25.5102 17.4523 25.9407 17.7131 26.3713C17.7376 26.4119 17.762 26.4444 17.7946 26.5013C17.8109 26.4444 17.8272 26.4119 17.8354 26.3795C18.0392 25.6401 18.2348 24.909 18.4386 24.1697C18.4631 24.0965 18.4468 24.0478 18.3978 23.9909C18.0147 23.601 17.6316 23.2029 17.2403 22.8129C17.2159 22.7885 17.1996 22.7723 17.1588 22.7479C17.1425 22.8048 17.1262 22.8373 17.1181 22.8779C16.9958 23.3004 16.8817 23.7228 16.7594 24.1453C16.7431 24.1859 16.7023 24.2509 16.6697 24.259C16.6371 24.259 16.5882 24.2184 16.5475 24.194C16.5393 24.194 16.5312 24.1697 16.523 24.1615C16.2703 23.8122 16.0095 23.471 15.7568 23.1216C15.7323 23.0891 15.7079 23.0648 15.6753 23.0241C15.659 23.0729 15.6508 23.0973 15.6426 23.1297C15.5285 23.7553 15.4144 24.389 15.3003 25.0146C15.284 25.0958 15.3003 25.1608 15.341 25.2258C15.6019 25.632 15.8627 26.0382 16.1317 26.4444C16.1562 26.4769 16.1806 26.5094 16.2133 26.5582V26.5501ZM16.8409 25.3314C16.8165 25.3883 16.8083 25.4208 16.8002 25.4452C16.6534 25.8839 16.5067 26.3307 16.36 26.7694C16.3355 26.8344 16.3111 26.9075 16.2296 26.8832C16.1888 26.875 16.1562 26.8263 16.1236 26.7857C15.8464 26.3632 15.5774 25.9407 15.3003 25.5183C15.284 25.4858 15.2595 25.4614 15.2269 25.4208C15.2106 25.4533 15.2025 25.4614 15.2025 25.4695C15.0802 26.0626 14.9498 26.6476 14.8275 27.2406C14.8194 27.2894 14.8194 27.3462 14.8275 27.395C14.8927 27.72 14.9742 28.0449 15.0394 28.3699C15.0557 28.443 15.0884 28.4674 15.1617 28.4674C15.39 28.4511 15.61 28.4349 15.8383 28.4268C15.9116 28.4268 15.9524 28.3943 15.9687 28.3293C16.0665 28.0205 16.1725 27.7118 16.2785 27.4031C16.2948 27.3544 16.3518 27.3137 16.3844 27.265C16.4252 27.2975 16.4823 27.33 16.5067 27.3787C16.6779 27.655 16.8409 27.9393 17.0039 28.2237C17.0366 28.2724 17.061 28.3211 17.1344 28.3049C17.2077 28.2887 17.2892 28.3049 17.3219 28.183C17.4441 27.7524 17.5745 27.33 17.705 26.9075C17.7294 26.8344 17.7213 26.7857 17.6805 26.7207C17.4197 26.2901 17.1588 25.8595 16.8898 25.4289C16.8735 25.4045 16.8572 25.3802 16.8246 25.3314H16.8409ZM8.22482 25.3314C8.22482 25.3314 8.18407 25.3802 8.16776 25.3964C7.89876 25.8433 7.62162 26.2901 7.35262 26.7369C7.32816 26.7775 7.32816 26.8507 7.34447 26.8994C7.46674 27.33 7.60531 27.7525 7.71943 28.1749C7.75204 28.2887 7.83355 28.2724 7.91507 28.2887C7.98843 28.3049 8.01289 28.2562 8.03734 28.2074C8.20037 27.9231 8.37155 27.6468 8.54273 27.3625C8.56718 27.3219 8.62424 27.2894 8.67315 27.2569C8.70576 27.2975 8.75467 27.3381 8.77912 27.3869C8.88509 27.6956 8.99106 28.0124 9.09703 28.3211C9.11333 28.3618 9.15409 28.4105 9.1867 28.4105C9.42309 28.4349 9.65948 28.443 9.89587 28.4593C9.98554 28.4593 10.01 28.4268 10.0263 28.3536C10.0752 28.1343 10.1323 27.9149 10.173 27.6956C10.2056 27.525 10.2708 27.3625 10.2301 27.1756C10.1323 26.7694 10.0507 26.3551 9.96923 25.9489C9.93663 25.7783 9.89587 25.6076 9.84696 25.4045C9.80621 25.4614 9.78175 25.4939 9.7573 25.5264C9.4883 25.9489 9.21115 26.3713 8.94215 26.7857C8.9177 26.8263 8.85248 26.8832 8.81988 26.875C8.77912 26.8669 8.73021 26.8019 8.71391 26.7532C8.56718 26.3307 8.42861 25.9001 8.29003 25.4777C8.27373 25.4289 8.25743 25.3802 8.23298 25.3233L8.22482 25.3314ZM13.9879 28.638C13.7841 28.6217 13.6374 28.7192 13.5396 28.8898C13.4744 29.0036 13.4907 29.0442 13.5885 29.1336C13.6782 29.2229 13.7841 29.3042 13.8493 29.4098C13.8982 29.4829 13.9553 29.5235 14.0368 29.5317C14.2732 29.5479 14.5177 29.5885 14.7541 29.5885C15.1536 29.5885 15.553 29.5885 15.9606 29.5642C16.2296 29.556 16.4986 29.5154 16.7594 29.4992C16.8491 29.4992 16.8735 29.4585 16.8735 29.3692C16.8654 29.1336 16.9306 28.9142 17.0773 28.7274C17.167 28.6136 17.2811 28.5486 17.436 28.5486C17.7457 28.5568 18.0392 28.8411 18.0718 29.1823C18.0718 29.2554 18.1044 29.2879 18.1778 29.2717C18.8543 29.1336 19.5309 28.9955 20.2075 28.8492C20.4276 28.8005 20.6395 28.7355 20.8514 28.6705C20.9493 28.6461 21.0063 28.5892 20.9737 28.4755C20.9574 28.4186 20.9574 28.3536 20.9737 28.2968C21.0063 28.1343 20.9737 27.9881 20.884 27.8499C20.8188 27.7524 20.7536 27.7037 20.6395 27.72C20.5987 27.72 20.5498 27.7443 20.5091 27.7525C19.914 27.9068 19.3271 28.0855 18.7321 28.2074C18.0718 28.3455 17.4115 28.443 16.7431 28.5243C16.197 28.5892 15.6508 28.6217 15.0965 28.6461C14.7297 28.6624 14.3547 28.6299 13.9879 28.6217V28.638ZM9.95293 29.621C9.95293 29.621 9.95293 29.6129 9.95293 29.6048C10.2138 29.5967 10.4665 29.5885 10.7273 29.5723C10.9474 29.556 11.1757 29.5642 11.2898 29.3123C11.3224 29.2392 11.4202 29.1823 11.4854 29.1336C11.5751 29.0686 11.5832 28.9955 11.5262 28.898C11.4202 28.6949 11.2327 28.6055 10.9963 28.6299C10.8333 28.6461 10.6703 28.6624 10.5072 28.6705C9.71654 28.6949 8.92585 28.638 8.14331 28.5243C7.58086 28.443 7.01841 28.378 6.46411 28.2562C5.82014 28.118 5.18433 27.9312 4.54851 27.7606C4.32842 27.7037 4.26321 27.7281 4.14909 27.9149C4.09203 28.0124 4.05943 28.1099 4.08388 28.2237C4.10018 28.2887 4.10834 28.3618 4.10018 28.4268C4.08388 28.6217 4.07573 28.6217 4.26321 28.6949C4.29582 28.7111 4.33658 28.7192 4.36918 28.7274C5.20878 28.9061 6.04838 29.093 6.88798 29.2717C6.96135 29.2879 6.9858 29.2636 6.99395 29.1904C7.02656 28.898 7.18959 28.6867 7.46674 28.5811C7.68683 28.4918 7.88246 28.5568 8.01289 28.7517C8.14331 28.9386 8.20037 29.1498 8.19222 29.3854C8.19222 29.4585 8.20037 29.491 8.28188 29.4992C8.83618 29.5398 9.39048 29.5804 9.94478 29.621H9.95293ZM12.9527 23.1135C12.9527 23.1135 12.9364 23.1135 12.9282 23.1135C12.9282 23.1541 12.9282 23.1947 12.9282 23.2354C12.9445 23.4628 12.9527 23.6822 12.969 23.9097C12.9853 24.1697 13.0016 24.4215 13.0179 24.6815C13.0505 25.2339 13.0831 25.7945 13.1157 26.347C13.132 26.6394 13.1402 26.9319 13.1728 27.2244C13.2054 27.5006 13.1972 27.7524 12.9771 27.9637C12.8141 28.118 12.6918 28.313 12.5451 28.4999C12.5125 28.4674 12.488 28.443 12.4717 28.4105C12.3413 28.248 12.2272 28.0774 12.0886 27.9312C11.9337 27.7606 11.8441 27.59 11.9093 27.3625C11.9174 27.33 11.9093 27.2894 11.9093 27.2569C11.9337 26.8588 11.95 26.4688 11.9745 26.0707C12.0071 25.502 12.0397 24.9333 12.0805 24.3646C12.0968 24.0803 12.1212 23.8041 12.1375 23.5197C12.1457 23.3816 12.1538 23.2354 12.1538 23.0973C12.1131 23.1866 12.0968 23.2679 12.0886 23.3572C11.999 23.9747 11.9174 24.5921 11.8278 25.2096C11.7218 25.9489 11.6158 26.6882 11.518 27.4275C11.4936 27.6143 11.4283 27.7524 11.2653 27.8499C11.143 27.9231 11.0289 28.0205 10.9067 28.1099C10.8659 28.1343 10.8251 28.1668 10.7599 28.2155C10.6214 28.0693 10.4828 27.9312 10.3442 27.7768C10.2953 28.0124 10.2464 28.2318 10.1893 28.4836C10.4502 28.4674 10.6866 28.4674 10.9311 28.4349C11.1757 28.4105 11.3957 28.4349 11.5751 28.6217C11.6321 28.6786 11.6973 28.7111 11.7707 28.7192C12.0071 28.7517 12.2027 28.8817 12.2761 29.1092C12.3332 29.2879 12.4391 29.3042 12.5859 29.3042C12.594 29.3042 12.6103 29.3042 12.6185 29.3042C12.7 29.3123 12.7326 29.2798 12.757 29.1986C12.8467 28.9305 13.026 28.7599 13.3195 28.7192C13.3684 28.7192 13.4336 28.6949 13.4662 28.6624C13.6618 28.4511 13.8982 28.4105 14.1754 28.443C14.4036 28.4755 14.6319 28.4755 14.8846 28.4836C14.8275 28.2318 14.7786 28.0124 14.7297 27.7606C14.5911 27.8987 14.4688 28.0205 14.3466 28.1424C14.2977 28.1912 14.2651 28.1912 14.2161 28.1505C14.0368 28.0124 13.8493 27.8824 13.67 27.7443C13.6374 27.72 13.6048 27.6793 13.5966 27.6468C13.5477 27.3381 13.507 27.0294 13.4662 26.7207C13.401 26.2495 13.3358 25.7783 13.2706 25.3071C13.2054 24.8277 13.1402 24.3565 13.0668 23.8772C13.0342 23.6253 12.9934 23.3735 12.9608 23.1216L12.9527 23.1135ZM17.8109 13.3319C17.8109 13.3319 17.7865 13.3725 17.7865 13.3806C17.6887 13.8031 17.599 14.2337 17.493 14.6562C17.4523 14.843 17.3789 15.0217 17.4115 15.2167C17.4278 15.3305 17.4278 15.4523 17.4278 15.5742C17.4441 15.9885 17.4604 16.4029 17.4767 16.8172C17.5012 17.4103 17.5256 18.0115 17.5501 18.6045C17.5664 19.0676 17.5827 19.5388 17.599 20.0019C17.599 20.0913 17.6153 20.1888 17.6398 20.2781C17.8191 20.92 17.9984 21.5536 18.1778 22.1873C18.1859 22.2198 18.1941 22.2442 18.2104 22.2767C18.2267 22.2036 18.2348 22.1305 18.2267 22.0655C18.2022 21.5049 18.1778 20.9443 18.1451 20.3919C18.1288 20.0507 18.1125 19.7013 18.0962 19.3601C18.0636 18.6614 18.031 17.9546 17.9984 17.2559C17.9821 16.9066 17.9658 16.5572 17.9495 16.2079C17.9251 15.7042 17.9006 15.1924 17.8762 14.6887C17.8598 14.2987 17.8435 13.9087 17.8272 13.5188C17.8272 13.4619 17.8109 13.4131 17.8028 13.3319H17.8109ZM6.85538 22.2848C6.85538 22.2848 6.87983 22.228 6.88798 22.1873C7.05101 21.6186 7.21404 21.0499 7.36892 20.4812C7.40968 20.3188 7.45859 20.1481 7.46674 19.9857C7.49934 19.4901 7.50749 19.0026 7.53195 18.5071C7.56455 17.6784 7.58901 16.8578 7.62161 16.0292C7.62977 15.8017 7.64607 15.5742 7.65422 15.3386C7.65422 15.168 7.67052 14.9974 7.62161 14.8186C7.5401 14.5424 7.47489 14.2581 7.40968 13.9737C7.36077 13.7706 7.32001 13.5594 7.27925 13.3563C7.2548 13.4538 7.24665 13.5513 7.2385 13.6487C7.20589 14.2418 7.18144 14.8349 7.15698 15.428C7.13253 16.0373 7.09992 16.6466 7.07547 17.2478C7.05101 17.8409 7.01841 18.4258 6.99395 19.0189C6.96135 19.7094 6.93689 20.4081 6.90429 21.0987C6.89613 21.2937 6.87983 21.4887 6.87168 21.6836C6.87168 21.8867 6.87168 22.0817 6.87168 22.2767L6.85538 22.2848ZM17.0855 21.1962C17.1099 21.1393 17.1262 21.1068 17.1425 21.0662C17.2322 20.8387 17.33 20.6194 17.4197 20.3919C17.436 20.3431 17.4441 20.2781 17.436 20.2294C17.1588 19.2464 16.8817 18.2633 16.6045 17.2884C16.5964 17.2478 16.5801 17.2153 16.5638 17.1665C16.5393 17.1909 16.5312 17.199 16.523 17.2153C16.3844 17.4753 16.2459 17.7271 16.1073 17.9871C16.091 18.0196 16.0747 18.0602 16.0747 18.0927C16.0095 18.7102 15.9443 19.3276 15.879 19.945C15.8709 20.0182 15.8953 20.0669 15.9443 20.1157C16.197 20.3513 16.4415 20.595 16.6942 20.8306C16.8165 20.9524 16.9469 21.0662 17.0936 21.2043L17.0855 21.1962ZM8.51828 17.1665C8.51828 17.1665 8.49382 17.2072 8.48567 17.2234C8.20037 18.2308 7.91507 19.2464 7.62977 20.2538C7.62977 20.2781 7.62162 20.3188 7.62977 20.3431C7.73574 20.595 7.83355 20.8468 7.93952 21.0906C7.94767 21.1149 7.96398 21.1474 7.98028 21.1718C8.00473 21.1556 8.02104 21.1474 8.02919 21.1393C8.40416 20.7818 8.77912 20.4244 9.15409 20.0669C9.17854 20.0425 9.19485 19.9857 9.1867 19.945C9.13779 19.4413 9.08073 18.9458 9.03182 18.4421C9.01551 18.2958 9.03182 18.1415 8.96661 18.0115C8.83618 17.719 8.665 17.4509 8.50197 17.1503L8.51828 17.1665ZM18.6098 24.4134C18.6098 24.4134 18.5853 24.4459 18.5853 24.454C18.3815 25.1852 18.1859 25.9164 17.9821 26.6476C17.974 26.68 17.9821 26.7288 18.0066 26.7532C18.2837 27.1513 18.5609 27.5412 18.8462 27.9312C18.8625 27.9556 18.9195 27.9799 18.9603 27.9718C19.1233 27.9393 19.2945 27.8906 19.4575 27.8581C19.5635 27.8418 19.5717 27.7931 19.5472 27.7037C19.2782 26.745 19.0092 25.7864 18.7321 24.8277C18.6913 24.6977 18.6587 24.5596 18.6098 24.4134ZM6.47226 24.4053C6.4478 24.454 6.43965 24.4784 6.4315 24.5027C6.1299 25.5833 5.82014 26.6557 5.51854 27.7362C5.50224 27.8093 5.51854 27.8337 5.5919 27.8499C5.76308 27.8906 5.93426 27.9312 6.10544 27.9799C6.17065 27.9962 6.20326 27.9799 6.23587 27.9312C6.50486 27.5493 6.78201 27.1675 7.05101 26.7775C7.07547 26.7369 7.09177 26.6638 7.07547 26.6151C6.93689 26.0789 6.79017 25.5427 6.64344 25.0065C6.59453 24.8115 6.53747 24.6165 6.48041 24.4053H6.47226ZM15.0476 19.5388C14.8031 19.8151 14.5748 20.075 14.3466 20.335C14.2895 20.4 14.2895 20.4406 14.3466 20.5137C14.6889 20.9606 15.0313 21.4074 15.3818 21.8542C15.3981 21.8786 15.4226 21.903 15.4633 21.9517C15.4715 21.8867 15.4796 21.8542 15.4878 21.8136C15.5122 21.578 15.5367 21.3424 15.5611 21.1068C15.5937 20.7981 15.6263 20.4894 15.6508 20.1888C15.6508 20.1563 15.6508 20.1075 15.6345 20.0913C15.447 19.9044 15.2514 19.7257 15.0639 19.5388H15.0476ZM10.0181 19.5388C9.84696 19.7013 9.68393 19.8638 9.5046 20.0182C9.43124 20.0832 9.41494 20.1481 9.42309 20.2375C9.472 20.7006 9.5209 21.1637 9.56981 21.6186C9.57796 21.7161 9.59427 21.8136 9.61057 21.9111H9.63503C9.70024 21.8299 9.76545 21.7486 9.83881 21.6593C10.1404 21.2693 10.4339 20.8793 10.7355 20.4894C10.7681 20.4487 10.8007 20.4163 10.7518 20.3675C10.5072 20.0913 10.2708 19.8232 10.0181 19.5307V19.5388ZM14.1346 20.5706C13.9145 20.7818 13.7108 20.9687 13.507 21.1718C13.4825 21.1881 13.4825 21.2449 13.4907 21.2693C13.6129 21.8299 13.7271 22.3823 13.8575 22.9429C13.8738 23.0079 13.9227 23.0648 13.9553 23.1379C13.9798 23.1054 13.9879 23.0973 13.9879 23.0891C14.1754 22.4473 14.3629 21.8136 14.5504 21.1718C14.5504 21.1474 14.5504 21.1149 14.5504 21.0906C14.4199 20.9118 14.2895 20.7412 14.1509 20.5625L14.1346 20.5706ZM10.9393 20.5706C10.817 20.7331 10.7029 20.8875 10.5806 21.0337C10.5317 21.0987 10.5154 21.1556 10.5398 21.2287C10.7192 21.8217 10.8904 22.4229 11.0615 23.016C11.0697 23.0485 11.086 23.081 11.0941 23.1135C11.1023 23.1135 11.1186 23.1135 11.1267 23.1135C11.1593 23.0485 11.2001 22.9916 11.2164 22.9266C11.3387 22.3742 11.461 21.8217 11.5832 21.2612C11.5832 21.2287 11.5832 21.1881 11.5669 21.1718C11.3631 20.9768 11.1593 20.7818 10.9311 20.5706H10.9393ZM11.0615 23.6741C11.0615 23.6741 11.0371 23.666 11.0208 23.6578C11.0045 23.6741 10.9882 23.6984 10.9719 23.7147C10.6621 24.1778 10.3524 24.6409 10.0507 25.1121C10.0263 25.1527 10.0181 25.2177 10.0263 25.2664C10.1078 25.6808 10.1975 26.1032 10.2871 26.5176C10.3034 26.5988 10.3279 26.68 10.3442 26.7613C10.3524 26.7613 10.3605 26.7613 10.3687 26.7613C10.5969 25.7295 10.8251 24.6977 11.0452 23.6741H11.0615ZM14.7052 26.7938C14.7052 26.7938 14.7378 26.7532 14.7378 26.745C14.8438 26.2576 14.9498 25.762 15.0476 25.2664C15.0557 25.2096 15.0476 25.1446 15.0068 25.0958C14.7134 24.6409 14.4118 24.1859 14.1102 23.7391C14.0939 23.7147 14.0694 23.6903 14.0531 23.666C14.0368 23.666 14.0287 23.6741 14.0124 23.6822C14.2406 24.714 14.4688 25.7458 14.6971 26.8019L14.7052 26.7938ZM17.5338 30.0191C17.6072 29.9216 17.6724 29.8241 17.7457 29.7348C17.8925 29.5642 17.9251 29.3692 17.868 29.1498C17.8272 28.9711 17.7131 28.8492 17.5501 28.7761C17.4034 28.7111 17.2892 28.7436 17.224 28.8817C17.1588 29.0036 17.1099 29.1417 17.0855 29.2798C17.0529 29.4667 17.1099 29.6292 17.2566 29.7591C17.3463 29.8404 17.4441 29.9298 17.5419 30.0191H17.5338ZM7.54825 30.0191C7.62977 29.9379 7.70313 29.8648 7.78464 29.7998C8.05364 29.5479 8.0781 29.1173 7.83355 28.8411C7.76019 28.7599 7.67052 28.7355 7.56456 28.768C7.18144 28.8817 7.10807 29.3936 7.26295 29.6292C7.35262 29.7591 7.45043 29.8891 7.54825 30.0272V30.0191ZM17.9414 26.9969C17.9414 26.9969 17.9169 26.9969 17.9088 26.9969C17.7865 27.4031 17.6642 27.8093 17.5338 28.2399C17.9251 28.1668 18.2919 28.1018 18.6831 28.0368C18.4223 27.6712 18.1859 27.3381 17.9414 26.9969ZM7.18144 27.005C7.18144 27.005 7.15698 27.005 7.14883 26.9969C6.90429 27.3381 6.65974 27.6793 6.40705 28.0368C6.80647 28.1099 7.16513 28.1749 7.5401 28.2399C7.5401 28.1993 7.5401 28.183 7.53195 28.1668C7.41783 27.7768 7.29556 27.395 7.18144 27.005ZM13.295 28.9223C13.1075 28.9711 13.0016 29.0767 12.9608 29.2311C12.9282 29.3692 12.9119 29.5154 12.9119 29.6616C12.9201 29.8566 12.969 30.0435 13.0668 30.2141C13.2461 30.076 13.4255 29.9379 13.5966 29.8079C13.7597 29.686 13.7597 29.5642 13.6211 29.4179C13.5966 29.3935 13.564 29.3692 13.5314 29.3448C13.401 29.2392 13.2706 29.1417 13.2869 28.9305L13.295 28.9223ZM11.7952 28.9223C11.8033 29.1254 11.6729 29.2392 11.5343 29.3448C11.4936 29.3773 11.4528 29.4098 11.4202 29.4504C11.3142 29.5804 11.3224 29.6779 11.4528 29.7835C11.6321 29.9298 11.8196 30.0679 12.0153 30.2222C12.056 30.1085 12.0968 29.9947 12.1294 29.8729C12.1783 29.6454 12.1946 29.4098 12.0968 29.1904C12.0397 29.0605 11.95 28.9711 11.787 28.9305L11.7952 28.9223ZM3.14646 28.9873C3.3584 28.8898 3.57034 28.7924 3.78228 28.6867C3.87194 28.638 3.8964 28.5486 3.8964 28.4511C3.8964 28.2643 3.8964 28.0774 3.8964 27.8906C3.44807 27.8337 2.99974 28.4511 3.14646 28.9873ZM21.1775 27.8906C21.1775 28.0612 21.1775 28.2318 21.1775 28.4024C21.1775 28.5324 21.2101 28.6461 21.3324 28.7111C21.528 28.8086 21.7318 28.8898 21.9274 28.9873C22.0986 28.4836 21.6258 27.8256 21.1775 27.8906ZM15.6508 19.8313C15.6508 19.8313 15.6753 19.8313 15.6834 19.8313C15.7323 19.3845 15.7812 18.9376 15.822 18.4908C15.8138 18.4908 15.8057 18.4908 15.7975 18.4908C15.5937 18.7833 15.3818 19.0757 15.1699 19.3845C15.3329 19.5388 15.4959 19.6932 15.6508 19.8394V19.8313ZM9.39048 19.8232C9.39048 19.8232 9.40678 19.8232 9.42309 19.8313C9.58612 19.6769 9.74099 19.5307 9.90402 19.3763C9.69209 19.0676 9.48015 18.7752 9.26821 18.4827H9.25191C9.30082 18.9295 9.34972 19.3763 9.39863 19.8151L9.39048 19.8232ZM16.8654 28.3293C16.7186 28.0774 16.5882 27.8581 16.4496 27.6306H16.417C16.3355 27.8824 16.254 28.1343 16.1643 28.4024C16.4007 28.378 16.6127 28.3536 16.8572 28.3293H16.8654ZM8.90955 28.4024C8.81988 28.1262 8.73837 27.8824 8.65685 27.6387C8.6487 27.6387 8.6324 27.6387 8.62424 27.6387C8.49382 27.8581 8.3634 28.0855 8.21667 28.3293C8.45306 28.3536 8.67315 28.378 8.90955 28.4024ZM12.5451 0.983035C12.5451 0.853047 12.4473 0.755556 12.325 0.747432C12.2109 0.747432 12.0968 0.853047 12.0886 0.97491C12.0886 1.09677 12.1864 1.20239 12.3169 1.20239C12.4473 1.20239 12.5451 1.11302 12.5451 0.983035Z" fill="#192847"/>
<path d="M19.7999 29.6941C20.183 29.6941 20.3705 29.8729 20.4194 30.2303C20.452 30.4335 20.4846 30.6366 20.5254 30.8315C20.5335 30.8884 20.5661 30.9534 20.5906 31.0022C20.6884 31.1728 20.8107 31.2053 20.9819 31.1078C20.99 31.1078 20.9982 31.0996 21.0063 31.0915C21.2101 30.9615 21.2916 30.9859 21.4302 31.1809C21.4791 31.254 21.4302 31.2784 21.3731 31.2865C21.096 31.3677 20.827 31.449 20.5498 31.514C20.3542 31.5627 20.183 31.6277 20.0526 31.7983C19.914 31.9771 19.645 31.9771 19.4738 31.8389C19.4005 31.7821 19.319 31.774 19.2374 31.8065C19.1559 31.8308 19.1559 31.9039 19.1559 31.9689C19.1559 32.1558 19.0418 32.2777 18.8951 32.367C18.7728 32.4401 18.4957 32.3264 18.4305 32.1802C18.3652 32.0421 18.2674 31.9852 18.1207 32.0096C17.9903 32.0339 17.8517 32.0583 17.7213 32.0827C17.599 32.0989 17.5256 32.1639 17.5012 32.2939C17.4523 32.5376 17.1425 32.7001 16.8572 32.6514C16.8409 32.6514 16.8246 32.627 16.8246 32.6189C16.8246 32.5945 16.8409 32.5701 16.8572 32.562C16.9143 32.5376 16.9795 32.5295 17.0284 32.497C17.0936 32.4645 17.167 32.4239 17.224 32.367C17.2485 32.3427 17.2566 32.2614 17.2403 32.2289C17.224 32.1964 17.1588 32.172 17.1181 32.172C17.0447 32.172 16.9632 32.1883 16.8898 32.1964C16.8002 32.1964 16.7513 32.172 16.7513 32.0746C16.7513 32.0583 16.7513 32.0502 16.7513 32.0339C16.7513 31.9364 16.7349 31.8227 16.7757 31.7415C16.8817 31.5709 17.0202 31.4246 17.2159 31.3596C17.3219 31.3271 17.3626 31.3515 17.3871 31.4571C17.4034 31.514 17.4115 31.579 17.4278 31.6358C17.4441 31.6846 17.4604 31.7333 17.493 31.7658C17.5256 31.7983 17.5909 31.8146 17.6316 31.8065C17.6642 31.8065 17.6968 31.7496 17.7131 31.709C17.7294 31.6683 17.7294 31.6196 17.7376 31.579C17.7702 31.4002 17.8598 31.254 18.0147 31.1403C18.1696 31.0346 18.1696 30.9778 18.0392 30.8478C17.9658 30.7747 17.9821 30.7016 18.0392 30.6447C18.0962 30.5797 18.1696 30.5309 18.2348 30.4822C18.2756 30.5553 18.3408 30.6203 18.3489 30.6934C18.3734 30.9047 18.4386 31.0428 18.675 31.059C18.7891 31.0671 18.8788 31.1565 18.944 31.2621C18.9685 31.2946 18.9848 31.3352 19.0092 31.3677C19.1315 31.579 19.2782 31.579 19.4086 31.3677C19.4575 31.2946 19.5227 31.2296 19.5798 31.1646C19.6776 31.059 19.7836 31.0834 19.8896 31.1484C19.9466 31.1809 19.9874 31.2378 20.0444 31.2703C20.1015 31.3028 20.183 31.3352 20.2401 31.3271C20.3542 31.319 20.3787 31.2296 20.3379 31.1159C20.2808 30.929 20.2319 30.7422 20.1912 30.5553C20.1586 30.4253 20.1504 30.2953 20.1015 30.1735C20.02 29.946 19.8488 29.8891 19.645 30.0191C19.5961 30.0516 19.5146 30.0841 19.4901 30.0679C19.4168 30.0191 19.3516 29.946 19.3271 29.8648C19.3027 29.7916 19.376 29.7348 19.4494 29.7266C19.5798 29.7023 19.7102 29.686 19.7917 29.6779L19.7999 29.6941ZM18.4957 31.4409C18.4957 31.5871 18.5853 31.6927 18.6668 31.6927C18.7402 31.6927 18.8299 31.6277 18.8217 31.5709C18.8217 31.4896 18.675 31.3596 18.5935 31.3759C18.5527 31.3759 18.5201 31.4246 18.4957 31.449V31.4409ZM18.2756 31.644C18.2756 31.5221 18.2267 31.449 18.1533 31.449C18.0799 31.449 18.031 31.5302 18.031 31.6277C18.031 31.7333 18.0636 31.7577 18.1696 31.7577C18.2593 31.7577 18.2837 31.7171 18.2756 31.644ZM19.7673 31.4327C19.6776 31.4327 19.6124 31.4815 19.6043 31.5465C19.6043 31.6033 19.6939 31.6846 19.7591 31.6765C19.8325 31.6602 19.9059 31.644 19.9222 31.5546C19.9222 31.4896 19.857 31.4327 19.7754 31.4327H19.7673ZM17.0773 31.9364C17.1833 31.9283 17.2566 31.9202 17.2566 31.8227C17.2566 31.7577 17.224 31.709 17.1507 31.709C17.0936 31.709 16.9876 31.8065 17.0039 31.8552C17.0121 31.8958 17.0692 31.9202 17.0855 31.9364H17.0773ZM18.7973 32.1152C18.8543 32.0746 18.8951 32.0421 18.9358 32.0096C18.8951 31.9771 18.8543 31.9202 18.8217 31.9283C18.7647 31.9283 18.7158 31.9852 18.6587 32.0177C18.6994 32.0502 18.7402 32.0827 18.7973 32.1233V32.1152Z" fill="#192847"/>
<path d="M9.45569 32.7895C9.52091 32.7732 9.56166 32.7651 9.60242 32.757C9.74099 32.757 9.87957 32.7245 9.99369 32.6351C10.1812 32.4808 10.2301 32.2695 10.116 32.0583C10.0997 32.0339 10.0915 32.0096 10.0752 31.9852C9.96108 31.7983 9.96924 31.7252 10.1323 31.579C10.2056 31.514 10.2464 31.514 10.2871 31.6115C10.3442 31.7333 10.3931 31.8633 10.442 31.9852C10.4746 32.0746 10.5398 32.1233 10.6377 32.1071C10.7355 32.0908 10.7844 32.0258 10.7681 31.9283C10.7599 31.8146 10.7436 31.6927 10.7192 31.5871C10.6947 31.5059 10.6947 31.4409 10.7599 31.3759C10.8251 31.3109 10.9067 31.2865 10.9963 31.3027C11.0208 31.3027 11.0452 31.3434 11.0534 31.3677C11.0697 31.4084 11.0697 31.449 11.0778 31.4896C11.0941 31.5708 11.143 31.6277 11.2327 31.6358C11.2898 31.6358 11.3468 31.6521 11.412 31.6602C11.7626 31.6765 12.1049 31.6846 12.4554 31.7008C12.6103 31.7008 12.6511 31.7577 12.6511 31.9121C12.6511 31.9771 12.6511 32.0421 12.6755 32.0989C12.6918 32.1314 12.7489 32.172 12.7896 32.172C12.8222 32.172 12.8793 32.1233 12.8875 32.0827C12.9364 31.8633 13.0749 31.7333 13.2869 31.6846C13.3602 31.6683 13.4255 31.6358 13.4907 31.6115C13.5722 31.579 13.6292 31.6115 13.6455 31.6927C13.6782 31.9121 13.7026 32.1233 13.7189 32.3427C13.7189 32.432 13.67 32.4889 13.564 32.4889C13.3195 32.4889 13.0668 32.5051 12.8222 32.5051C12.7326 32.5051 12.6674 32.5376 12.6592 32.627C12.6348 32.8382 12.4554 32.887 12.3087 32.9601C12.2842 32.9763 12.2272 32.9601 12.2027 32.952C12.0642 32.8789 11.95 32.7895 11.9093 32.6189C11.9011 32.5783 11.8196 32.5295 11.7626 32.5133C11.6403 32.4889 11.5099 32.4808 11.3794 32.4726C11.1349 32.4564 10.8822 32.4401 10.6377 32.4239C10.5072 32.4158 10.4339 32.4726 10.385 32.5783C10.2219 32.9601 9.7573 32.9438 9.51275 32.8545C9.5046 32.8545 9.49645 32.8382 9.46385 32.8057L9.45569 32.7895ZM12.3739 32.2939C12.3739 32.2452 12.3739 32.2045 12.3739 32.1558C12.3739 32.0177 12.3413 31.9852 12.1946 31.9771C12.1375 31.9771 12.0805 31.9689 12.0153 31.9689C11.7544 31.9608 11.4936 31.9446 11.2327 31.9364C11.192 31.9364 11.143 31.9446 11.1186 31.9689C11.086 31.9933 11.0452 32.0421 11.0534 32.0746C11.0534 32.1071 11.1104 32.1477 11.143 32.1558C11.2409 32.1802 11.3468 32.1883 11.4528 32.1964C11.6484 32.2127 11.8522 32.2127 12.0479 32.2208C12.1538 32.2208 12.1701 32.2533 12.162 32.3589C12.162 32.3995 12.1375 32.4483 12.162 32.4726C12.1946 32.5214 12.2516 32.5864 12.3006 32.5945C12.3739 32.6026 12.3821 32.5295 12.3821 32.4645C12.3821 32.4076 12.3821 32.3508 12.3821 32.2939H12.3739ZM13.2787 32.237C13.3358 32.1883 13.4092 32.1558 13.4173 32.1152C13.4255 32.0664 13.4255 31.9771 13.3358 31.9689C13.2706 31.9689 13.1483 32.0664 13.1646 32.1233C13.1728 32.1639 13.2298 32.1883 13.2787 32.237Z" fill="#192847"/>
<path d="M5.97502 32.1558C6.04023 32.1395 6.09729 32.1314 6.1462 32.1152C6.23587 32.0908 6.32553 32.0746 6.40705 32.0421C6.57008 31.9689 6.66789 31.6358 6.58638 31.4652C6.50486 31.3027 6.52932 31.1728 6.65974 31.0428C6.7168 30.994 6.78201 31.0103 6.79832 31.0915C6.83907 31.2296 6.87168 31.3759 6.88798 31.514C6.90429 31.6196 6.96135 31.6846 7.05101 31.709C7.14068 31.7333 7.24665 31.7415 7.33631 31.7415C7.37707 31.7415 7.42598 31.7171 7.45859 31.6927C7.58901 31.5952 7.58086 31.5059 7.42598 31.4409C7.37707 31.4165 7.32816 31.4084 7.27925 31.3921C7.18144 31.3596 7.15698 31.2784 7.22219 31.2053C7.27925 31.1403 7.35262 31.0915 7.42598 31.059C7.5401 31.0184 7.65422 30.9778 7.70313 30.8559C7.71128 30.8315 7.73574 30.8153 7.75204 30.799C7.83355 30.7178 7.92322 30.6447 8.03734 30.6934C8.15146 30.7422 8.21667 30.8478 8.22482 30.9615C8.22482 31.059 8.28188 31.124 8.34709 31.189C8.41231 31.2459 8.47752 31.3109 8.51828 31.384C8.59164 31.5059 8.54273 31.5871 8.40415 31.6033C8.35525 31.6033 8.31449 31.6033 8.26558 31.6033C8.20037 31.6033 8.13516 31.6196 8.13516 31.709C8.13516 31.7902 8.16776 31.8471 8.25743 31.8633C8.27373 31.8633 8.28188 31.8633 8.29819 31.8633C8.46122 31.8958 8.49382 31.9283 8.49382 32.1071C8.49382 32.1964 8.47752 32.2858 8.60794 32.302C8.6813 32.302 8.73021 32.2858 8.73836 32.2045C8.78727 31.8714 8.82803 31.5384 8.87694 31.2053C8.89324 31.0671 8.9177 30.9209 8.92585 30.7828C8.92585 30.7341 8.90139 30.6853 8.87694 30.6447C8.81988 30.5634 8.83618 30.5147 8.92585 30.4822C8.98291 30.4578 9.03997 30.4172 9.09703 30.3928C9.12963 30.3766 9.17039 30.3766 9.203 30.3603C9.21115 30.3928 9.2356 30.4335 9.22745 30.466C9.21115 30.6203 9.1867 30.7828 9.16224 30.9372C9.11333 31.3027 9.07257 31.6683 9.01551 32.0258C8.99921 32.1558 8.96661 32.2858 8.9177 32.4076C8.81988 32.6595 8.47752 32.7164 8.31449 32.5051C8.26558 32.4401 8.24928 32.3427 8.24113 32.2533C8.23298 32.1233 8.23298 32.1071 8.10255 32.1071C7.95583 32.1071 7.89876 32.0583 7.86616 31.9121C7.8417 31.8146 7.78464 31.7902 7.69498 31.8389C7.67052 31.8552 7.63792 31.8796 7.62161 31.9121C7.56455 32.0177 7.48304 32.0096 7.38522 31.9933C7.2385 31.9689 7.09177 31.9527 6.93689 31.9364C6.84723 31.9364 6.77386 31.9689 6.7168 32.0502C6.53747 32.3183 6.19511 32.2777 5.99132 32.1883C5.99132 32.1883 5.98317 32.172 5.95872 32.1395L5.97502 32.1558ZM7.67868 31.2865C7.77649 31.4002 7.93137 31.449 8.03734 31.4002C8.0781 31.384 8.12701 31.3677 8.0781 31.3027C8.04549 31.254 8.01289 31.2053 8.00473 31.1565C7.98028 31.0671 7.93952 31.0671 7.88246 31.1159C7.81725 31.1728 7.75204 31.2296 7.68683 31.2865H7.67868Z" fill="#192847"/>
<path d="M5.02945 30.6528C5.15172 30.5878 5.27399 30.5147 5.39627 30.4578C5.45333 30.4335 5.46963 30.4903 5.46148 30.5391C5.41257 30.7422 5.36366 30.9534 5.29845 31.1484C5.27399 31.2378 5.29845 31.2946 5.37996 31.319C5.49408 31.3515 5.6082 31.3759 5.72232 31.4002C5.78754 31.4165 5.8446 31.4002 5.88535 31.3352C5.93426 31.2378 5.97502 31.1403 5.92611 31.0265C5.90981 30.994 5.8772 30.9615 5.8772 30.9372C5.8772 30.9047 5.89351 30.8559 5.92611 30.8478C6.01578 30.799 6.10544 30.7584 6.19511 30.7259C6.22772 30.7097 6.27662 30.7016 6.30108 30.7097C6.32553 30.7259 6.33368 30.7828 6.32553 30.8072C6.26032 31.0671 6.18696 31.3271 6.1136 31.5871C6.08099 31.7008 6.01578 31.7415 5.90166 31.709C5.3066 31.5546 4.71154 31.4002 4.11649 31.2459C4.04312 31.2296 3.96976 31.2215 3.90455 31.189C3.80673 31.1565 3.78228 31.0915 3.81488 30.994C3.90455 30.7097 4.09203 30.5553 4.38549 30.5472C4.47515 30.5472 4.51591 30.5066 4.54036 30.4335C4.59742 30.2547 4.65448 30.0679 4.71154 29.8891C4.72785 29.8241 4.66264 29.751 4.58112 29.7591C4.53221 29.7591 4.49146 29.7916 4.4507 29.8079C4.42624 29.816 4.40994 29.8404 4.39364 29.8485C4.32027 29.8973 4.23876 29.881 4.1817 29.8241C4.15725 29.7998 4.14094 29.7104 4.14909 29.7023C4.20615 29.6698 4.28767 29.6129 4.33658 29.6292C4.52406 29.6941 4.68709 29.6454 4.85012 29.5642C4.89088 29.5479 4.93979 29.556 4.98869 29.5479C4.98869 29.5967 5.01315 29.6454 4.99685 29.686C4.93163 29.9054 4.86642 30.1166 4.80121 30.3278C4.736 30.5472 4.66263 30.7665 4.60557 30.9859C4.59742 31.0184 4.62188 31.0834 4.65448 31.1078C4.7523 31.1728 4.86642 31.1971 4.98054 31.1565C5.005 31.1484 5.02945 31.1321 5.04575 31.1078C5.12727 31.0184 5.13542 30.7665 5.07021 30.6691C5.07021 30.6609 5.06206 30.6447 5.05391 30.6284L5.02945 30.6528ZM4.26321 31.0022C4.31212 30.9453 4.34473 30.9128 4.37733 30.8722C4.35288 30.8559 4.32027 30.8072 4.31212 30.8153C4.26321 30.8397 4.22246 30.8722 4.17355 30.9047C4.198 30.929 4.22246 30.9534 4.27136 31.0022H4.26321Z" fill="#192847"/>
<path d="M14.4118 30.7747C14.4688 30.7178 14.5422 30.6447 14.6237 30.5797C14.6971 30.5228 14.7541 30.5472 14.7623 30.6366C14.7867 30.8234 14.803 31.0103 14.8275 31.1971C14.852 31.449 14.8683 31.6927 14.8927 31.9446C14.909 32.1314 14.9987 32.1883 15.178 32.1395C15.4226 32.0827 15.4307 32.0583 15.39 31.8146C15.3737 31.7415 15.3492 31.6765 15.2758 31.6358C15.1943 31.5952 15.2106 31.5384 15.2758 31.4977C15.3329 31.4571 15.39 31.4165 15.447 31.384C15.5204 31.3434 15.5856 31.3677 15.5937 31.4571C15.6263 31.6683 15.6508 31.8796 15.6753 32.0827C15.6753 32.1233 15.6916 32.1558 15.6916 32.1964C15.7079 32.2858 15.659 32.3508 15.5611 32.3589C15.178 32.3995 14.7949 32.4401 14.4118 32.4808C14.371 32.4808 14.3303 32.4808 14.2895 32.4808C14.1265 32.4808 14.102 32.4483 14.1265 32.2939C14.1265 32.2533 14.1428 32.2045 14.1428 32.1639C14.1509 31.9364 14.2732 31.7902 14.477 31.709C14.583 31.6683 14.6237 31.6115 14.6074 31.5059C14.583 31.3515 14.583 31.1971 14.5504 31.0509C14.5259 30.9615 14.4607 30.8803 14.4036 30.7828L14.4118 30.7747ZM14.5096 31.9771C14.477 32.0258 14.4362 32.0664 14.4036 32.1233C14.4036 32.1233 14.4607 32.1964 14.4933 32.1883C14.5422 32.1802 14.6319 32.1883 14.6237 32.0908C14.6237 32.0421 14.6156 31.9771 14.5096 31.9771Z" fill="#192847"/>
<path d="M15.7242 32.757C15.7812 32.7245 15.8138 32.7001 15.8546 32.6758C16.0095 32.6108 16.1154 32.5051 16.1806 32.3589C16.2622 32.1964 16.1806 31.9527 16.0176 31.8471C15.879 31.7658 15.879 31.7658 15.9606 31.6196C15.9932 31.5546 16.0258 31.4815 16.0665 31.4165C16.0991 31.3515 16.1562 31.3352 16.1969 31.4002C16.3844 31.6927 16.5801 31.9852 16.5067 32.3589C16.4904 32.4401 16.4415 32.5214 16.3844 32.5783C16.2296 32.7489 16.0258 32.8139 15.7894 32.7814C15.7731 32.7814 15.7649 32.7651 15.7242 32.7489V32.757Z" fill="#192847"/>
<path d="M9.53721 30.4578C9.63503 30.5391 9.74099 30.6122 9.83881 30.7016C9.85511 30.7178 9.85511 30.7828 9.83881 30.7828C9.66763 30.864 9.70024 31.0265 9.67578 31.1646C9.62687 31.4896 9.60242 31.8227 9.56981 32.1477C9.55351 32.2777 9.51275 32.3264 9.42309 32.3183C9.34157 32.3183 9.28451 32.2695 9.29266 32.1802C9.31712 31.9771 9.34972 31.7821 9.37418 31.5871C9.41494 31.254 9.45569 30.9209 9.49645 30.5878C9.49645 30.5309 9.52091 30.4822 9.53721 30.4253C9.53721 30.4416 9.53721 30.4497 9.52906 30.466L9.53721 30.4578Z" fill="#192847"/>
<path d="M14.9335 32.7651C14.8683 32.8057 14.8031 32.8464 14.7378 32.887C14.6563 32.9357 14.5911 32.9357 14.5259 32.8626C14.4851 32.8139 14.4607 32.7651 14.5014 32.7082C14.5585 32.6351 14.6237 32.6026 14.7134 32.6433C14.7541 32.6676 14.7949 32.6839 14.8357 32.7001C14.8927 32.7245 14.9335 32.7245 14.9824 32.6676C15.0313 32.6026 15.0965 32.5864 15.178 32.6189C15.2514 32.6514 15.2677 32.7245 15.2514 32.7814C15.2351 32.8301 15.1862 32.8789 15.1373 32.8951C15.0639 32.9195 14.9905 32.8951 14.9661 32.7976C14.9661 32.7895 14.9579 32.7814 14.9416 32.757L14.9335 32.7651Z" fill="#192847"/>
<path d="M20.8188 31.9364C20.7047 31.9364 20.6395 31.8958 20.6395 31.8065C20.6395 31.7252 20.7618 31.6358 20.8677 31.6358C20.9329 31.6358 21.0063 31.7171 21.0063 31.7902C21.0063 31.8714 20.9248 31.9364 20.8188 31.9364Z" fill="#192847"/>
<path d="M14.1346 31.4734C14.0531 31.4734 13.9879 31.4002 13.9879 31.3109C13.9879 31.2459 14.0776 31.1728 14.1428 31.1728C14.2243 31.1728 14.314 31.254 14.3058 31.3271C14.3058 31.4084 14.2161 31.4734 14.1265 31.4734H14.1346Z" fill="#192847"/>
<path d="M4.1817 30.3278C4.10018 30.3278 4.03497 30.2628 4.03497 30.1897C4.03497 30.1085 4.11649 30.0191 4.18985 30.0191C4.25506 30.0191 4.36103 30.1166 4.36103 30.1816C4.36103 30.2547 4.26321 30.336 4.18985 30.3278H4.1817Z" fill="#192847"/>
<path d="M14.2651 30.8965C14.2651 30.9778 14.1917 31.0347 14.0939 31.0347C14.0205 31.0347 13.9471 30.9615 13.9471 30.8965C13.9471 30.8315 14.045 30.7341 14.102 30.7341C14.1754 30.7341 14.2651 30.8234 14.2651 30.8884V30.8965Z" fill="#192847"/>
<path d="M5.45333 32.1071C5.35551 32.1071 5.29845 32.0583 5.2903 31.9689C5.2903 31.8958 5.34736 31.8389 5.44518 31.8389C5.52669 31.8389 5.60821 31.9039 5.60821 31.9771C5.60821 32.0502 5.54299 32.0989 5.44518 32.1071H5.45333Z" fill="#192847"/>
<path d="M4.2143 31.7658C4.14094 31.7658 4.05128 31.6765 4.07573 31.6277C4.10834 31.5627 4.1817 31.5221 4.23876 31.4734C4.28767 31.5302 4.35288 31.579 4.37733 31.6358C4.40179 31.6927 4.29582 31.7658 4.22246 31.7658H4.2143Z" fill="#192847"/>
<path d="M4.7197 31.6277C4.78491 31.6277 4.84197 31.644 4.84197 31.7415C4.84197 31.8308 4.79306 31.8714 4.69524 31.8714C4.60557 31.8714 4.55667 31.8227 4.56482 31.7333C4.56482 31.644 4.59742 31.6196 4.72785 31.6196L4.7197 31.6277Z" fill="#192847"/>
<path d="M12.5369 21.3505C9.30082 18.7102 7.68683 15.3142 7.56456 11.1627C7.7928 11.1627 7.99658 11.1871 8.19222 11.1627C8.68946 11.0896 9.1867 11.0165 9.66763 10.9109C10.4502 10.7403 11.2083 10.4965 11.9256 10.1472C12.1294 10.0497 12.3169 9.91971 12.5125 9.80597C12.5451 9.78973 12.6022 9.7816 12.6266 9.80597C13.0994 10.1878 13.6537 10.4072 14.2161 10.6022C14.9742 10.8621 15.7486 11.0409 16.5393 11.1465C16.792 11.179 17.0447 11.1871 17.2974 11.1952C17.4115 11.1952 17.493 11.2765 17.4849 11.3902C17.4686 12.5114 17.2974 13.6081 16.9958 14.6887C16.3518 16.9797 15.1617 18.9458 13.4255 20.5869C13.1402 20.855 12.8385 21.0987 12.5288 21.3749L12.5369 21.3505ZM14.3466 15.103C14.3466 13.6975 14.3466 12.292 14.3466 10.8865C14.3466 10.7971 14.3221 10.7646 14.2324 10.7321C13.7271 10.5615 13.2298 10.3828 12.7978 10.0741C12.6266 9.95221 12.5125 9.95221 12.3332 10.0659C11.8359 10.3747 11.2898 10.5778 10.7355 10.7484C10.654 10.7728 10.6214 10.8134 10.6214 10.9027C10.6214 13.665 10.6214 16.4191 10.6214 19.1814C10.6214 19.2382 10.6458 19.3114 10.6866 19.3601C11.2164 20.0019 11.8115 20.5869 12.4636 21.1068C12.5288 21.1556 12.5614 21.1393 12.6185 21.0987C13.2217 20.6112 13.7678 20.075 14.2732 19.4901C14.3221 19.4332 14.3466 19.3682 14.3466 19.2951C14.3466 17.8977 14.3466 16.5085 14.3466 15.1111V15.103Z" fill="#192847"/>
<path d="M16.1888 29.1417C16.0339 29.1417 15.8709 29.1417 15.716 29.1417C15.6834 29.1417 15.6508 29.1173 15.6182 29.1011C15.6345 29.0686 15.6427 29.0198 15.6671 29.0117C15.7405 28.9711 15.8301 28.9386 15.9116 28.9223C16.1643 28.8817 16.4089 28.898 16.6534 28.9955C16.6942 29.0117 16.7186 29.0605 16.7512 29.093C16.7105 29.1092 16.6697 29.1417 16.629 29.1417C16.4823 29.1417 16.3355 29.1417 16.1888 29.1417Z" fill="#192847"/>
<path d="M14.2651 28.9955C14.4933 29.0198 14.7215 29.0442 14.9498 29.0686C15.0068 29.0686 15.0557 29.093 15.1047 29.1254C15.1373 29.1417 15.1536 29.1823 15.178 29.2148C15.1454 29.2311 15.1047 29.2636 15.0721 29.2636C14.9335 29.2554 14.7867 29.2311 14.6482 29.2148C14.5014 29.1986 14.3547 29.1823 14.2161 29.1579C14.1835 29.1579 14.1428 29.1579 14.1183 29.1417C14.0939 29.1254 14.0531 29.093 14.0613 29.0767C14.0613 29.0523 14.102 29.0198 14.1265 29.0117C14.1754 29.0036 14.2243 29.0117 14.2732 29.0117C14.2732 29.0117 14.2732 29.0117 14.2732 29.0036L14.2651 28.9955Z" fill="#192847"/>
<path d="M19.3353 28.5243C19.3353 28.5243 19.2864 28.5649 19.2537 28.5811C18.9358 28.6705 18.6179 28.7599 18.3 28.8492C18.2674 28.8573 18.2267 28.833 18.1941 28.8249C18.2185 28.7924 18.2267 28.7355 18.2593 28.7274C18.4386 28.6624 18.6179 28.5893 18.7973 28.5405C18.9358 28.4999 19.0744 28.4836 19.213 28.4593C19.2456 28.4593 19.2864 28.4836 19.3271 28.4999C19.3271 28.5161 19.3271 28.5243 19.3271 28.5405L19.3353 28.5243Z" fill="#192847"/>
<path d="M20.6803 28.0043C20.6803 28.0043 20.7373 28.0368 20.7373 28.0612C20.7373 28.0855 20.7047 28.1343 20.6803 28.1424C20.4113 28.2399 20.1341 28.3293 19.857 28.4186C19.8325 28.4186 19.7999 28.3943 19.7673 28.3861C19.7836 28.3536 19.7836 28.313 19.808 28.2968C20.0118 28.1505 20.2401 28.0612 20.4928 28.0287C20.5417 28.0287 20.5987 28.0206 20.6721 28.0124L20.6803 28.0043Z" fill="#192847"/>
<path d="M8.87694 29.1417C8.72206 29.1417 8.56718 29.1417 8.42046 29.1417C8.38785 29.1417 8.3634 29.1092 8.33079 29.093C8.34709 29.0605 8.3634 29.0198 8.38785 29.0117C8.68946 28.8817 9.00736 28.8655 9.32527 28.963C9.34972 28.963 9.37418 28.9792 9.39048 28.9955C9.41494 29.028 9.43124 29.0605 9.45569 29.093C9.42309 29.1092 9.39048 29.1417 9.35788 29.1417C9.203 29.1417 9.04812 29.1417 8.88509 29.1417H8.87694Z" fill="#192847"/>
<path d="M10.817 29.0117C10.817 29.0117 10.8903 29.0117 10.923 29.0117C10.9556 29.0198 10.9882 29.0523 11.0208 29.0686C10.9963 29.093 10.9719 29.1336 10.9393 29.1417C10.8088 29.1661 10.6784 29.1823 10.548 29.1986C10.385 29.2229 10.2219 29.2392 10.0589 29.2636C10.0263 29.2636 9.99369 29.2636 9.96923 29.2636C9.94478 29.2636 9.91217 29.2392 9.90402 29.2229C9.90402 29.1986 9.91218 29.1579 9.92848 29.1417C9.98554 29.1092 10.0507 29.0767 10.1241 29.0686C10.3524 29.0361 10.5887 29.0198 10.817 28.9955C10.817 28.9955 10.817 28.9955 10.817 29.0036V29.0117Z" fill="#192847"/>
<path d="M5.80384 28.443C6.1625 28.4918 6.49671 28.573 6.80647 28.7192C6.83908 28.7355 6.84723 28.7842 6.87168 28.8086C6.83092 28.8167 6.79017 28.8492 6.75756 28.8411C6.44781 28.7599 6.1299 28.6705 5.82014 28.5811C5.78754 28.573 5.76308 28.5324 5.73863 28.508C5.76308 28.4836 5.78754 28.4593 5.80384 28.443Z" fill="#192847"/>
<path d="M4.39364 28.0124C4.67079 28.0287 4.89903 28.0774 5.11097 28.1912C5.16803 28.2237 5.22509 28.2643 5.27399 28.3049C5.2903 28.3211 5.29845 28.3699 5.2903 28.3943C5.28215 28.4105 5.23324 28.4268 5.20063 28.4186C4.93163 28.3374 4.66263 28.248 4.40179 28.1505C4.36918 28.1424 4.33658 28.0937 4.33658 28.0693C4.33658 28.0449 4.38548 28.0206 4.39364 28.0206V28.0124Z" fill="#192847"/>
<path d="M34.4399 0.503704H33.4862V33.5694H34.4399V0.503704Z" fill="#192847"/>
<path d="M71.2112 1.27551H47.8165C45.7541 1.27551 44.0831 2.94098 44.0831 4.99642V28.313C44.0831 30.3685 45.7541 32.0339 47.8165 32.0339H71.2112C73.2735 32.0339 74.9445 30.3685 74.9445 28.313V4.99642C74.9445 2.94098 73.2735 1.27551 71.2112 1.27551ZM65.3666 25.9082C64.8938 26.3795 64.1275 26.3795 63.6547 25.9082C63.182 25.437 63.182 24.6734 63.6547 24.2022C65.0894 22.7885 65.9861 20.8225 65.9861 18.6452C65.9861 18.2308 65.9535 17.8165 65.8883 17.4184L67.8854 15.428C68.2196 16.4354 68.3989 17.524 68.3989 18.6452C68.3989 21.4805 67.2414 24.0559 65.3666 25.9082ZM71.1459 13.2182C71.1459 13.6812 70.771 14.0631 70.2982 14.0631C69.8336 14.0631 69.4504 13.6894 69.4504 13.2182V11.967L58.2829 23.0973L55.487 25.8757V19.4738L51.7536 23.1947C50.7917 24.1534 49.1778 23.8284 48.6561 22.5773C48.6316 22.5204 48.6072 22.4636 48.5908 22.4067C48.1425 21.2693 47.8898 20.0263 47.8735 18.7345C47.8246 13.1207 52.4139 8.4736 58.0466 8.42485C60.6143 8.40048 62.97 9.32664 64.7878 10.8621L63.076 12.5682C61.3805 10.8459 58.1362 10.8296 58.1362 10.8296C53.8078 10.8296 50.2945 14.3312 50.2945 18.6452C50.2945 19.2789 50.3679 19.8963 50.5146 20.4894L54.9082 16.1104C55.0957 15.9235 55.3076 15.7854 55.5522 15.6798C55.7886 15.5823 56.0494 15.5336 56.3103 15.5336C57.4026 15.5336 58.2829 16.411 58.2829 17.4996V19.1651L67.3718 10.1066H66.0676C65.603 10.1066 65.2198 9.73286 65.2198 9.26165C65.2198 8.79044 65.5948 8.41673 66.0676 8.41673H70.1678C70.7058 8.41673 71.1378 8.84731 71.1378 9.38351V13.21L71.1459 13.2182Z" fill="#192847"/>
<path d="M83.0389 20.3594V9.88722L80.7076 10.3097V8.98542L83.259 7.89677H85.1257V20.3594H83.0389Z" fill="#192847"/>
<path d="M86.6908 15.1761V13.5025H91.761V15.1761H86.6908Z" fill="#192847"/>
<path d="M93.2935 20.3594V8.01051H95.3558V20.3594H93.2935Z" fill="#192847"/>
<path d="M97.8094 20.3594V8.01051H99.4723L105.113 16.8253V8.01051H107.192V20.3594H105.529L99.888 11.5446V20.3594H97.8094Z" fill="#192847"/>
<path d="M112.637 20.3594L108.61 8.01051H110.762L113.949 18.1333L117.136 8.01051H119.288L115.262 20.3594H112.637Z" fill="#192847"/>
<path d="M123.258 20.4487C122.989 20.4487 122.688 20.4244 122.362 20.3756C122.027 20.3269 121.718 20.2131 121.416 20.0425C121.114 19.8719 120.87 19.6119 120.674 19.2626C120.479 18.9133 120.389 18.4421 120.389 17.8409V10.7159C120.389 10.1878 120.47 9.75723 120.625 9.39976C120.78 9.04229 120.992 8.77419 121.253 8.57109C121.514 8.36798 121.807 8.22987 122.125 8.1405C122.443 8.05114 122.761 8.01864 123.071 8.01864C123.853 8.01864 124.562 8.02676 125.182 8.05114C125.81 8.07551 126.38 8.09988 126.902 8.11613C127.424 8.1405 127.905 8.16488 128.353 8.19737V9.91971H123.666C123.283 9.91971 122.989 10.0172 122.769 10.2041C122.549 10.3909 122.443 10.6915 122.443 11.0896V13.2832L127.595 13.3969V15.0217L122.443 15.1355V17.264C122.443 17.5971 122.5 17.8571 122.622 18.0358C122.737 18.2146 122.891 18.3364 123.079 18.4014C123.266 18.4664 123.454 18.4989 123.658 18.4989H128.361V20.2213C127.872 20.27 127.334 20.3025 126.747 20.3269C126.16 20.3513 125.573 20.3756 124.978 20.3919C124.383 20.4081 123.804 20.4244 123.258 20.4325V20.4487Z" fill="#192847"/>
<path d="M134.026 20.465C133.725 20.465 133.399 20.4569 133.064 20.4406C132.73 20.4244 132.38 20.4 132.021 20.3594C131.671 20.3188 131.336 20.2781 131.018 20.2456C130.709 20.205 130.423 20.1563 130.179 20.1075V18.4827C130.489 18.507 130.855 18.5233 131.279 18.5477C131.695 18.572 132.135 18.5883 132.6 18.5964C133.056 18.6045 133.505 18.6127 133.928 18.6127C134.377 18.6127 134.776 18.572 135.119 18.4827C135.461 18.4014 135.73 18.2552 135.926 18.0358C136.113 17.8246 136.211 17.524 136.211 17.1341V16.5491C136.211 16.1104 136.089 15.7773 135.844 15.5417C135.6 15.3061 135.233 15.1924 134.752 15.1924H133.594C132.461 15.1924 131.589 14.9486 130.986 14.453C130.374 13.9656 130.073 13.1207 130.073 11.9264V11.2927C130.073 10.0984 130.407 9.23728 131.067 8.7092C131.736 8.18112 132.689 7.91302 133.928 7.91302C134.352 7.91302 134.793 7.92927 135.249 7.96989C135.706 8.01051 136.138 8.05926 136.553 8.108C136.969 8.16488 137.319 8.22174 137.613 8.29486V9.91971C137.124 9.88722 136.561 9.85472 135.926 9.82222C135.29 9.78973 134.711 9.77348 134.173 9.77348C133.749 9.77348 133.374 9.82222 133.048 9.90347C132.722 9.99283 132.478 10.1553 132.306 10.3828C132.135 10.6103 132.054 10.9515 132.054 11.3983V11.7964C132.054 12.3245 132.192 12.6901 132.486 12.9013C132.779 13.1125 133.179 13.2182 133.717 13.2182H135.013C135.738 13.2182 136.341 13.3481 136.806 13.6162C137.279 13.8843 137.629 14.2499 137.857 14.713C138.086 15.1761 138.2 15.7042 138.2 16.2973V17.0853C138.2 18.0033 138.021 18.702 137.662 19.1976C137.303 19.6932 136.814 20.0263 136.186 20.205C135.559 20.3838 134.841 20.4731 134.034 20.4731L134.026 20.465Z" fill="#192847"/>
<path d="M142.854 20.3594V9.87097H139.292V8.01051H148.479V9.87097H144.933V20.3594H142.854Z" fill="#192847"/>
<path d="M149.18 20.3756C148.968 20.3756 148.862 20.2781 148.862 20.075V18.4827C148.862 18.2714 148.968 18.1658 149.18 18.1658H150.37C150.582 18.1658 150.688 18.2714 150.688 18.4827V20.075C150.688 20.1888 150.655 20.2619 150.598 20.3106C150.541 20.3594 150.46 20.3756 150.37 20.3756H149.18Z" fill="#192847"/>
<path d="M156.581 20.465C155.856 20.465 155.212 20.3838 154.658 20.2131C154.103 20.0425 153.639 19.7419 153.264 19.2951C152.889 18.8483 152.603 18.2146 152.416 17.3859C152.229 16.5572 152.131 15.4767 152.131 14.1362C152.131 12.8769 152.229 11.837 152.424 11.0246C152.62 10.2122 152.913 9.57037 153.296 9.11541C153.679 8.66045 154.152 8.34361 154.715 8.16488C155.277 7.98614 155.913 7.89677 156.63 7.89677C157.119 7.89677 157.6 7.92115 158.065 7.97802C158.53 8.03489 158.962 8.09988 159.361 8.18112C159.76 8.26237 160.103 8.34361 160.396 8.43298V10.0253C160.209 9.98471 159.94 9.93596 159.589 9.90347C159.239 9.86284 158.847 9.83035 158.415 9.80597C157.975 9.7816 157.527 9.76535 157.054 9.76535C156.541 9.76535 156.1 9.82222 155.734 9.94409C155.367 10.0578 155.073 10.2772 154.853 10.5859C154.633 10.8946 154.47 11.3415 154.364 11.9264C154.266 12.5032 154.217 13.2588 154.217 14.1849C154.217 15.1111 154.266 15.8504 154.356 16.4272C154.454 17.0041 154.601 17.459 154.813 17.7759C155.016 18.0927 155.302 18.3121 155.668 18.4339C156.035 18.5558 156.492 18.6208 157.038 18.6208C157.877 18.6208 158.562 18.6045 159.1 18.5639C159.638 18.5233 160.07 18.4827 160.396 18.4421V20.0344C160.087 20.1238 159.728 20.205 159.328 20.27C158.929 20.335 158.505 20.3919 158.049 20.4325C157.592 20.4731 157.103 20.4894 156.581 20.4894V20.465Z" fill="#192847"/>
<path d="M166.763 20.465C165.931 20.465 165.206 20.3838 164.586 20.2213C163.967 20.0588 163.445 19.7663 163.021 19.3357C162.597 18.9051 162.287 18.2796 162.084 17.4509C161.88 16.6222 161.774 15.5498 161.774 14.2256C161.774 12.9013 161.88 11.8045 162.092 10.9677C162.304 10.1391 162.622 9.49725 163.037 9.05854C163.453 8.61983 163.975 8.31111 164.602 8.14863C165.222 7.97802 165.939 7.89677 166.763 7.89677C167.586 7.89677 168.336 7.97802 168.963 8.14863C169.591 8.31924 170.113 8.61983 170.529 9.05854C170.944 9.49725 171.254 10.1391 171.458 10.9677C171.662 11.7964 171.768 12.8851 171.768 14.2256C171.768 15.5661 171.662 16.6303 171.458 17.4509C171.254 18.2796 170.936 18.9051 170.52 19.3357C170.105 19.7663 169.583 20.0588 168.955 20.2213C168.336 20.3838 167.602 20.465 166.763 20.465ZM166.763 18.6045C167.309 18.6045 167.773 18.5477 168.148 18.4258C168.523 18.3039 168.825 18.1008 169.045 17.7921C169.265 17.4834 169.428 17.0447 169.534 16.4679C169.632 15.891 169.689 15.1436 169.689 14.2174C169.689 13.2344 169.632 12.4545 169.526 11.8695C169.42 11.2846 169.257 10.8378 169.029 10.529C168.809 10.2203 168.507 10.0172 168.14 9.91159C167.773 9.80597 167.309 9.7491 166.763 9.7491C166.249 9.7491 165.809 9.80597 165.434 9.91159C165.067 10.0172 164.765 10.2203 164.537 10.529C164.309 10.8378 164.138 11.2846 164.024 11.8695C163.91 12.4545 163.852 13.2425 163.852 14.2174C163.852 15.1436 163.901 15.891 163.991 16.4679C164.089 17.0447 164.244 17.4834 164.472 17.7921C164.7 18.1008 164.994 18.3121 165.369 18.4258C165.744 18.5395 166.208 18.6045 166.754 18.6045H166.763Z" fill="#192847"/>
<path d="M173.088 20.3594L174.515 8.01051H176.528L179.536 17.8977L182.527 8.01051H184.541L186 20.3594H183.987L182.845 10.6509L183.18 10.6834L180.49 20.3513H178.541L175.819 10.6834L176.169 10.6671L175.077 20.3513H173.08L173.088 20.3594Z" fill="#192847"/>
<path d="M81.7347 27.4437V24.909C81.7347 24.7871 81.751 24.6815 81.7917 24.6002C81.8243 24.519 81.8733 24.454 81.9385 24.4053C81.9955 24.3565 82.0689 24.324 82.1423 24.2996C82.2156 24.2753 82.289 24.2671 82.3705 24.2671C82.5009 24.2671 82.6395 24.2671 82.7862 24.2753C82.9329 24.2834 83.0878 24.2753 83.2427 24.2834C83.3976 24.2834 83.5525 24.2915 83.7073 24.3078V24.5759H82.4602C82.346 24.5759 82.2564 24.6084 82.1912 24.6734C82.126 24.7384 82.0934 24.8277 82.0934 24.9577V25.7783L83.5199 25.8026V26.0626L82.0934 26.087V27.4437H81.7347Z" fill="#192847"/>
<path d="M84.1883 27.4437V24.2671H84.5306V27.4437H84.1883Z" fill="#192847"/>
<path d="M85.1991 27.4437V24.2671H86.4544C86.5603 24.2671 86.6582 24.2834 86.756 24.3078C86.8538 24.3321 86.9435 24.3809 87.025 24.4459C87.1065 24.5109 87.1636 24.6084 87.2125 24.7302C87.2614 24.8521 87.2858 25.0146 87.2858 25.2096C87.2858 25.3802 87.2695 25.5264 87.2288 25.632C87.188 25.7458 87.1391 25.827 87.082 25.892C87.025 25.957 86.9598 26.0057 86.8864 26.0382C86.813 26.0707 86.7478 26.087 86.6826 26.1032L87.3347 27.4519H86.9842L86.3647 26.152C86.3158 26.152 86.2588 26.152 86.1935 26.152C86.1283 26.152 86.055 26.152 85.9734 26.152C85.8919 26.152 85.8186 26.152 85.7452 26.152C85.6718 26.152 85.6066 26.152 85.5496 26.152V27.4681H85.2072L85.1991 27.4437ZM86.3973 25.8676C86.4707 25.8676 86.5441 25.8595 86.6011 25.8433C86.6663 25.827 86.7234 25.7945 86.7723 25.7458C86.8212 25.697 86.862 25.632 86.8864 25.5427C86.9109 25.4533 86.9272 25.3477 86.9272 25.2096C86.9272 25.0714 86.9109 24.974 86.8864 24.8846C86.862 24.7952 86.8212 24.7384 86.7641 24.6977C86.7152 24.6571 86.6582 24.6246 86.593 24.6084C86.5277 24.5921 86.4625 24.584 86.3892 24.584H85.5333V25.8676H86.3973Z" fill="#192847"/>
<path d="M88.7368 27.4681C88.6716 27.4681 88.5982 27.4681 88.5086 27.4681C88.4189 27.4681 88.3292 27.46 88.2395 27.4519C88.1499 27.4519 88.0602 27.4356 87.9787 27.4275C87.8972 27.4194 87.8238 27.4112 87.7749 27.395V27.135C87.8483 27.135 87.938 27.1431 88.0358 27.1513C88.1417 27.1513 88.2477 27.1594 88.37 27.1675C88.4922 27.1675 88.6064 27.1675 88.7205 27.1675C88.8509 27.1675 88.965 27.1513 89.071 27.1269C89.177 27.1025 89.2585 27.0538 89.3237 26.9806C89.3889 26.9075 89.4134 26.81 89.4134 26.68V26.4607C89.4134 26.3145 89.3726 26.2007 89.2992 26.1276C89.2259 26.0545 89.1036 26.0139 88.9324 26.0139H88.5901C88.3292 26.0139 88.1254 25.957 87.9706 25.8433C87.8157 25.7295 87.7505 25.5264 87.7505 25.2502V25.0714C87.7505 24.7708 87.832 24.5596 87.995 24.4296C88.158 24.2996 88.3863 24.2428 88.6797 24.2428C88.7694 24.2428 88.8754 24.2428 88.9895 24.259C89.1036 24.2671 89.2177 24.2834 89.3237 24.2915C89.4297 24.3078 89.5193 24.3159 89.5927 24.3321V24.5921C89.4623 24.584 89.3237 24.5677 89.1607 24.5596C88.9976 24.5515 88.8509 24.5434 88.7123 24.5434C88.5819 24.5434 88.4678 24.5596 88.3781 24.5921C88.2803 24.6246 88.2069 24.6734 88.158 24.7546C88.1091 24.8277 88.0847 24.9415 88.0847 25.0796V25.2258C88.0847 25.4045 88.1336 25.5183 88.2232 25.5914C88.3129 25.6645 88.4433 25.6889 88.6064 25.6889H88.9732C89.1525 25.6889 89.2911 25.7214 89.4052 25.7864C89.5193 25.8514 89.6009 25.9407 89.6579 26.0464C89.715 26.152 89.7394 26.282 89.7394 26.4282V26.6719C89.7394 26.8832 89.6905 27.0456 89.6008 27.1675C89.5112 27.2812 89.3889 27.3625 89.234 27.4031C89.0792 27.4437 88.9161 27.4681 88.7286 27.4681H88.7368Z" fill="#192847"/>
<path d="M91.0518 27.4437V24.5759H90.0655V24.2671H92.3723V24.5759H91.386V27.4437H91.0437H91.0518Z" fill="#192847"/>
<path d="M93.9456 27.4437V24.2671H94.2879V27.4437H93.9456Z" fill="#192847"/>
<path d="M95.0216 27.4437V24.2671H95.3069L96.9698 26.8507V24.2671H97.3121V27.4437H97.0268L95.3639 24.8602V27.4437H95.0216Z" fill="#192847"/>
<path d="M98.8201 27.4437L97.7279 24.2671H98.0784L99.0402 27.0863L99.994 24.2671H100.344L99.2522 27.4437H98.812H98.8201Z" fill="#192847"/>
<path d="M101.404 27.46C101.331 27.46 101.266 27.46 101.184 27.4437C101.103 27.4275 101.029 27.4031 100.964 27.3625C100.899 27.3219 100.842 27.2569 100.793 27.1756C100.752 27.0944 100.728 26.9806 100.728 26.8425V24.909C100.728 24.7871 100.744 24.6815 100.785 24.6002C100.817 24.519 100.866 24.454 100.931 24.4053C100.988 24.3565 101.062 24.324 101.135 24.2996C101.209 24.2753 101.282 24.2671 101.363 24.2671C101.543 24.2671 101.706 24.2671 101.861 24.2753C102.016 24.2753 102.162 24.2834 102.293 24.2915C102.423 24.2996 102.562 24.2996 102.692 24.3078V24.584H101.445C101.331 24.584 101.241 24.6165 101.176 24.6734C101.111 24.7302 101.078 24.8277 101.078 24.9658V25.7133L102.505 25.7376V25.9976L101.078 26.022V26.7694C101.078 26.875 101.094 26.9563 101.135 27.0131C101.176 27.07 101.217 27.1025 101.282 27.1188C101.339 27.135 101.404 27.1431 101.469 27.1431H102.7V27.4194C102.57 27.4275 102.431 27.4356 102.285 27.4437C102.138 27.4437 101.991 27.4519 101.844 27.46C101.698 27.46 101.559 27.46 101.412 27.4681L101.404 27.46Z" fill="#192847"/>
<path d="M104.167 27.4681C104.102 27.4681 104.029 27.4681 103.939 27.4681C103.85 27.4681 103.76 27.46 103.67 27.4519C103.581 27.4519 103.491 27.4356 103.409 27.4275C103.328 27.4194 103.255 27.4112 103.206 27.395V27.135C103.279 27.135 103.369 27.1431 103.466 27.1513C103.572 27.1513 103.678 27.1594 103.801 27.1675C103.923 27.1675 104.037 27.1675 104.151 27.1675C104.282 27.1675 104.396 27.1513 104.502 27.1269C104.608 27.1025 104.689 27.0538 104.754 26.9806C104.82 26.9075 104.844 26.81 104.844 26.68V26.4607C104.844 26.3145 104.803 26.2007 104.73 26.1276C104.657 26.0545 104.534 26.0139 104.363 26.0139H104.021C103.76 26.0139 103.556 25.957 103.401 25.8433C103.246 25.7295 103.181 25.5264 103.181 25.2502V25.0714C103.181 24.7708 103.263 24.5596 103.426 24.4296C103.589 24.2996 103.817 24.2428 104.11 24.2428C104.2 24.2428 104.306 24.2428 104.42 24.259C104.534 24.2671 104.648 24.2834 104.754 24.2915C104.86 24.3078 104.95 24.3159 105.023 24.3321V24.5921C104.893 24.584 104.754 24.5677 104.591 24.5596C104.428 24.5515 104.282 24.5434 104.143 24.5434C104.013 24.5434 103.898 24.5596 103.809 24.5921C103.711 24.6246 103.638 24.6734 103.589 24.7546C103.54 24.8277 103.515 24.9415 103.515 25.0796V25.2258C103.515 25.4045 103.564 25.5183 103.654 25.5914C103.744 25.6645 103.874 25.6889 104.037 25.6889H104.404C104.583 25.6889 104.722 25.7214 104.836 25.7864C104.95 25.8514 105.032 25.9407 105.089 26.0464C105.146 26.152 105.17 26.282 105.17 26.4282V26.6719C105.17 26.8832 105.121 27.0456 105.032 27.1675C104.942 27.2812 104.82 27.3625 104.665 27.4031C104.51 27.4437 104.347 27.4681 104.159 27.4681H104.167Z" fill="#192847"/>
<path d="M106.483 27.4437V24.5759H105.496V24.2671H107.803V24.5759H106.817V27.4437H106.474H106.483Z" fill="#192847"/>
<path d="M107.999 27.4437L108.366 24.2671H108.716L109.564 27.0131L110.395 24.2671H110.754L111.129 27.4437H110.795L110.477 24.6652H110.534L109.727 27.4437H109.409L108.586 24.6734H108.651L108.341 27.4437H107.999Z" fill="#192847"/>
<path d="M112.286 27.46C112.213 27.46 112.148 27.46 112.066 27.4437C111.985 27.4275 111.911 27.4031 111.846 27.3625C111.781 27.3219 111.724 27.2569 111.675 27.1756C111.634 27.0944 111.61 26.9806 111.61 26.8425V24.909C111.61 24.7871 111.626 24.6815 111.667 24.6002C111.699 24.519 111.748 24.454 111.814 24.4053C111.871 24.3565 111.944 24.324 112.017 24.2996C112.091 24.2753 112.164 24.2671 112.246 24.2671C112.425 24.2671 112.588 24.2671 112.743 24.2753C112.898 24.2753 113.044 24.2834 113.175 24.2915C113.305 24.2996 113.444 24.2996 113.574 24.3078V24.584H112.327C112.213 24.584 112.123 24.6165 112.058 24.6734C111.993 24.7302 111.96 24.8277 111.96 24.9658V25.7133L113.387 25.7376V25.9976L111.96 26.022V26.7694C111.96 26.875 111.977 26.9563 112.017 27.0131C112.058 27.07 112.099 27.1025 112.164 27.1188C112.221 27.135 112.286 27.1431 112.352 27.1431H113.582V27.4194C113.452 27.4275 113.313 27.4356 113.167 27.4437C113.02 27.4437 112.873 27.4519 112.727 27.46C112.58 27.46 112.441 27.46 112.295 27.4681L112.286 27.46Z" fill="#192847"/>
<path d="M114.218 27.4437V24.2671H114.504L116.166 26.8507V24.2671H116.509V27.4437H116.224L114.561 24.8602V27.4437H114.218Z" fill="#192847"/>
<path d="M117.829 27.4437V24.5759H116.843V24.2671H119.15V24.5759H118.164V27.4437H117.821H117.829Z" fill="#192847"/>
<path d="M120.731 27.4437V24.2671H122.003C122.093 24.2671 122.19 24.2834 122.288 24.3078C122.386 24.3321 122.476 24.3809 122.557 24.454C122.639 24.5271 122.704 24.6246 122.761 24.7627C122.818 24.9008 122.834 25.0714 122.834 25.2908C122.834 25.5102 122.81 25.697 122.753 25.8351C122.696 25.9732 122.631 26.0789 122.549 26.152C122.468 26.2251 122.37 26.2738 122.272 26.2982C122.174 26.3226 122.076 26.3388 121.987 26.3388C121.946 26.3388 121.881 26.3388 121.799 26.3388C121.718 26.3388 121.628 26.3388 121.53 26.3307C121.44 26.3307 121.351 26.3226 121.269 26.3145C121.188 26.3145 121.123 26.3063 121.082 26.2982V27.46H120.739L120.731 27.4437ZM121.074 26.022H121.938C122.035 26.022 122.133 25.9976 122.215 25.957C122.296 25.9164 122.362 25.8351 122.41 25.7295C122.459 25.6239 122.484 25.4777 122.484 25.2827C122.484 25.0877 122.459 24.9496 122.41 24.8521C122.362 24.7465 122.296 24.6815 122.223 24.6409C122.15 24.6002 122.06 24.584 121.97 24.584H121.082V26.022H121.074Z" fill="#192847"/>
<path d="M123.984 27.4437C123.861 27.4437 123.747 27.4275 123.649 27.3869C123.552 27.3462 123.478 27.2812 123.421 27.1919C123.364 27.0944 123.34 26.9725 123.34 26.81V24.2753H123.682V26.7613C123.682 26.8669 123.698 26.94 123.731 26.9969C123.764 27.0538 123.813 27.0863 123.87 27.1025C123.927 27.1188 123.984 27.1269 124.049 27.1269H125.19V27.4437H123.976H123.984Z" fill="#192847"/>
<path d="M125.459 27.4437L126.551 24.2671H126.992L128.084 27.4437H127.725L127.407 26.5419H126.128L125.818 27.4437H125.459ZM126.209 26.2251H127.318L126.771 24.5677L126.209 26.2251Z" fill="#192847"/>
<path d="M129.062 27.4437V24.5759H128.076V24.2671H130.383V24.5759H129.396V27.4437H129.054H129.062Z" fill="#192847"/>
<path d="M130.749 27.4437V24.909C130.749 24.7871 130.766 24.6815 130.806 24.6002C130.839 24.519 130.888 24.454 130.953 24.4053C131.01 24.3565 131.084 24.324 131.157 24.2996C131.23 24.2753 131.304 24.2671 131.385 24.2671C131.516 24.2671 131.654 24.2671 131.801 24.2753C131.948 24.2834 132.103 24.2753 132.257 24.2834C132.412 24.2834 132.567 24.2915 132.722 24.3078V24.5759H131.475C131.361 24.5759 131.271 24.6084 131.206 24.6734C131.141 24.7384 131.108 24.8277 131.108 24.9577V25.7783L132.535 25.8026V26.0626L131.108 26.087V27.4437H130.749Z" fill="#192847"/>
<path d="M134.361 27.4681C134.157 27.4681 133.977 27.4519 133.823 27.4112C133.668 27.3706 133.537 27.2975 133.439 27.1919C133.333 27.0863 133.26 26.9238 133.211 26.7125C133.162 26.5013 133.138 26.217 133.138 25.8757C133.138 25.5345 133.162 25.2502 133.219 25.0389C133.276 24.8277 133.35 24.6571 133.456 24.5434C133.562 24.4296 133.692 24.3565 133.839 24.3078C133.994 24.2671 134.173 24.2428 134.369 24.2428C134.564 24.2428 134.76 24.2671 134.915 24.3078C135.07 24.3484 135.2 24.4296 135.298 24.5434C135.404 24.6571 135.477 24.8196 135.526 25.0389C135.575 25.2502 135.6 25.5345 135.6 25.8757C135.6 26.217 135.575 26.5013 135.526 26.7125C135.477 26.9238 135.396 27.0863 135.298 27.1919C135.192 27.2975 135.07 27.3787 134.915 27.4112C134.76 27.4519 134.581 27.4681 134.377 27.4681H134.361ZM134.361 27.1594C134.524 27.1594 134.662 27.1431 134.768 27.1106C134.882 27.0781 134.972 27.0213 135.045 26.9238C135.119 26.8344 135.168 26.7044 135.2 26.5338C135.233 26.3632 135.249 26.1357 135.249 25.8595C135.249 25.5833 135.233 25.3395 135.2 25.1608C135.168 24.9821 135.119 24.8521 135.045 24.7627C134.972 24.6734 134.882 24.6165 134.776 24.584C134.67 24.5515 134.532 24.5434 134.369 24.5434C134.222 24.5434 134.092 24.5596 133.977 24.584C133.863 24.6084 133.774 24.6734 133.7 24.7627C133.627 24.8521 133.57 24.9821 133.537 25.1608C133.505 25.3395 133.48 25.567 133.48 25.8595C133.48 26.152 133.496 26.3632 133.529 26.5338C133.562 26.7044 133.611 26.8344 133.676 26.9238C133.741 27.0131 133.839 27.0781 133.953 27.1106C134.067 27.1431 134.206 27.1594 134.369 27.1594H134.361Z" fill="#192847"/>
<path d="M136.17 27.4437V24.2671H137.425C137.531 24.2671 137.629 24.2834 137.727 24.3078C137.825 24.3321 137.915 24.3809 137.996 24.4459C138.078 24.5109 138.135 24.6084 138.184 24.7302C138.232 24.8521 138.257 25.0146 138.257 25.2096C138.257 25.3802 138.241 25.5264 138.2 25.632C138.159 25.7458 138.11 25.827 138.053 25.892C137.996 25.957 137.931 26.0057 137.857 26.0382C137.784 26.0707 137.719 26.087 137.654 26.1032L138.306 27.4519H137.955L137.336 26.152C137.287 26.152 137.23 26.152 137.165 26.152C137.099 26.152 137.026 26.152 136.945 26.152C136.863 26.152 136.79 26.152 136.716 26.152C136.643 26.152 136.578 26.152 136.521 26.152V27.4681H136.178L136.17 27.4437ZM137.368 25.8676C137.442 25.8676 137.515 25.8595 137.572 25.8433C137.637 25.827 137.694 25.7945 137.743 25.7458C137.792 25.697 137.833 25.632 137.857 25.5427C137.882 25.4533 137.898 25.3477 137.898 25.2096C137.898 25.0714 137.882 24.974 137.857 24.8846C137.833 24.7952 137.792 24.7384 137.735 24.6977C137.686 24.6571 137.629 24.6246 137.564 24.6084C137.499 24.5921 137.434 24.584 137.36 24.584H136.504V25.8676H137.368Z" fill="#192847"/>
<path d="M138.722 27.4437L139.088 24.2671H139.439L140.287 27.0131L141.118 24.2671H141.477L141.852 27.4437H141.517L141.2 24.6652H141.257L140.45 27.4437H140.132L139.308 24.6734H139.374L139.064 27.4437H138.722Z" fill="#192847"/>
</svg>
