<svg width="29" height="29" viewBox="0 0 29 29" fill="none" xmlns="http://www.w3.org/2000/svg">
<path d="M0.1711 15.9972C0.288973 16.8987 0.730748 17.7265 1.41402 18.3262C2.09729 18.926 2.9754 19.2567 3.88455 19.2567C4.7937 19.2567 5.67181 18.926 6.35508 18.3262C7.03835 17.7265 7.48013 16.8987 7.598 15.9972H0.1711ZM20.4056 23.5366C20.4058 23.6128 20.391 23.6883 20.362 23.7588C20.333 23.8293 20.2905 23.8934 20.2367 23.9474C20.183 24.0015 20.1191 24.0444 20.0487 24.0737C19.9784 24.103 19.9029 24.1182 19.8267 24.1183H9.00624C8.6884 24.1183 8.42624 23.8573 8.42624 23.5366C8.42701 23.3834 8.48849 23.2367 8.59721 23.1288C8.70593 23.0208 8.85302 22.9604 9.00624 22.9607H19.8261C20.1463 22.9607 20.4056 23.2182 20.4056 23.5366ZM8.48946 24.4147H20.3429V26.0892H8.48946V24.4147ZM21.402 15.9972C21.5191 16.8993 21.9605 17.7279 22.6437 18.3284C23.327 18.9288 24.2055 19.2601 25.1152 19.2603C26.0247 19.2603 26.9031 18.929 27.5861 18.3285C28.2692 17.728 28.7101 16.8992 28.8266 15.9972H21.402ZM28.6224 14.832L25.5815 10.6432H27.2072C27.6028 10.6432 27.9212 10.319 27.9212 9.9182C27.9212 9.5209 27.6022 9.20016 27.2072 9.20016H18.5954C18.3397 8.49599 17.9031 7.87158 17.3295 7.38977C16.7558 6.90797 16.0654 6.58577 15.3277 6.4556V4.19534C15.3277 3.7934 15.0052 3.47266 14.6056 3.47266L14.5383 3.4802L14.471 3.47266C14.3761 3.47243 14.2821 3.49098 14.1944 3.52723C14.1067 3.56349 14.0271 3.61674 13.9601 3.68392C13.8931 3.75109 13.84 3.83087 13.804 3.91864C13.7679 4.00641 13.7496 4.10045 13.7501 4.19534V6.45444C13.0124 6.58451 12.3221 6.9067 11.7486 7.38853C11.1751 7.87036 10.7388 8.49482 10.4835 9.199H1.86992C1.47726 9.199 1.1571 9.51974 1.1571 9.91704C1.1571 10.3184 1.47726 10.642 1.86992 10.642H3.42142L0.3799 14.8308H0V15.6045H7.77084V14.8308H7.3892L4.34884 10.6432H11.4069C11.4069 10.4796 11.4248 10.319 11.4492 10.1653C11.4741 10.0928 11.491 10.0191 11.491 9.94314C11.6217 9.39211 11.9017 8.88773 12.3002 8.48534C12.6987 8.08295 13.2003 7.79808 13.7501 7.662V15.6063H13.7199C13.6578 18.5944 12.2363 21.2004 10.1274 22.6649H18.9515C16.842 21.2004 15.4216 18.5944 15.3561 15.6063H15.3282V7.662C15.8779 7.79812 16.3794 8.083 16.7778 8.4854C17.1763 8.88779 17.4561 9.39215 17.5868 9.94314C17.5891 10.0191 17.6047 10.0928 17.6303 10.1653C17.6535 10.3196 17.668 10.4796 17.668 10.6432H24.6523L21.6108 14.832H21.2315V15.6057H29V14.832H28.6224ZM3.5757 14.832H1.1484L3.5757 11.4883V14.832ZM4.19688 14.832V11.4883L6.62418 14.832H4.19688ZM24.8054 14.832H22.377L24.8054 11.4883V14.832ZM25.4237 14.832V11.4883L27.8539 14.832H25.4237ZM4.60578 8.19212C4.60046 8.37971 4.5222 8.55783 4.38763 8.68863C4.25306 8.81944 4.07279 8.89261 3.88513 8.89261C3.69747 8.89261 3.5172 8.81944 3.38263 8.68863C3.24806 8.55783 3.1698 8.37971 3.16448 8.19212C3.16448 7.79424 3.48812 7.46944 3.88658 7.46944C4.2833 7.46886 4.60578 7.79424 4.60578 8.19212ZM25.8361 8.15384C25.8361 8.55462 25.5136 8.87246 25.1157 8.87246C25.0211 8.87307 24.9273 8.85492 24.8397 8.81904C24.7522 8.78317 24.6726 8.73028 24.6056 8.66346C24.5386 8.59663 24.4855 8.51718 24.4495 8.4297C24.4134 8.34223 24.395 8.24846 24.3954 8.15384C24.3915 8.05681 24.4072 7.95999 24.4417 7.86919C24.4761 7.7784 24.5286 7.6955 24.5958 7.62547C24.6631 7.55544 24.7438 7.49972 24.8332 7.46166C24.9225 7.4236 25.0186 7.40399 25.1157 7.40399C25.2128 7.40399 25.309 7.4236 25.3983 7.46166C25.4876 7.49972 25.5684 7.55544 25.6356 7.62547C25.7029 7.6955 25.7554 7.7784 25.7898 7.86919C25.8242 7.95999 25.84 8.05681 25.8361 8.15384Z" fill="white"/>
</svg>
