<svg width="24" height="24" viewBox="0 0 24 24" fill="none" xmlns="http://www.w3.org/2000/svg">
<path d="M16.5559 10.906L16.1009 11.359C16.1009 11.359 15.0179 12.435 12.0629 9.49698C9.10788 6.55898 10.1909 5.48298 10.1909 5.48298L10.4769 5.19698C11.1839 4.49498 11.2509 3.36698 10.6339 2.54298L9.37388 0.859979C8.60988 -0.160021 7.13488 -0.29502 6.25988 0.57498L4.68988 2.13498C4.25688 2.56698 3.96688 3.12498 4.00188 3.74498C4.09188 5.33198 4.80988 8.74498 8.81388 12.727C13.0609 16.949 17.0459 17.117 18.6749 16.965C19.1909 16.917 19.6389 16.655 19.9999 16.295L21.4199 14.883C22.3799 13.93 22.1099 12.295 20.8819 11.628L18.9719 10.589C18.1659 10.152 17.1859 10.28 16.5559 10.906Z" fill="#6B7280"/>
</svg>
