<svg width="26" height="26" viewBox="0 0 26 26" fill="none" xmlns="http://www.w3.org/2000/svg">
<path d="M13.0002 13.5415C11.9946 13.5415 11.0301 13.941 10.319 14.6521C9.60797 15.3631 9.2085 16.3276 9.2085 17.3332C9.2085 18.3388 9.60797 19.3032 10.319 20.0143C11.0301 20.7254 11.9946 21.1248 13.0002 21.1248C14.0058 21.1248 14.9702 20.7254 15.6813 20.0143C16.3924 19.3032 16.7918 18.3388 16.7918 17.3332C16.7918 16.3276 16.3924 15.3631 15.6813 14.6521C14.9702 13.941 14.0058 13.5415 13.0002 13.5415ZM11.3752 17.3332C11.3752 16.9022 11.5464 16.4889 11.8511 16.1841C12.1559 15.8794 12.5692 15.7082 13.0002 15.7082C13.4311 15.7082 13.8445 15.8794 14.1492 16.1841C14.454 16.4889 14.6252 16.9022 14.6252 17.3332C14.6252 17.7641 14.454 18.1775 14.1492 18.4822C13.8445 18.787 13.4311 18.9582 13.0002 18.9582C12.5692 18.9582 12.1559 18.787 11.8511 18.4822C11.5464 18.1775 11.3752 17.7641 11.3752 17.3332Z" fill="white"/>
<path d="M18.9865 5.54228L15.5426 0.713867L2.8795 10.83L2.1775 10.8224V10.8333H1.625V23.8333H24.375V10.8333H23.3328L21.2593 4.7677L18.9865 5.54228ZM21.0438 10.8333H10.1801L18.2715 8.07512L19.9203 7.54753L21.0438 10.8333ZM16.8458 6.27245L8.49333 9.11945L15.1082 3.83495L16.8458 6.27245ZM3.79167 19.683V14.9814C4.24902 14.82 4.66445 14.5582 5.0075 14.2154C5.35054 13.8725 5.6125 13.4572 5.77417 12.9999H20.2258C20.3874 13.4574 20.6493 13.8729 20.9923 14.216C21.3354 14.559 21.7509 14.8209 22.2083 14.9824V19.6841C21.7509 19.8456 21.3354 20.1075 20.9923 20.4506C20.6493 20.7936 20.3874 21.2091 20.2258 21.6666H5.77633C5.61403 21.2091 5.35163 20.7936 5.00827 20.4504C4.66491 20.1073 4.24927 19.8451 3.79167 19.683Z" fill="white"/>
</svg>
