<svg width="27" height="22" viewBox="0 0 27 22" fill="none" xmlns="http://www.w3.org/2000/svg">
<path d="M13.2184 17.7539C17.2576 17.7539 20.5436 14.602 20.5436 10.7277C20.5436 6.85335 17.2575 3.70142 13.2184 3.70142C9.17848 3.70142 5.89175 6.8534 5.89175 10.7277C5.89175 14.6019 9.17853 17.7539 13.2184 17.7539ZM12.4367 6.78461V6.42123C12.4367 6.22235 12.519 6.03162 12.6656 5.89099C12.8122 5.75037 13.0111 5.67136 13.2184 5.67136C13.4258 5.67136 13.6246 5.75037 13.7712 5.89099C13.9178 6.03162 14.0002 6.22235 14.0002 6.42123V6.78616C14.7307 6.98028 15.3528 7.4394 15.6855 8.06298C15.78 8.24003 15.7973 8.44582 15.7335 8.63507C15.6698 8.82432 15.5303 8.98153 15.3457 9.07213C15.1611 9.16272 14.9466 9.17928 14.7493 9.11814C14.552 9.05701 14.3881 8.92321 14.2936 8.74616C14.1112 8.40447 13.6886 8.18371 13.2167 8.18371C12.5877 8.18371 12.0564 8.59454 12.0564 9.0808C12.0564 9.63705 12.2418 9.76518 13.379 9.99464C13.928 10.1054 14.4956 10.2199 14.9838 10.5286C15.6196 10.9308 15.9423 11.5518 15.9423 12.3746C15.9423 13.4568 15.1223 14.3733 14.0002 14.67V15.0341C14.0002 15.233 13.9178 15.4237 13.7712 15.5644C13.6246 15.705 13.4258 15.784 13.2184 15.784C13.0111 15.784 12.8122 15.705 12.6656 15.5644C12.519 15.4237 12.4367 15.233 12.4367 15.0341V14.6699C11.7055 14.4763 11.0827 14.0168 10.7496 13.3924C10.6557 13.2154 10.6388 13.0099 10.7027 12.821C10.7665 12.632 10.9059 12.4751 11.0902 12.3847C11.2746 12.2942 11.4888 12.2776 11.6859 12.3384C11.883 12.3993 12.0469 12.5326 12.1416 12.7092C12.324 13.0509 12.7458 13.2717 13.2167 13.2717C13.8574 13.2717 14.3789 12.8693 14.3789 12.3746C14.3789 11.8194 14.1937 11.6915 13.0573 11.4622C12.5081 11.3514 11.9402 11.2368 11.452 10.9279C10.8158 10.5255 10.4931 9.90405 10.4931 9.0808C10.493 7.99765 11.3138 7.08051 12.4367 6.78461ZM23.2745 15.4238C22.1728 17.5949 20.3397 19.3461 18.0717 20.3939C15.8036 21.4417 13.2334 21.7248 10.7767 21.1976C8.32008 20.6703 6.12074 19.3635 4.53452 17.4885C2.9483 15.6135 2.06798 13.28 2.03599 10.8656L1.62691 11.2579C1.4799 11.3966 1.28168 11.474 1.07545 11.4732C0.869212 11.4724 0.671666 11.3935 0.525838 11.2536C0.38001 11.1137 0.297716 10.9242 0.296881 10.7264C0.296047 10.5286 0.376738 10.3385 0.521381 10.1975L2.26317 8.52665C2.40978 8.38603 2.60863 8.30702 2.81596 8.30702C3.0233 8.30702 3.22215 8.38603 3.36876 8.52665L5.11065 10.1975C5.2562 10.3383 5.33766 10.5287 5.33721 10.727C5.33676 10.9253 5.25443 11.1154 5.10824 11.2556C4.96204 11.3958 4.7639 11.4748 4.55715 11.4752C4.3504 11.4757 4.1519 11.3975 4.00507 11.2579L3.59964 10.869C3.67876 15.8923 7.96194 19.9556 13.2169 19.9556C16.9266 19.9556 20.242 17.9673 21.8692 14.7665C21.9139 14.6776 21.9765 14.5979 22.0533 14.5322C22.1302 14.4665 22.2198 14.416 22.3171 14.3837C22.4144 14.3513 22.5174 14.3377 22.6202 14.3436C22.7229 14.3495 22.8235 14.3748 22.916 14.4181C23.0086 14.4614 23.0913 14.5218 23.1595 14.5958C23.2276 14.6698 23.2798 14.756 23.3132 14.8495C23.3465 14.9429 23.3602 15.0418 23.3536 15.1404C23.3469 15.2389 23.3201 15.3352 23.2745 15.4238ZM25.914 11.2579L24.1722 12.9287C24.0256 13.0693 23.8267 13.1483 23.6194 13.1483C23.412 13.1483 23.2132 13.0693 23.0666 12.9287L21.3247 11.2579C21.2516 11.1884 21.1935 11.1057 21.1538 11.0146C21.1141 10.9235 21.0935 10.8258 21.0933 10.727C21.0931 10.6283 21.1132 10.5304 21.1525 10.4392C21.1918 10.3479 21.2495 10.265 21.3223 10.1951C21.3951 10.1253 21.4815 10.0699 21.5767 10.0323C21.6718 9.99457 21.7738 9.97528 21.8768 9.97549C21.9797 9.97571 22.0816 9.99543 22.1766 10.0335C22.2716 10.0716 22.3578 10.1273 22.4303 10.1975L22.8357 10.5863C22.7566 5.56378 18.4725 1.50111 13.2169 1.50111C9.50766 1.50111 6.19289 3.48891 4.56617 6.68878C4.47472 6.86661 4.31357 7.00245 4.11797 7.0666C3.92236 7.13074 3.70824 7.11797 3.52243 7.03106C3.33662 6.94416 3.19426 6.79021 3.12649 6.60289C3.05872 6.41556 3.07106 6.21012 3.1608 6.0315C4.26273 3.86066 6.09593 2.10985 8.36389 1.06229C10.6318 0.0147238 13.2019 -0.268341 15.6584 0.258881C18.1149 0.786103 20.3141 2.09278 21.9003 3.96755C23.4866 5.84232 24.367 8.17555 24.3993 10.5898L24.8085 10.1975C24.9555 10.0587 25.1537 9.98133 25.3599 9.98214C25.5662 9.98295 25.7637 10.0619 25.9096 10.2018C26.0554 10.3417 26.1377 10.5311 26.1385 10.729C26.1393 10.9268 26.0586 11.1169 25.914 11.2579Z" fill="#6FCF97"/>
</svg>
