<svg width="13" height="15" viewBox="0 0 13 15" fill="none" xmlns="http://www.w3.org/2000/svg">
<path d="M8.61117 9.17875C8.51696 9.14843 7.92147 8.88433 8.29357 7.77139H8.28824C9.25821 6.78845 9.99945 5.20677 9.99945 3.64958C9.99945 1.2552 8.38127 0 6.50059 0C4.61873 0 3.00944 1.25462 3.00944 3.64958C3.00944 5.21318 3.74654 6.80127 4.72243 7.78188C5.10283 8.76365 4.42261 9.12803 4.2804 9.17933C2.31085 9.8801 0 11.1574 0 12.4185V12.8913C0 14.6094 3.38569 15 6.51896 15C9.65697 15 13 14.6094 13 12.8913V12.4185C13 11.1196 10.6779 9.85211 8.61117 9.17875Z" fill="#6B7280"/>
</svg>
