<svg width="174" height="34" viewBox="0 0 174 34" fill="none" xmlns="http://www.w3.org/2000/svg">
<path d="M12.8096 33.9919H11.207C11.169 33.9919 11.1311 33.9756 11.0931 33.9756C10.1058 33.935 9.11082 33.8944 8.12347 33.8375C7.6374 33.8131 7.15132 33.7644 6.66524 33.7075C6.14879 33.6425 5.63233 33.5775 5.12347 33.48C4.51587 33.3582 3.91587 33.2119 3.32347 33.0576C3.00448 32.9763 2.76903 32.7732 2.67789 32.4158C2.64751 32.2858 2.63992 32.1477 2.63232 32.0177C2.63232 31.9446 2.60954 31.9039 2.54878 31.8714C2.3741 31.7658 2.24498 31.6196 2.17663 31.4165C2.11587 31.2378 2.0703 31.0509 2.02473 30.8722C2.00194 30.7747 1.96397 30.7097 1.85004 30.6934C1.72853 30.6772 1.67536 30.5797 1.69055 30.466C1.70574 30.3603 1.78169 30.2953 1.89561 30.3116C2.01713 30.3278 2.10068 30.271 2.17663 30.1816C2.26777 30.0679 2.35131 29.946 2.44245 29.8323C2.58676 29.6454 2.75384 29.4829 2.98929 29.4504C3.00448 29.4504 3.03486 29.4342 3.03486 29.4179C3.05005 29.3204 3.08802 29.2148 3.07283 29.1254C3.03486 28.9142 3.01967 28.7111 3.07283 28.508C3.18676 28.0287 3.53612 27.7118 3.90828 27.6875C3.96904 27.6875 4.0298 27.655 4.09056 27.6225C4.26524 27.5331 4.44752 27.5006 4.63739 27.5656C4.81208 27.6306 4.98676 27.6793 5.16144 27.7362C5.28296 27.7768 5.28296 27.7687 5.32094 27.6387C5.70828 26.1601 6.09562 24.6815 6.49056 23.2029C6.50575 23.146 6.51334 23.0891 6.52853 23.0404C6.38423 23.1541 6.25512 23.276 6.126 23.406C4.54625 24.9415 2.9665 26.4688 1.38675 28.0043C1.09814 28.2887 0.809537 28.5649 0.520928 28.8411C0.490549 28.8736 0.429789 28.8898 0.384219 28.8817C0.361434 28.8817 0.331055 28.8086 0.331055 28.7599C0.331055 28.443 0.346245 28.1343 0.361435 27.8256C0.38422 27.2244 0.414599 26.6151 0.437384 26.0139C0.452573 25.632 0.467764 25.2502 0.475359 24.8683C0.498144 24.2265 0.528524 23.5847 0.551309 22.9429C0.566499 22.5935 0.574093 22.2442 0.589283 21.903C0.612068 21.2855 0.642448 20.6681 0.665233 20.0507C0.680423 19.6769 0.688017 19.3113 0.703207 18.9376C0.725992 18.2958 0.756372 17.6621 0.779157 17.0203C0.794347 16.6628 0.801941 16.3135 0.817131 15.956C0.839916 15.3548 0.870296 14.7536 0.893081 14.1525C0.908271 13.7706 0.915867 13.3806 0.931056 12.9988C0.953841 12.3489 0.98422 11.7071 1.007 11.0571C1.02219 10.7159 1.02979 10.3665 1.04498 10.0253C1.06777 9.40789 1.09815 8.79044 1.12093 8.173C1.13612 7.80741 1.17409 7.44994 1.27283 7.10872C1.4703 6.45878 1.84245 5.9957 2.48802 5.83321C2.89815 5.7276 3.31587 5.7601 3.726 5.85759C4.50068 6.03632 5.21461 6.37754 5.89056 6.81625C6.82474 7.42557 7.83486 7.72617 8.92094 7.75866C8.99689 7.75866 9.05006 7.73429 9.08803 7.6693C9.20955 7.45806 9.34626 7.25496 9.46778 7.0356C10.2121 5.73572 10.6222 4.33835 10.607 2.80287C10.607 2.28292 10.3944 1.8767 10.0222 1.56798C9.74879 1.3405 9.48297 1.3405 9.20196 1.55173C9.05006 1.66547 8.93613 1.61673 8.91335 1.41362C8.87537 1.1049 8.93613 0.82055 9.04246 0.544325C9.11082 0.373716 9.23234 0.251852 9.39943 0.194982C9.51335 0.162485 9.63487 0.129988 9.74879 0.121864C10.1437 0.0893669 10.5311 0.162485 10.9184 0.251852C10.9792 0.268101 11.0096 0.259976 11.0399 0.194982C11.0855 0.0812425 11.1691 0 11.283 0C11.4425 0 11.6096 -1.49012e-08 11.7691 0.0162485C12.2551 0.0731183 12.7108 0.219355 13.1665 0.406213C13.5842 0.584946 13.8349 0.909916 13.964 1.36487C14.1159 1.88483 14.1615 2.42915 14.1766 2.96535C14.1842 3.27407 14.1691 3.59092 14.1615 3.90777C14.1539 4.63895 14.2298 5.36201 14.3817 6.07694C14.4956 6.62939 14.6551 7.16559 14.8982 7.6693C14.9361 7.74241 14.9741 7.77491 15.0501 7.76679C15.3159 7.74241 15.5893 7.73429 15.8551 7.70179C16.6754 7.57993 17.4425 7.28746 18.1488 6.82437C18.6729 6.48315 19.2273 6.20693 19.8121 6.00382C20.321 5.83321 20.8298 5.7276 21.3615 5.80072C21.9691 5.89008 22.3944 6.2313 22.6526 6.82437C22.8121 7.19809 22.8805 7.59618 22.9032 8.00239C22.9336 8.54671 22.9488 9.09104 22.964 9.63536C22.9792 10.0172 22.9944 10.399 23.0096 10.7809C23.0324 11.3821 23.0551 11.9752 23.0855 12.5763C23.1007 12.9663 23.1159 13.3563 23.1311 13.7462C23.1615 14.5018 23.1919 15.2573 23.2222 16.021C23.2374 16.411 23.2526 16.8091 23.2678 17.199C23.2982 17.9465 23.3286 18.702 23.3589 19.4495C23.3741 19.8476 23.3893 20.2456 23.4045 20.6519C23.4349 21.3993 23.4653 22.1467 23.4957 22.8941C23.5108 23.2922 23.526 23.6903 23.5412 24.0965C23.5716 24.8033 23.602 25.5102 23.6324 26.2251C23.6476 26.6557 23.6627 27.0863 23.6779 27.5168C23.6855 27.7281 23.7007 27.9474 23.7083 28.1587C23.7159 28.3699 23.7235 28.5811 23.7235 28.7924C23.7235 28.833 23.7007 28.8898 23.6703 28.898C23.64 28.9142 23.5868 28.898 23.5564 28.8736C23.4957 28.833 23.4501 28.7761 23.3969 28.7192C23.002 28.3293 22.6146 27.9393 22.2197 27.5493C20.9665 26.3063 19.7134 25.0552 18.4602 23.8122C18.1792 23.5278 17.8754 23.2679 17.5868 22.9998C17.564 22.9754 17.5336 22.9591 17.488 22.9266C17.4956 22.9835 17.5032 23.016 17.5108 23.0404C17.921 24.5921 18.3235 26.1357 18.7336 27.6875C18.7564 27.7606 18.7868 27.7768 18.8475 27.7606C19.0374 27.6956 19.2273 27.6468 19.4172 27.5737C19.5994 27.5087 19.7741 27.5412 19.9412 27.6306C20.0096 27.6631 20.0855 27.6956 20.1615 27.7037C20.3286 27.7281 20.4805 27.7849 20.602 27.9068C20.9437 28.2318 21.0577 28.6299 20.9589 29.1011C20.9362 29.2148 20.9741 29.3123 20.9893 29.4179C20.9893 29.4342 21.0273 29.4585 21.0501 29.4585C21.2627 29.491 21.4146 29.6292 21.5513 29.7916C21.6501 29.9135 21.7412 30.0354 21.84 30.1654C21.9235 30.271 22.0146 30.336 22.1589 30.3197C22.2881 30.3035 22.3716 30.4172 22.3488 30.5553C22.3336 30.6366 22.2805 30.6934 22.2045 30.7016C22.083 30.7097 22.0374 30.7909 22.0146 30.9047C21.9919 30.994 21.9767 31.0834 21.9539 31.1646C21.8855 31.4409 21.7792 31.6927 21.5438 31.8471C21.4374 31.9121 21.4146 31.9933 21.407 32.1152C21.3994 32.6189 21.1716 32.9439 20.7235 33.082C20.3741 33.1876 20.0248 33.2851 19.6754 33.3501C19.1513 33.4557 18.6197 33.545 18.0956 33.6263C17.7235 33.6832 17.3437 33.7238 16.964 33.7644C16.607 33.805 16.2501 33.8294 15.8931 33.8538C15.3387 33.8944 14.7918 33.9269 14.2374 33.9513C13.8045 33.9675 13.3716 33.9756 12.9387 33.9838C12.9007 33.9838 12.8627 34 12.8247 34L12.8096 33.9919ZM21.0577 7.73429C21.0805 8.19737 21.0956 8.64421 21.1184 9.09104C21.1336 9.481 21.1488 9.87097 21.164 10.2609C21.1944 11.0002 21.2248 11.7314 21.2551 12.4707C21.2703 12.8363 21.2855 13.21 21.3007 13.5756C21.3311 14.2987 21.3615 15.0299 21.3919 15.7529C21.407 16.1266 21.4222 16.5004 21.4374 16.8822C21.4678 17.6053 21.4982 18.3283 21.5286 19.0514C21.5438 19.4332 21.5589 19.8069 21.5741 20.1888C21.5969 20.7168 21.6197 21.253 21.6425 21.7811C21.6577 22.1873 21.6729 22.6017 21.6881 23.0079C21.7184 23.6903 21.7488 24.3646 21.7792 25.0471C21.802 25.6158 21.8248 26.1845 21.8475 26.7532C21.8475 26.81 21.8475 26.8832 21.8779 26.9157C21.9994 27.0538 22.1286 27.1756 22.2577 27.3056C22.2805 27.2406 22.2805 27.1919 22.2805 27.1431C22.2577 26.5338 22.2273 25.9245 22.2045 25.3233C22.1893 24.9496 22.1741 24.584 22.1589 24.2103C22.1362 23.6091 22.1134 23.0079 22.083 22.4067C22.0678 22.033 22.0526 21.6593 22.0374 21.2774C22.0146 20.6762 21.9919 20.075 21.9615 19.4738C21.9463 19.092 21.9311 18.7183 21.9159 18.3364C21.8855 17.5809 21.8551 16.8253 21.8248 16.0616C21.8096 15.6798 21.7944 15.298 21.7792 14.9161C21.7564 14.3637 21.7336 13.8031 21.7108 13.2507C21.6957 12.8282 21.6805 12.4139 21.6653 11.9914C21.6349 11.2846 21.6045 10.5859 21.5741 9.87909C21.5589 9.44851 21.5438 9.02605 21.5286 8.59546C21.521 8.38423 21.5058 8.173 21.4982 7.96177C21.4982 7.78304 21.4982 7.61243 21.4982 7.42557C21.9159 7.55556 22.3032 7.76679 22.6906 8.04301C22.6906 7.72616 22.6374 7.44182 22.5539 7.16559C22.3944 6.61314 22.083 6.20693 21.5362 6.04444C21.1108 5.92258 20.6931 5.9632 20.2754 6.06882C19.607 6.2313 18.9843 6.50753 18.407 6.88124C17.4804 7.49056 16.4931 7.8724 15.407 7.94552C15.3007 7.94552 15.1944 7.96177 15.0804 7.96989C15.0804 7.97802 15.0729 7.98614 15.0653 7.99427C15.1336 8.06738 15.202 8.14863 15.2779 8.21362C15.3463 8.26237 15.3311 8.31111 15.3159 8.38423C15.3007 8.46547 15.2475 8.44922 15.202 8.4411C14.9285 8.39235 14.6551 8.33548 14.3817 8.27861C14.2982 8.26237 14.2146 8.22174 14.1159 8.19737C14.1387 8.36798 14.245 8.53047 14.1235 8.69295C13.5615 8.64421 13.083 8.40048 12.6425 8.00239C12.4222 8.25424 12.202 8.50609 11.9817 8.76607C11.7615 8.52234 11.5412 8.27049 11.3134 8.01864C10.8956 8.40048 10.4475 8.71732 9.93867 8.96105C10.007 8.63608 10.0754 8.33548 10.1437 8.01051C9.60449 8.30299 9.09563 8.56296 8.48803 8.53047C8.62474 8.34361 8.74626 8.173 8.88297 7.98614C8.8374 7.98614 8.82221 7.97802 8.80702 7.96989C8.59436 7.95364 8.3893 7.9374 8.17664 7.91302C7.38676 7.80741 6.64246 7.53931 5.95891 7.10872C5.47284 6.80812 4.97916 6.51565 4.44752 6.31254C3.88549 6.09319 3.30828 5.92258 2.70068 6.01195C2.34372 6.06069 2.02473 6.21505 1.78929 6.51565C1.50068 6.88124 1.39435 7.31995 1.34118 7.78303C1.33359 7.8724 1.32599 7.95364 1.3184 8.06738C1.70574 7.78304 2.09308 7.5718 2.52599 7.44182C2.52599 7.50681 2.52599 7.54743 2.52599 7.59618C2.5108 7.97802 2.48802 8.35986 2.47283 8.7417C2.44245 9.38351 2.41967 10.0335 2.39688 10.6834C2.3741 11.3415 2.34372 11.9995 2.32093 12.6657C2.29815 13.3075 2.26777 13.9493 2.24498 14.5912C2.2222 15.2492 2.19182 15.9073 2.16903 16.5735C2.14625 17.2153 2.11587 17.8571 2.09308 18.4989C2.0703 19.157 2.03992 19.8151 2.01713 20.4812C1.99435 20.9606 1.97916 21.4399 1.95637 21.9192C1.93359 22.5854 1.90321 23.2435 1.88043 23.9097C1.85764 24.389 1.84245 24.8602 1.81967 25.3395C1.79688 25.9895 1.7665 26.6394 1.74372 27.2894C1.74372 27.3137 1.74372 27.3462 1.75131 27.395C1.88043 27.2731 1.99435 27.1675 2.10068 27.0538C2.13865 27.0131 2.17663 26.94 2.17663 26.8832C2.19941 26.4769 2.20701 26.0789 2.2222 25.6726C2.23739 25.3314 2.24498 24.9902 2.26017 24.649C2.28296 24.0559 2.31334 23.4628 2.33612 22.8698C2.35131 22.5204 2.3665 22.1711 2.3741 21.8136C2.39688 21.2206 2.42726 20.6275 2.45005 20.0344C2.46524 19.6851 2.47283 19.3438 2.48802 18.9945C2.51081 18.3933 2.54119 17.784 2.56397 17.1828C2.57916 16.8416 2.59435 16.5004 2.60194 16.1591C2.62473 15.5579 2.65511 14.9486 2.67789 14.3474C2.69308 14.0062 2.70068 13.665 2.71587 13.3238C2.73865 12.747 2.76903 12.1701 2.79182 11.5933C2.80701 11.2277 2.8146 10.8621 2.82979 10.4965C2.86017 9.72473 2.89055 8.95293 2.92853 8.18112C2.92853 8.04301 2.94372 7.91302 2.95131 7.76679C2.9741 7.78303 2.98169 7.78304 2.98929 7.79116C3.34625 8.12425 3.71081 8.45735 4.06777 8.79857C4.09815 8.83106 4.12093 8.89606 4.12093 8.93668C4.10574 9.39976 4.08296 9.86284 4.06777 10.3259C4.03739 11.0002 4.01461 11.6746 3.98423 12.3489C3.96904 12.8201 3.94625 13.2913 3.93106 13.7625C3.90828 14.4287 3.8779 15.0949 3.85511 15.7611C3.83233 16.2404 3.81714 16.7197 3.79435 17.199C3.77157 17.8652 3.74119 18.5314 3.7184 19.1976C3.69562 19.8394 3.66524 20.4812 3.64245 21.1231C3.61207 21.8786 3.58929 22.6342 3.55891 23.3979C3.55891 23.5847 3.54372 23.7634 3.53612 23.9503C3.51334 24.5027 3.49055 25.0552 3.46777 25.6076C3.46777 25.6239 3.46777 25.6483 3.48296 25.6808C3.62726 25.5427 3.76397 25.4045 3.90068 25.2827C3.99182 25.2014 4.0298 25.1039 4.0298 24.974C4.0298 24.6002 4.05258 24.2265 4.06777 23.8609C4.09056 23.276 4.12094 22.691 4.14372 22.098C4.15891 21.7486 4.1741 21.4074 4.18169 21.0581C4.20448 20.4731 4.23486 19.8882 4.25764 19.3114C4.27283 18.962 4.28043 18.6208 4.29562 18.2714C4.3184 17.6703 4.34878 17.0691 4.37157 16.4679C4.38676 16.1348 4.39435 15.8017 4.40954 15.4686C4.43233 14.8755 4.46271 14.2906 4.48549 13.6975C4.50068 13.3563 4.50828 13.0069 4.52347 12.6657C4.55385 11.9589 4.58423 11.2602 4.61461 10.5534C4.6298 10.1797 4.64499 9.80597 4.66018 9.42413C4.66018 9.39976 4.66777 9.37539 4.67537 9.35102C4.69056 9.35102 4.69815 9.35102 4.70575 9.35102C4.98676 9.59474 5.26777 9.83847 5.54119 10.0903C5.57157 10.1147 5.58676 10.1797 5.58676 10.2284C5.57157 10.6671 5.54879 11.114 5.5336 11.5527C5.50322 12.2595 5.48043 12.9663 5.45765 13.6812C5.43486 14.2093 5.41967 14.7293 5.39689 15.2573C5.3741 15.9642 5.34372 16.671 5.32094 17.3859C5.29815 17.9059 5.28296 18.4258 5.26018 18.9458C5.23739 19.6607 5.20701 20.3675 5.18423 21.0824C5.16144 21.7161 5.14625 22.3579 5.12347 22.9916C5.11587 23.211 5.10068 23.4385 5.09309 23.6578C5.09309 23.8041 5.09309 23.9503 5.09309 24.1128C5.11587 24.0965 5.13106 24.0884 5.13866 24.0803C5.28296 23.9422 5.43486 23.7959 5.57916 23.6497C5.60954 23.6172 5.62473 23.5685 5.62473 23.5197C5.63233 23.3085 5.63992 23.1054 5.64752 22.8941C5.6703 22.3011 5.70069 21.7161 5.72347 21.1231C5.73866 20.7493 5.75385 20.3756 5.76144 19.9938C5.78423 19.3682 5.81461 18.7345 5.83739 18.109C5.85258 17.7677 5.86018 17.4184 5.87537 17.0772C5.89815 16.4841 5.92853 15.891 5.95132 15.298C5.96651 14.9243 5.9741 14.5505 5.98929 14.1849C6.01967 13.4619 6.05005 12.7307 6.08043 12.0076C6.09562 11.6014 6.11081 11.2033 6.126 10.7971C6.126 10.6834 6.14119 10.5697 6.14879 10.4478C6.40701 10.5697 6.65005 10.6834 6.90069 10.8053C6.91588 10.7484 6.92347 10.7159 6.93107 10.6834C7.34879 10.789 7.76651 10.7403 8.17664 10.6671C8.99689 10.529 9.80196 10.3097 10.5842 10.001C11.0171 9.83035 11.4349 9.64349 11.807 9.34289C11.8906 9.2779 11.9665 9.18853 12.0501 9.10729C12.1944 9.32664 12.3842 9.481 12.5969 9.61099C13.0906 9.92784 13.6298 10.1228 14.1842 10.2934C14.807 10.4884 15.4374 10.6346 16.0754 10.6996C16.3564 10.7321 16.6374 10.7078 16.9184 10.6996C16.9944 10.6996 17.0627 10.6671 17.0855 10.7971C17.3361 10.6753 17.5792 10.5615 17.8374 10.4397C17.8374 10.5615 17.8526 10.6671 17.8602 10.7646C17.8754 11.179 17.8906 11.6014 17.9058 12.0158C17.9286 12.6088 17.9513 13.2019 17.9817 13.795C17.9969 14.1687 18.0121 14.5424 18.0273 14.9243C18.0577 15.6798 18.0881 16.4272 18.1184 17.1828C18.1336 17.5646 18.1488 17.9465 18.164 18.3283C18.1868 18.8726 18.2096 19.4088 18.2324 19.9532C18.2475 20.3756 18.2627 20.79 18.2779 21.2124C18.3083 21.9355 18.3387 22.6585 18.3691 23.3816C18.3691 23.4303 18.3994 23.4872 18.4298 23.5278C18.5589 23.666 18.688 23.7878 18.8248 23.9178C18.8475 23.9422 18.8703 23.9584 18.9159 23.999C18.9083 23.7797 18.8931 23.5847 18.8931 23.3979C18.8703 22.8779 18.8551 22.3579 18.8324 21.838C18.8096 21.1231 18.7792 20.4163 18.7564 19.7013C18.7336 19.1814 18.7184 18.6614 18.6956 18.1415C18.6729 17.4346 18.6425 16.7278 18.6197 16.0129C18.5969 15.4848 18.5817 14.9649 18.5589 14.4368C18.5361 13.73 18.5058 13.0232 18.483 12.3082C18.4678 11.8452 18.4526 11.3821 18.4374 10.919C18.4298 10.6915 18.4146 10.464 18.3994 10.2284C18.3994 10.1553 18.4146 10.0984 18.4678 10.0578C18.6577 9.89534 18.8475 9.73286 19.0374 9.56225C19.1286 9.481 19.2197 9.39976 19.3184 9.31852C19.326 9.48913 19.3412 9.63537 19.3412 9.78973C19.3716 10.4153 19.3944 11.0409 19.4172 11.6664C19.4399 12.2839 19.4703 12.9013 19.4931 13.5188C19.5235 14.3068 19.5615 15.0867 19.5918 15.8748C19.6146 16.4922 19.645 17.1016 19.6678 17.719C19.6982 18.507 19.7362 19.287 19.7665 20.075C19.7893 20.53 19.8045 20.9931 19.8273 21.448C19.8501 22.0736 19.8805 22.7073 19.9032 23.3329C19.926 23.8772 19.9412 24.4215 19.964 24.9658C19.964 25.0227 19.9944 25.0877 20.0324 25.1283C20.1615 25.2664 20.2982 25.3964 20.4349 25.5264C20.4577 25.5427 20.4805 25.5589 20.5184 25.5914C20.5184 25.5183 20.5184 25.4695 20.5184 25.4208C20.5032 24.9658 20.4805 24.5109 20.4653 24.0559C20.4501 23.6903 20.4349 23.3166 20.4197 22.951C20.3969 22.3661 20.3741 21.7811 20.3437 21.2043C20.3286 20.8062 20.3134 20.4162 20.2982 20.0182C20.2754 19.417 20.2526 18.8158 20.2222 18.2146C20.207 17.8327 20.1919 17.4509 20.1767 17.0691C20.1539 16.476 20.1311 15.891 20.1007 15.298C20.0855 14.908 20.0703 14.518 20.0551 14.1281C20.0248 13.3644 19.9944 12.5926 19.964 11.8289C19.9488 11.4471 19.9336 11.0652 19.9184 10.6834C19.8956 10.0984 19.8653 9.5135 19.8501 8.93668C19.8501 8.88793 19.8805 8.82294 19.9184 8.79044C20.0779 8.63608 20.245 8.48984 20.4045 8.34361C20.6096 8.15675 20.807 7.96177 21.0273 7.75866L21.0577 7.73429ZM12.0121 33.5532C12.0121 33.5532 12.0121 33.5857 12.0121 33.5938C12.8703 33.5694 13.721 33.545 14.5792 33.5125C15.1336 33.4882 15.6804 33.4557 16.2349 33.4069C16.7817 33.3582 17.3361 33.3176 17.883 33.2363C18.5589 33.1307 19.2349 33.0007 19.9108 32.8626C20.1463 32.8139 20.3741 32.7489 20.6096 32.6758C20.8754 32.5945 21.0045 32.432 21.0197 32.172C21.0273 32.0502 21.0349 31.9283 21.0349 31.8065C21.0349 31.6927 21.0805 31.6115 21.1792 31.579C21.3691 31.5059 21.483 31.3677 21.5438 31.1646C21.5893 31.0022 21.6273 30.8397 21.6729 30.6772C21.6956 30.6041 21.6881 30.5634 21.6349 30.5147C21.5741 30.4578 21.521 30.3847 21.4602 30.3197C21.3615 30.1979 21.2779 30.076 21.1716 29.9622C21.0881 29.8729 20.9893 29.816 20.8678 29.8404C20.6931 29.8648 20.6248 29.7998 20.6172 29.621C20.5944 29.2311 20.4577 29.0361 20.1311 28.9223C19.9716 28.8655 19.8121 28.8898 19.645 28.9223C18.8551 29.1173 18.0653 29.2879 17.2678 29.4748C17.2298 29.4829 17.1842 29.5073 17.1615 29.5479C17.0779 29.6779 17.0096 29.8241 16.926 29.9541C16.8349 30.1004 16.7513 30.2385 16.7513 30.4172C16.7513 30.4497 16.6982 30.5066 16.6678 30.5147C16.607 30.5309 16.5767 30.4822 16.5767 30.4172C16.5767 30.2547 16.5007 30.1247 16.3944 30.0191C16.3032 29.9298 16.2197 29.8241 16.1286 29.7266C16.1058 29.7023 16.0602 29.686 16.0298 29.686C15.5437 29.7185 15.0501 29.7591 14.564 29.7835C14.1615 29.7998 13.7665 29.7916 13.3716 29.7266C13.3412 29.7266 13.2956 29.751 13.2729 29.7754C13.2121 29.8404 13.1589 29.9135 13.0906 29.9785C12.9994 30.0597 12.8931 30.1166 12.8096 30.206C12.7412 30.2791 12.688 30.3847 12.6349 30.4741C12.6121 30.5147 12.5817 30.5797 12.5589 30.5797C12.5209 30.5797 12.4602 30.5391 12.4374 30.5066C12.3539 30.3116 12.2627 30.1085 12.202 29.9054C12.1412 29.6941 12.1488 29.6941 11.9361 29.6941C11.8754 29.6941 11.845 29.7104 11.8374 29.7835C11.7994 30.0435 11.7235 30.2953 11.5792 30.5147C11.5564 30.5553 11.4956 30.5797 11.4577 30.5797C11.4349 30.5797 11.4121 30.5147 11.3893 30.4741C11.3513 30.4091 11.3285 30.3278 11.2754 30.271C11.1842 30.1816 11.0779 30.1085 10.9868 30.0272C10.9108 29.9541 10.8273 29.8891 10.7665 29.7998C10.7209 29.7348 10.6906 29.7266 10.6222 29.7348C10.4323 29.7591 10.2349 29.7835 10.045 29.7916C9.36145 29.816 8.67791 29.7916 7.99436 29.6941C7.95638 29.6941 7.91082 29.7185 7.88044 29.7429C7.81208 29.8079 7.75892 29.8891 7.69056 29.9541C7.55385 30.076 7.44752 30.2141 7.43993 30.4172C7.43993 30.4822 7.40955 30.5391 7.34119 30.5147C7.30322 30.4984 7.25765 30.4416 7.25005 30.401C7.25005 30.2303 7.1741 30.1004 7.09056 29.9622C7.00702 29.8241 6.93107 29.6779 6.84752 29.5398C6.82474 29.5073 6.78676 29.4829 6.74879 29.4748C5.98929 29.2961 5.2298 29.1255 4.4703 28.9548C4.31081 28.9223 4.15891 28.8411 3.98423 28.8898C3.64245 28.9873 3.48296 29.1255 3.4222 29.4423C3.40701 29.5154 3.40701 29.5967 3.39942 29.6698C3.38423 29.7916 3.29309 29.8648 3.17916 29.8404C3.07283 29.816 2.98169 29.8404 2.90574 29.9135C2.84498 29.9704 2.78422 30.0272 2.73106 30.0922C2.60194 30.2385 2.48043 30.3928 2.35891 30.5472C2.34372 30.5634 2.33612 30.6041 2.34372 30.6284C2.38169 30.7909 2.42726 30.9453 2.46524 31.1078C2.52599 31.3352 2.63992 31.5059 2.86017 31.5871C2.95131 31.6196 2.99688 31.6927 2.99688 31.7902C2.99688 31.8958 2.99688 32.0096 3.01207 32.1152C3.02726 32.3751 3.126 32.562 3.36144 32.6433C3.46017 32.6758 3.5665 32.7082 3.67283 32.7407C4.57663 33.0007 5.48803 33.1632 6.41461 33.2688C7.01461 33.3338 7.60702 33.4069 8.20702 33.4476C8.86778 33.4963 9.53613 33.5369 10.2045 33.5532C10.8121 33.5694 11.4121 33.5532 12.0197 33.5532H12.0121ZM8.89816 8.27861C8.89816 8.27861 8.92854 8.28674 8.93613 8.28674C9.38424 8.18925 9.78677 7.97802 10.1817 7.74241C10.1969 7.73429 10.2121 7.71804 10.2197 7.70179C10.3412 7.48244 10.4779 7.26308 10.569 7.02748C10.8425 6.35317 10.9868 5.63823 11.1159 4.91517C11.169 4.6227 11.2146 4.3221 11.2678 4.01338C11.3285 4.01338 11.3893 4.02963 11.4501 4.03775C11.4501 4.06213 11.4501 4.07025 11.4501 4.0865C11.3361 4.90705 11.1918 5.71135 10.964 6.50753C10.8425 6.92999 10.6982 7.34433 10.4703 7.71804C10.4171 7.80741 10.3716 7.91302 10.3412 8.01051C10.288 8.18925 10.2577 8.37611 10.2121 8.59546C10.2728 8.56296 10.3108 8.54671 10.3412 8.52234C10.5766 8.35173 10.8121 8.16488 11.0551 7.99427C11.2146 7.88053 11.3058 7.71804 11.3589 7.53118C11.5032 7.05998 11.5944 6.58065 11.6475 6.09319C11.7235 5.41888 11.7918 4.73644 11.8602 4.054C11.8678 3.96464 11.8906 3.93214 11.9665 3.94839C11.9969 3.94839 12.0197 3.94839 12.0577 3.95651C12.0425 4.14337 12.0425 4.33023 12.0197 4.50896C11.9665 5.02891 11.9134 5.54887 11.845 6.06882C11.769 6.65376 11.6779 7.23871 11.4653 7.79928C11.4577 7.82366 11.4501 7.8724 11.4653 7.89677C11.6323 8.09176 11.7994 8.27861 11.9437 8.43298C12.1412 8.24612 12.3311 8.06738 12.5134 7.88053C12.5285 7.86428 12.5285 7.82366 12.5209 7.79928C12.4982 7.61243 12.4678 7.41744 12.4602 7.23059C12.4374 6.87312 12.4222 6.51565 12.4146 6.15818C12.3994 5.492 12.3918 4.83393 12.3766 4.16774C12.3766 4.10275 12.3918 4.07838 12.4602 4.07025C12.5513 4.07025 12.5665 4.10275 12.5665 4.19211C12.5665 4.76081 12.5817 5.32951 12.5969 5.90633C12.6121 6.45066 12.6425 6.98686 12.6804 7.53118C12.688 7.66117 12.688 7.80741 12.8096 7.9049C13.1285 8.18112 13.4703 8.38423 13.8729 8.46547C13.9868 8.48985 14.0096 8.4736 13.9564 8.35173C13.8804 8.15675 13.7893 7.96989 13.7058 7.78303C13.4855 7.3037 13.364 6.78375 13.2804 6.2638C13.2045 5.77634 13.1437 5.28889 13.083 4.80143C13.0602 4.6227 13.0602 4.43584 13.045 4.24898C13.1134 4.24898 13.1741 4.24898 13.2349 4.24086C13.2425 4.3871 13.2501 4.52521 13.2653 4.6552C13.326 5.30514 13.402 5.95508 13.5387 6.59689C13.6298 7.02748 13.7361 7.44994 13.9564 7.82366C13.9944 7.88865 14.0551 7.95364 14.1159 7.97802C14.3058 8.05114 14.4956 8.11613 14.6931 8.16488C14.7842 8.18925 14.883 8.19737 14.9817 8.21362C14.8678 8.00239 14.7463 7.80741 14.6551 7.6043C14.2374 6.63752 14.0399 5.60574 13.9868 4.54146C13.9488 3.80215 13.964 3.05472 13.9412 2.30729C13.926 1.95795 13.8501 1.62485 13.7437 1.29176C13.6906 1.1374 13.5994 1.0724 13.4627 1.04803C13.1741 0.999283 12.8931 1.02366 12.6121 1.08053C12.3691 1.12927 12.126 1.18614 12.0121 1.47049C11.9969 1.51111 11.9209 1.53548 11.8754 1.53548C11.7615 1.54361 11.7007 1.46237 11.6475 1.373C11.6172 1.31613 11.5944 1.26738 11.5184 1.25114C11.3969 1.22676 11.2678 1.20239 11.1615 1.1374C10.964 1.01553 10.7817 0.869295 10.5994 0.723059C10.4171 0.584946 10.2349 0.454958 9.99943 0.446834C9.8931 0.446834 9.77917 0.446834 9.66525 0.454958C9.30829 0.471207 9.16398 0.601195 9.10322 0.966786C9.08044 1.09677 9.08044 1.23489 9.07284 1.373C9.08803 1.373 9.10322 1.38112 9.11082 1.38925C9.1412 1.35675 9.17158 1.32425 9.19436 1.29176C9.24753 1.21051 9.2931 1.12927 9.35386 1.05615C9.49057 0.885544 9.67284 0.796177 9.8855 0.853047C10.0526 0.901792 10.2197 0.958662 10.364 1.04803C10.7741 1.29988 11.0779 1.68172 11.3285 2.10418C11.3589 2.16105 11.3893 2.2098 11.4273 2.28292C11.3741 2.28292 11.3437 2.26667 11.3209 2.26667C11.1994 2.25854 11.0779 2.23417 10.9564 2.23417C10.8121 2.23417 10.7437 2.33166 10.7665 2.48602C10.7817 2.61601 10.8045 2.75412 10.7969 2.89223C10.7893 3.20908 10.7741 3.53405 10.7437 3.8509C10.6678 4.50896 10.5159 5.15078 10.288 5.76822C9.96145 6.64564 9.49816 7.43369 8.97411 8.18925C8.95132 8.22174 8.93613 8.25424 8.91335 8.28674L8.89816 8.27861ZM12.0501 9.37539C12.0501 9.37539 12.0273 9.38351 12.0197 9.39164C11.7387 9.64349 11.4197 9.8141 11.0855 9.96846C10.3336 10.3097 9.55132 10.5534 8.75385 10.724C8.24499 10.8378 7.73613 10.919 7.21967 10.8946C7.09056 10.8946 7.08296 10.8946 7.09056 11.0327C7.09816 11.3415 7.09816 11.6583 7.12854 11.967C7.17411 12.4464 7.21208 12.9176 7.28803 13.3888C7.4779 14.5587 7.81208 15.6798 8.27537 16.7522C9.12601 18.7102 10.3564 20.3513 11.9437 21.6836C11.9969 21.7243 12.0273 21.7243 12.0804 21.6836C12.2399 21.5374 12.3994 21.3993 12.5589 21.253C13.9184 20.0019 14.9817 18.507 15.7336 16.7603C16.2425 15.5823 16.5994 14.3474 16.7741 13.0638C16.8273 12.6738 16.8729 12.2839 16.9032 11.8858C16.926 11.5771 16.9184 11.2683 16.926 10.9596C16.926 10.8946 16.9108 10.8784 16.8425 10.8784C16.5767 10.8784 16.3184 10.8865 16.0526 10.8621C15.4526 10.7971 14.8678 10.6671 14.2906 10.4884C13.4931 10.2366 12.6956 9.97658 12.0501 9.36726V9.37539ZM9.97664 21.3343C9.93867 21.383 9.91588 21.4074 9.90069 21.4318C9.70322 21.708 9.51335 21.9761 9.30829 22.2523C9.2855 22.2848 9.22474 22.3173 9.18677 22.3092C9.15639 22.3011 9.12601 22.2361 9.11841 22.1873C9.10322 22.1061 9.10322 22.0249 9.09563 21.9355C9.05006 21.4968 9.00449 21.0499 8.96651 20.6112C8.95892 20.5137 8.94373 20.4163 8.92854 20.2944C8.87537 20.3431 8.85259 20.3675 8.82221 20.4C8.49563 20.7331 8.16145 21.0743 7.83487 21.4074C7.73613 21.513 7.68297 21.4968 7.6298 21.3587C7.56904 21.2043 7.51588 21.0499 7.45512 20.8956C7.42474 20.8143 7.39436 20.7412 7.36398 20.66C7.35638 20.66 7.34879 20.66 7.3336 20.66C7.07537 21.6511 6.80955 22.6504 6.55132 23.6416C6.56651 23.6497 6.5817 23.666 6.59689 23.6741C6.61208 23.6416 6.62727 23.601 6.65005 23.5766C6.97664 23.2191 7.30322 22.8535 7.6298 22.4961C7.74373 22.3742 7.80449 22.3904 7.85005 22.5529C7.95638 22.951 8.06271 23.3572 8.16904 23.7553C8.18423 23.8041 8.19942 23.8447 8.21461 23.9097C8.24499 23.8691 8.26778 23.8366 8.29056 23.8041C8.45765 23.5603 8.62474 23.3166 8.79183 23.0729C8.88297 22.9429 8.96651 22.8129 9.05765 22.691C9.08044 22.6585 9.1336 22.6342 9.16398 22.6423C9.19436 22.6423 9.21715 22.6992 9.23993 22.7398C9.24753 22.756 9.24753 22.7723 9.25512 22.7885C9.35386 23.3816 9.45259 23.9665 9.55132 24.5596C9.56651 24.6571 9.5893 24.7546 9.61208 24.8683C9.63487 24.8358 9.65006 24.8277 9.65765 24.8115C9.94626 24.3484 10.2349 23.8853 10.5159 23.4141C10.5387 23.3816 10.5311 23.3166 10.5235 23.276C10.3716 22.6992 10.2121 22.1305 10.0602 21.5536C10.0374 21.4805 10.0222 21.4074 9.99183 21.318L9.97664 21.3343ZM16.683 20.6762C16.683 20.6762 16.6602 20.6762 16.6526 20.6762C16.6374 20.7087 16.6298 20.7331 16.6146 20.7656C16.5387 20.9606 16.4627 21.1637 16.3868 21.3587C16.326 21.513 16.2804 21.5211 16.1665 21.4074C15.8399 21.0743 15.5058 20.7331 15.1792 20.4C15.1488 20.3756 15.126 20.3431 15.0804 20.3025C15.0577 20.4975 15.0425 20.6762 15.0197 20.855C14.9741 21.3018 14.9285 21.7486 14.883 22.1955C14.883 22.2361 14.845 22.3092 14.8146 22.3092C14.7766 22.3092 14.7159 22.2767 14.6855 22.2442C14.488 21.9761 14.2982 21.708 14.1083 21.4399C14.0855 21.4074 14.0627 21.383 14.0247 21.3343C14.0096 21.383 13.9944 21.4155 13.9868 21.4399C13.8197 22.0573 13.6526 22.6748 13.4855 23.2922C13.4703 23.341 13.4855 23.406 13.5083 23.4547C13.7741 23.9016 14.0475 24.3403 14.321 24.779C14.3361 24.8115 14.3589 24.8358 14.3969 24.8765C14.4121 24.7952 14.4197 24.7384 14.4349 24.6896C14.5412 24.0559 14.6475 23.4303 14.7615 22.7967C14.7691 22.7398 14.8146 22.6992 14.845 22.6423C14.8906 22.6748 14.9513 22.6992 14.9817 22.7398C15.2323 23.0973 15.4754 23.4547 15.726 23.8122C15.7488 23.8447 15.7716 23.8691 15.802 23.9178C15.8172 23.8609 15.8323 23.8284 15.8399 23.7959C15.9463 23.3897 16.0526 22.9916 16.1589 22.5854C16.2045 22.3986 16.2729 22.3823 16.3944 22.5204C16.7134 22.8779 17.0399 23.2272 17.3589 23.5847C17.3817 23.6091 17.4045 23.6335 17.4349 23.6578C17.4425 23.6578 17.4501 23.6497 17.4577 23.6416C17.1994 22.6504 16.9412 21.6593 16.6754 20.6762H16.683ZM7.08296 26.4769C7.08296 26.4769 7.09816 26.4769 7.11335 26.4769C7.13613 26.4444 7.15132 26.4119 7.1741 26.3795C7.42474 25.9407 7.66778 25.502 7.91841 25.0714C7.9412 25.0308 7.99436 24.9821 8.03233 24.9902C8.07031 24.9902 8.09309 25.0633 8.12347 25.0958C8.12347 25.0958 8.12347 25.1121 8.13107 25.1283C8.26018 25.5589 8.3893 25.9895 8.52601 26.4119C8.5412 26.4526 8.55639 26.4932 8.57158 26.5419C8.59436 26.5094 8.60955 26.4932 8.61715 26.4769C8.87537 26.0464 9.1412 25.6158 9.39183 25.1771C9.41462 25.1364 9.42221 25.0633 9.41462 25.0146C9.32348 24.454 9.22474 23.8853 9.12601 23.3247C9.11082 23.2272 9.08803 23.1297 9.06525 23.0079C9.02727 23.0566 9.00449 23.081 8.9893 23.1135C8.74626 23.4628 8.50322 23.8203 8.26018 24.1697C8.2298 24.2103 8.16904 24.259 8.13107 24.259C8.09309 24.259 8.05512 24.1859 8.03993 24.1372C7.926 23.7147 7.81208 23.2922 7.70575 22.8698C7.69816 22.8373 7.68297 22.8048 7.66778 22.756C7.64499 22.7804 7.62221 22.7885 7.61461 22.8048C7.24246 23.211 6.87031 23.6172 6.50575 24.0234C6.48296 24.0559 6.46777 24.1209 6.48296 24.1615C6.62727 24.7465 6.77917 25.3233 6.92347 25.9082C6.96904 26.1032 7.02221 26.2982 7.06778 26.4851L7.08296 26.4769ZM15.4374 26.5501C15.4602 26.4932 15.4754 26.4526 15.483 26.4201C15.6197 25.9814 15.7488 25.5508 15.8855 25.1121C15.9007 25.0633 15.9463 24.9902 15.9767 24.9902C16.0222 24.9902 16.0754 25.039 16.1058 25.0877C16.3488 25.5102 16.5918 25.9407 16.8349 26.3713C16.8577 26.4119 16.8805 26.4444 16.9108 26.5013C16.926 26.4444 16.9412 26.4119 16.9488 26.3795C17.1387 25.6401 17.321 24.909 17.5108 24.1697C17.5336 24.0965 17.5184 24.0478 17.4729 23.9909C17.1159 23.601 16.7589 23.2029 16.3944 22.8129C16.3716 22.7885 16.3564 22.7723 16.3184 22.7479C16.3032 22.8048 16.288 22.8373 16.2804 22.8779C16.1665 23.3004 16.0602 23.7228 15.9463 24.1453C15.9311 24.1859 15.8931 24.2509 15.8627 24.259C15.8323 24.259 15.7868 24.2184 15.7488 24.194C15.7412 24.194 15.7336 24.1697 15.726 24.1615C15.4906 23.8122 15.2475 23.471 15.0121 23.1216C14.9893 23.0891 14.9665 23.0648 14.9361 23.0241C14.921 23.0729 14.9134 23.0973 14.9058 23.1297C14.7994 23.7553 14.6931 24.389 14.5868 25.0146C14.5716 25.0958 14.5868 25.1608 14.6248 25.2258C14.8678 25.632 15.1108 26.0382 15.3615 26.4444C15.3842 26.4769 15.407 26.5094 15.4374 26.5582V26.5501ZM16.0222 25.3314C15.9994 25.3883 15.9918 25.4208 15.9842 25.4452C15.8475 25.8839 15.7108 26.3307 15.5741 26.7694C15.5513 26.8344 15.5286 26.9075 15.4526 26.8832C15.4146 26.875 15.3842 26.8263 15.3539 26.7857C15.0956 26.3632 14.845 25.9407 14.5868 25.5183C14.5716 25.4858 14.5488 25.4614 14.5184 25.4208C14.5032 25.4533 14.4956 25.4614 14.4956 25.4695C14.3817 26.0626 14.2602 26.6476 14.1463 27.2406C14.1387 27.2894 14.1387 27.3462 14.1463 27.395C14.207 27.72 14.283 28.0449 14.3437 28.3699C14.3589 28.443 14.3893 28.4674 14.4577 28.4674C14.6703 28.4511 14.8754 28.4349 15.088 28.4268C15.1564 28.4268 15.1944 28.3943 15.2096 28.3293C15.3007 28.0205 15.3994 27.7118 15.4982 27.4031C15.5134 27.3544 15.5665 27.3137 15.5969 27.265C15.6349 27.2975 15.688 27.33 15.7108 27.3787C15.8703 27.655 16.0222 27.9393 16.1741 28.2237C16.2045 28.2724 16.2273 28.3211 16.2956 28.3049C16.364 28.2887 16.4399 28.3049 16.4703 28.183C16.5842 27.7524 16.7058 27.33 16.8273 26.9075C16.8501 26.8344 16.8425 26.7857 16.8045 26.7207C16.5615 26.2901 16.3184 25.8595 16.0678 25.4289C16.0526 25.4045 16.0374 25.3802 16.007 25.3314H16.0222ZM7.99436 25.3314C7.99436 25.3314 7.95638 25.3802 7.9412 25.3964C7.69056 25.8433 7.43233 26.2901 7.1817 26.7369C7.15892 26.7775 7.15892 26.8507 7.1741 26.8994C7.28803 27.33 7.41714 27.7525 7.52347 28.1749C7.55385 28.2887 7.6298 28.2724 7.70575 28.2887C7.77411 28.3049 7.79689 28.2562 7.81968 28.2074C7.97157 27.9231 8.13107 27.6468 8.29056 27.3625C8.31335 27.3219 8.36651 27.2894 8.41208 27.2569C8.44246 27.2975 8.48803 27.3381 8.51082 27.3869C8.60955 27.6956 8.70828 28.0124 8.80702 28.3211C8.82221 28.3618 8.86018 28.4105 8.89056 28.4105C9.11082 28.4349 9.33107 28.443 9.55132 28.4593C9.63487 28.4593 9.65765 28.4268 9.67284 28.3536C9.71841 28.1343 9.77158 27.9149 9.80955 27.6956C9.83993 27.525 9.90069 27.3625 9.86272 27.1756C9.77158 26.7694 9.69563 26.3551 9.61968 25.9489C9.5893 25.7783 9.55132 25.6076 9.50575 25.4045C9.46778 25.4614 9.44499 25.4939 9.42221 25.5264C9.17158 25.9489 8.91335 26.3713 8.66271 26.7857C8.63993 26.8263 8.57917 26.8832 8.54879 26.875C8.51082 26.8669 8.46525 26.8019 8.45006 26.7532C8.31335 26.3307 8.18423 25.9001 8.05512 25.4777C8.03993 25.4289 8.02474 25.3802 8.00196 25.3233L7.99436 25.3314ZM13.364 28.638C13.1741 28.6217 13.0374 28.7192 12.9463 28.8898C12.8855 29.0036 12.9007 29.0442 12.9918 29.1336C13.0754 29.2229 13.1741 29.3042 13.2349 29.4098C13.2804 29.4829 13.3336 29.5235 13.4096 29.5317C13.6298 29.5479 13.8577 29.5885 14.0779 29.5885C14.4501 29.5885 14.8222 29.5885 15.202 29.5642C15.4526 29.556 15.7032 29.5154 15.9463 29.4992C16.0298 29.4992 16.0526 29.4585 16.0526 29.3692C16.045 29.1336 16.1058 28.9142 16.2425 28.7274C16.326 28.6136 16.4323 28.5486 16.5767 28.5486C16.8653 28.5568 17.1387 28.8411 17.1691 29.1823C17.1691 29.2554 17.1994 29.2879 17.2678 29.2717C17.8982 29.1336 18.5286 28.9955 19.1589 28.8492C19.364 28.8005 19.5615 28.7355 19.7589 28.6705C19.8501 28.6461 19.9032 28.5892 19.8729 28.4755C19.8577 28.4186 19.8577 28.3536 19.8729 28.2968C19.9032 28.1343 19.8729 27.9881 19.7893 27.8499C19.7286 27.7524 19.6678 27.7037 19.5615 27.72C19.5235 27.72 19.4779 27.7443 19.4399 27.7525C18.8855 27.9068 18.3387 28.0855 17.7843 28.2074C17.1691 28.3455 16.5539 28.443 15.9311 28.5243C15.4222 28.5892 14.9134 28.6217 14.3969 28.6461C14.0551 28.6624 13.7058 28.6299 13.364 28.6217V28.638ZM9.60449 29.621C9.60449 29.621 9.60449 29.6129 9.60449 29.6048C9.84753 29.5967 10.083 29.5885 10.326 29.5723C10.5311 29.556 10.7437 29.5642 10.8501 29.3123C10.8804 29.2392 10.9716 29.1823 11.0323 29.1336C11.1159 29.0686 11.1235 28.9955 11.0703 28.898C10.9716 28.6949 10.7969 28.6055 10.5766 28.6299C10.4247 28.6461 10.2728 28.6624 10.1209 28.6705C9.38423 28.6949 8.64752 28.638 7.91841 28.5243C7.39436 28.443 6.87031 28.378 6.35385 28.2562C5.75385 28.118 5.16144 27.9312 4.56904 27.7606C4.36397 27.7037 4.30321 27.7281 4.19688 27.9149C4.14372 28.0124 4.11334 28.1099 4.13612 28.2237C4.15131 28.2887 4.15891 28.3618 4.15132 28.4268C4.13613 28.6217 4.12853 28.6217 4.30321 28.6949C4.33359 28.7111 4.37157 28.7192 4.40195 28.7274C5.18423 28.9061 5.96651 29.093 6.74879 29.2717C6.81714 29.2879 6.83993 29.2636 6.84752 29.1904C6.8779 28.898 7.0298 28.6867 7.28803 28.5811C7.49309 28.4918 7.67537 28.5568 7.79689 28.7517C7.91841 28.9386 7.97157 29.1498 7.96398 29.3854C7.96398 29.4585 7.97157 29.491 8.04752 29.4992C8.56398 29.5398 9.08044 29.5804 9.59689 29.621H9.60449ZM12.3994 23.1135C12.3994 23.1135 12.3842 23.1135 12.3766 23.1135C12.3766 23.1541 12.3766 23.1947 12.3766 23.2354C12.3918 23.4628 12.3994 23.6822 12.4146 23.9097C12.4298 24.1697 12.445 24.4215 12.4602 24.6815C12.4906 25.2339 12.5209 25.7945 12.5513 26.347C12.5665 26.6394 12.5741 26.9319 12.6045 27.2244C12.6349 27.5006 12.6273 27.7524 12.4222 27.9637C12.2703 28.118 12.1564 28.313 12.0197 28.4999C11.9893 28.4674 11.9665 28.443 11.9513 28.4105C11.8298 28.248 11.7235 28.0774 11.5944 27.9312C11.4501 27.7606 11.3665 27.59 11.4273 27.3625C11.4349 27.33 11.4273 27.2894 11.4273 27.2569C11.4501 26.8588 11.4653 26.4688 11.488 26.0707C11.5184 25.502 11.5488 24.9333 11.5868 24.3646C11.602 24.0803 11.6247 23.8041 11.6399 23.5197C11.6475 23.3816 11.6551 23.2354 11.6551 23.0973C11.6172 23.1866 11.602 23.2679 11.5944 23.3572C11.5108 23.9747 11.4349 24.5921 11.3513 25.2096C11.2526 25.9489 11.1539 26.6882 11.0627 27.4275C11.0399 27.6143 10.9792 27.7524 10.8273 27.8499C10.7134 27.9231 10.607 28.0205 10.4931 28.1099C10.4551 28.1343 10.4171 28.1668 10.3564 28.2155C10.2273 28.0693 10.0982 27.9312 9.96905 27.7768C9.92348 28.0124 9.87791 28.2318 9.82474 28.4836C10.0678 28.4674 10.288 28.4674 10.5159 28.4349C10.7437 28.4105 10.9488 28.4349 11.1159 28.6217C11.169 28.6786 11.2298 28.7111 11.2982 28.7192C11.5184 28.7517 11.7007 28.8817 11.7691 29.1092C11.8222 29.2879 11.9209 29.3042 12.0577 29.3042C12.0653 29.3042 12.0804 29.3042 12.088 29.3042C12.164 29.3123 12.1944 29.2798 12.2172 29.1986C12.3007 28.9305 12.4678 28.7599 12.7412 28.7192C12.7868 28.7192 12.8475 28.6949 12.8779 28.6624C13.0602 28.4511 13.2804 28.4105 13.5387 28.443C13.7513 28.4755 13.964 28.4755 14.1994 28.4836C14.1463 28.2318 14.1007 28.0124 14.0551 27.7606C13.926 27.8987 13.8121 28.0205 13.6982 28.1424C13.6526 28.1912 13.6222 28.1912 13.5766 28.1505C13.4096 28.0124 13.2349 27.8824 13.0678 27.7443C13.0374 27.72 13.007 27.6793 12.9994 27.6468C12.9539 27.3381 12.9159 27.0294 12.8779 26.7207C12.8172 26.2495 12.7564 25.7783 12.6956 25.3071C12.6349 24.8277 12.5741 24.3565 12.5058 23.8772C12.4754 23.6253 12.4374 23.3735 12.407 23.1216L12.3994 23.1135ZM16.926 13.3319C16.926 13.3319 16.9032 13.3725 16.9032 13.3806C16.8121 13.8031 16.7286 14.2337 16.6298 14.6562C16.5918 14.843 16.5235 15.0217 16.5539 15.2167C16.5691 15.3305 16.5691 15.4523 16.5691 15.5742C16.5842 15.9885 16.5994 16.4029 16.6146 16.8172C16.6374 17.4103 16.6602 18.0115 16.683 18.6045C16.6982 19.0676 16.7134 19.5388 16.7286 20.0019C16.7286 20.0913 16.7437 20.1888 16.7665 20.2781C16.9336 20.92 17.1007 21.5536 17.2678 22.1873C17.2754 22.2198 17.283 22.2442 17.2982 22.2767C17.3134 22.2036 17.321 22.1305 17.3134 22.0655C17.2906 21.5049 17.2678 20.9443 17.2374 20.3919C17.2222 20.0507 17.207 19.7013 17.1918 19.3601C17.1615 18.6614 17.1311 17.9546 17.1007 17.2559C17.0855 16.9066 17.0703 16.5572 17.0551 16.2079C17.0324 15.7042 17.0096 15.1924 16.9868 14.6887C16.9716 14.2987 16.9564 13.9087 16.9412 13.5188C16.9412 13.4619 16.926 13.4131 16.9184 13.3319H16.926ZM6.71841 22.2848C6.71841 22.2848 6.74119 22.228 6.74879 22.1873C6.90069 21.6186 7.05259 21.0499 7.19689 20.4812C7.23486 20.3188 7.28043 20.1481 7.28803 19.9857C7.31841 19.4901 7.326 19.0026 7.34879 18.5071C7.37917 17.6784 7.40195 16.8578 7.43233 16.0292C7.43993 15.8017 7.45512 15.5742 7.46271 15.3386C7.46271 15.168 7.4779 14.9974 7.43233 14.8186C7.35638 14.5424 7.29562 14.2581 7.23486 13.9737C7.18929 13.7706 7.15132 13.5594 7.11335 13.3563C7.09056 13.4538 7.08297 13.5513 7.07537 13.6487C7.04499 14.2418 7.02221 14.8349 6.99942 15.428C6.97664 16.0373 6.94626 16.6466 6.92347 17.2478C6.90069 17.8409 6.87031 18.4258 6.84752 19.0189C6.81714 19.7094 6.79436 20.4081 6.76398 21.0987C6.75638 21.2937 6.74119 21.4887 6.7336 21.6836C6.7336 21.8867 6.7336 22.0817 6.7336 22.2767L6.71841 22.2848ZM16.2501 21.1962C16.2729 21.1393 16.288 21.1068 16.3032 21.0662C16.3868 20.8387 16.4779 20.6194 16.5615 20.3919C16.5767 20.3431 16.5842 20.2781 16.5767 20.2294C16.3184 19.2464 16.0602 18.2633 15.802 17.2884C15.7944 17.2478 15.7792 17.2153 15.764 17.1665C15.7412 17.1909 15.7336 17.199 15.726 17.2153C15.5969 17.4753 15.4678 17.7271 15.3387 17.9871C15.3235 18.0196 15.3083 18.0602 15.3083 18.0927C15.2475 18.7102 15.1868 19.3276 15.126 19.945C15.1184 20.0182 15.1412 20.0669 15.1868 20.1157C15.4222 20.3513 15.6501 20.595 15.8855 20.8306C15.9994 20.9524 16.121 21.0662 16.2577 21.2043L16.2501 21.1962ZM8.26778 17.1665C8.26778 17.1665 8.24499 17.2072 8.2374 17.2234C7.97157 18.2308 7.70575 19.2464 7.43993 20.2538C7.43993 20.2781 7.43233 20.3188 7.43993 20.3431C7.53866 20.595 7.6298 20.8468 7.72854 21.0906C7.73613 21.1149 7.75132 21.1474 7.76651 21.1718C7.7893 21.1556 7.80449 21.1474 7.81208 21.1393C8.16145 20.7818 8.51082 20.4244 8.86018 20.0669C8.88297 20.0425 8.89816 19.9857 8.89056 19.945C8.84499 19.4413 8.79183 18.9458 8.74626 18.4421C8.73107 18.2958 8.74626 18.1415 8.6855 18.0115C8.56398 17.719 8.40449 17.4509 8.25259 17.1503L8.26778 17.1665ZM17.6703 24.4134C17.6703 24.4134 17.6475 24.4459 17.6475 24.454C17.4577 25.1852 17.2754 25.9164 17.0855 26.6476C17.0779 26.68 17.0855 26.7288 17.1083 26.7532C17.3665 27.1513 17.6248 27.5412 17.8906 27.9312C17.9058 27.9556 17.9589 27.9799 17.9969 27.9718C18.1488 27.9393 18.3083 27.8906 18.4602 27.8581C18.5589 27.8418 18.5665 27.7931 18.5437 27.7037C18.2931 26.745 18.0425 25.7864 17.7843 24.8277C17.7463 24.6977 17.7159 24.5596 17.6703 24.4134ZM6.36145 24.4053C6.33866 24.454 6.33106 24.4784 6.32347 24.5027C6.04246 25.5833 5.75385 26.6557 5.47284 27.7362C5.45765 27.8093 5.47284 27.8337 5.54119 27.8499C5.70069 27.8906 5.86018 27.9312 6.01967 27.9799C6.08043 27.9962 6.11081 27.9799 6.14119 27.9312C6.39182 27.5493 6.65005 27.1675 6.90069 26.7775C6.92347 26.7369 6.93866 26.6638 6.92347 26.6151C6.79436 26.0789 6.65765 25.5427 6.52094 25.0065C6.47537 24.8115 6.42221 24.6165 6.36904 24.4053H6.36145ZM14.3513 19.5388C14.1235 19.8151 13.9108 20.075 13.6982 20.335C13.645 20.4 13.645 20.4406 13.6982 20.5137C14.0172 20.9606 14.3361 21.4074 14.6627 21.8542C14.6779 21.8786 14.7007 21.903 14.7387 21.9517C14.7463 21.8867 14.7539 21.8542 14.7615 21.8136C14.7842 21.578 14.807 21.3424 14.8298 21.1068C14.8602 20.7981 14.8906 20.4894 14.9134 20.1888C14.9134 20.1563 14.9134 20.1075 14.8982 20.0913C14.7235 19.9044 14.5412 19.7257 14.3665 19.5388H14.3513ZM9.66525 19.5388C9.50575 19.7013 9.35386 19.8638 9.18677 20.0182C9.11841 20.0832 9.10322 20.1481 9.11082 20.2375C9.15639 20.7006 9.20196 21.1637 9.24753 21.6186C9.25512 21.7161 9.27031 21.8136 9.2855 21.9111H9.30829C9.36904 21.8299 9.4298 21.7486 9.49816 21.6593C9.77917 21.2693 10.0526 20.8793 10.3336 20.4894C10.364 20.4487 10.3944 20.4163 10.3488 20.3675C10.1209 20.0913 9.90069 19.8232 9.66525 19.5307V19.5388ZM13.5007 20.5706C13.2956 20.7818 13.1058 20.9687 12.9159 21.1718C12.8931 21.1881 12.8931 21.2449 12.9007 21.2693C13.0146 21.8299 13.121 22.3823 13.2425 22.9429C13.2577 23.0079 13.3032 23.0648 13.3336 23.1379C13.3564 23.1054 13.364 23.0973 13.364 23.0891C13.5387 22.4473 13.7134 21.8136 13.888 21.1718C13.888 21.1474 13.888 21.1149 13.888 21.0906C13.7665 20.9118 13.645 20.7412 13.5159 20.5625L13.5007 20.5706ZM10.5235 20.5706C10.4096 20.7331 10.3032 20.8875 10.1893 21.0337C10.1437 21.0987 10.1285 21.1556 10.1513 21.2287C10.3184 21.8217 10.4779 22.4229 10.6374 23.016C10.645 23.0485 10.6602 23.081 10.6678 23.1135C10.6754 23.1135 10.6906 23.1135 10.6982 23.1135C10.7285 23.0485 10.7665 22.9916 10.7817 22.9266C10.8956 22.3742 11.0096 21.8217 11.1235 21.2612C11.1235 21.2287 11.1235 21.1881 11.1083 21.1718C10.9184 20.9768 10.7285 20.7818 10.5159 20.5706H10.5235ZM10.6374 23.6741C10.6374 23.6741 10.6146 23.666 10.5994 23.6578C10.5842 23.6741 10.569 23.6984 10.5539 23.7147C10.2653 24.1778 9.97664 24.6409 9.69563 25.1121C9.67284 25.1527 9.66525 25.2177 9.67284 25.2664C9.74879 25.6808 9.83234 26.1032 9.91588 26.5176C9.93107 26.5988 9.95386 26.68 9.96905 26.7613C9.97664 26.7613 9.98424 26.7613 9.99183 26.7613C10.2045 25.7295 10.4171 24.6977 10.6222 23.6741H10.6374ZM14.0323 26.7938C14.0323 26.7938 14.0627 26.7532 14.0627 26.745C14.1615 26.2576 14.2602 25.762 14.3513 25.2664C14.3589 25.2096 14.3513 25.1446 14.3134 25.0958C14.0399 24.6409 13.7589 24.1859 13.4779 23.7391C13.4627 23.7147 13.4399 23.6903 13.4247 23.666C13.4096 23.666 13.402 23.6741 13.3868 23.6822C13.5994 24.714 13.8121 25.7458 14.0247 26.8019L14.0323 26.7938ZM16.6678 30.0191C16.7361 29.9216 16.7969 29.8241 16.8653 29.7348C17.002 29.5642 17.0324 29.3692 16.9792 29.1498C16.9412 28.9711 16.8349 28.8492 16.683 28.7761C16.5463 28.7111 16.4399 28.7436 16.3792 28.8817C16.3184 29.0036 16.2729 29.1417 16.2501 29.2798C16.2197 29.4667 16.2729 29.6292 16.4096 29.7591C16.4931 29.8404 16.5842 29.9298 16.6754 30.0191H16.6678ZM7.36398 30.0191C7.43993 29.9379 7.50828 29.8648 7.58423 29.7998C7.83486 29.5479 7.85765 29.1173 7.6298 28.8411C7.56145 28.7599 7.4779 28.7355 7.37917 28.768C7.02221 28.8817 6.95385 29.3936 7.09816 29.6292C7.1817 29.7591 7.27284 29.8891 7.36398 30.0272V30.0191ZM17.0475 26.9969C17.0475 26.9969 17.0248 26.9969 17.0172 26.9969C16.9032 27.4031 16.7893 27.8093 16.6678 28.2399C17.0323 28.1668 17.3741 28.1018 17.7387 28.0368C17.4956 27.6712 17.2754 27.3381 17.0475 26.9969ZM7.02221 27.005C7.02221 27.005 6.99942 27.005 6.99183 26.9969C6.76398 27.3381 6.53613 27.6793 6.30069 28.0368C6.67284 28.1099 7.00702 28.1749 7.35638 28.2399C7.35638 28.1993 7.35638 28.183 7.34879 28.1668C7.24246 27.7768 7.12853 27.395 7.02221 27.005ZM12.7184 28.9223C12.5437 28.9711 12.445 29.0767 12.407 29.2311C12.3766 29.3692 12.3615 29.5154 12.3615 29.6616C12.3691 29.8566 12.4146 30.0435 12.5058 30.2141C12.6728 30.076 12.8399 29.9379 12.9994 29.8079C13.1513 29.686 13.1513 29.5642 13.0222 29.4179C12.9994 29.3935 12.9691 29.3692 12.9387 29.3448C12.8172 29.2392 12.6956 29.1417 12.7108 28.9305L12.7184 28.9223ZM11.3209 28.9223C11.3285 29.1254 11.207 29.2392 11.0779 29.3448C11.0399 29.3773 11.002 29.4098 10.9716 29.4504C10.8728 29.5804 10.8804 29.6779 11.002 29.7835C11.169 29.9298 11.3437 30.0679 11.526 30.2222C11.564 30.1085 11.602 29.9947 11.6323 29.8729C11.6779 29.6454 11.6931 29.4098 11.602 29.1904C11.5488 29.0605 11.4653 28.9711 11.3134 28.9305L11.3209 28.9223ZM3.26271 28.9873C3.46017 28.8898 3.65764 28.7924 3.85511 28.6867C3.93866 28.638 3.96144 28.5486 3.96144 28.4511C3.96144 28.2643 3.96144 28.0774 3.96144 27.8906C3.54372 27.8337 3.126 28.4511 3.26271 28.9873ZM20.0627 27.8906C20.0627 28.0612 20.0627 28.2318 20.0627 28.4024C20.0627 28.5324 20.0931 28.6461 20.207 28.7111C20.3893 28.8086 20.5792 28.8898 20.7615 28.9873C20.921 28.4836 20.4805 27.8256 20.0627 27.8906ZM14.9134 19.8313C14.9134 19.8313 14.9361 19.8313 14.9437 19.8313C14.9893 19.3845 15.0349 18.9376 15.0729 18.4908C15.0653 18.4908 15.0577 18.4908 15.0501 18.4908C14.8602 18.7833 14.6627 19.0757 14.4653 19.3845C14.6172 19.5388 14.7691 19.6932 14.9134 19.8394V19.8313ZM9.08044 19.8232C9.08044 19.8232 9.09563 19.8232 9.11082 19.8313C9.26272 19.6769 9.40702 19.5307 9.55892 19.3763C9.36145 19.0676 9.16398 18.7752 8.96651 18.4827H8.95132C8.99689 18.9295 9.04246 19.3763 9.08803 19.8151L9.08044 19.8232ZM16.045 28.3293C15.9083 28.0774 15.7868 27.8581 15.6577 27.6306H15.6273C15.5513 27.8824 15.4754 28.1343 15.3918 28.4024C15.6121 28.378 15.8096 28.3536 16.0374 28.3293H16.045ZM8.63234 28.4024C8.54879 28.1262 8.47284 27.8824 8.39689 27.6387C8.3893 27.6387 8.37411 27.6387 8.36651 27.6387C8.24499 27.8581 8.12347 28.0855 7.98676 28.3293C8.20702 28.3536 8.41208 28.378 8.63234 28.4024ZM12.0197 0.983035C12.0197 0.853047 11.9285 0.755556 11.8146 0.747432C11.7083 0.747432 11.602 0.853047 11.5944 0.97491C11.5944 1.09677 11.6855 1.20239 11.807 1.20239C11.9285 1.20239 12.0197 1.11302 12.0197 0.983035Z" fill="#192847"/>
<path d="M18.7792 29.6941C19.1362 29.6941 19.3108 29.8729 19.3564 30.2303C19.3868 30.4335 19.4172 30.6366 19.4551 30.8315C19.4627 30.8884 19.4931 30.9534 19.5159 31.0022C19.607 31.1728 19.721 31.2053 19.8805 31.1078C19.8881 31.1078 19.8956 31.0996 19.9032 31.0915C20.0931 30.9615 20.1691 30.9859 20.2982 31.1809C20.3438 31.254 20.2982 31.2784 20.245 31.2865C19.9868 31.3677 19.7362 31.449 19.4779 31.514C19.2956 31.5627 19.1362 31.6277 19.0146 31.7983C18.8855 31.9771 18.6349 31.9771 18.4754 31.8389C18.407 31.7821 18.3311 31.774 18.2551 31.8065C18.1792 31.8308 18.1792 31.9039 18.1792 31.9689C18.1792 32.1558 18.0729 32.2777 17.9362 32.367C17.8222 32.4401 17.564 32.3264 17.5032 32.1802C17.4425 32.0421 17.3513 31.9852 17.2146 32.0096C17.0931 32.0339 16.964 32.0583 16.8425 32.0827C16.7286 32.0989 16.6602 32.1639 16.6374 32.2939C16.5918 32.5376 16.3032 32.7001 16.0374 32.6514C16.0222 32.6514 16.007 32.627 16.007 32.6189C16.007 32.5945 16.0222 32.5701 16.0374 32.562C16.0906 32.5376 16.1513 32.5295 16.1969 32.497C16.2577 32.4645 16.326 32.4239 16.3792 32.367C16.402 32.3427 16.4096 32.2614 16.3944 32.2289C16.3792 32.1964 16.3184 32.172 16.2805 32.172C16.2121 32.172 16.1361 32.1883 16.0678 32.1964C15.9842 32.1964 15.9387 32.172 15.9387 32.0746C15.9387 32.0583 15.9387 32.0502 15.9387 32.0339C15.9387 31.9364 15.9235 31.8227 15.9615 31.7415C16.0602 31.5709 16.1893 31.4246 16.3716 31.3596C16.4703 31.3271 16.5083 31.3515 16.5311 31.4571C16.5463 31.514 16.5539 31.579 16.5691 31.6358C16.5842 31.6846 16.5994 31.7333 16.6298 31.7658C16.6602 31.7983 16.721 31.8146 16.7589 31.8065C16.7893 31.8065 16.8197 31.7496 16.8349 31.709C16.8501 31.6683 16.8501 31.6196 16.8577 31.579C16.888 31.4002 16.9716 31.254 17.1159 31.1403C17.2602 31.0346 17.2602 30.9778 17.1387 30.8478C17.0703 30.7747 17.0855 30.7016 17.1387 30.6447C17.1918 30.5797 17.2602 30.5309 17.321 30.4822C17.3589 30.5553 17.4197 30.6203 17.4273 30.6934C17.4501 30.9047 17.5108 31.0428 17.7311 31.059C17.8374 31.0671 17.921 31.1565 17.9817 31.2621C18.0045 31.2946 18.0197 31.3352 18.0425 31.3677C18.1564 31.579 18.2931 31.579 18.4146 31.3677C18.4602 31.2946 18.521 31.2296 18.5741 31.1646C18.6653 31.059 18.764 31.0834 18.8627 31.1484C18.9159 31.1809 18.9539 31.2378 19.007 31.2703C19.0602 31.3028 19.1362 31.3352 19.1893 31.3271C19.2956 31.319 19.3184 31.2296 19.2805 31.1159C19.2273 30.929 19.1817 30.7422 19.1437 30.5553C19.1134 30.4253 19.1058 30.2953 19.0602 30.1735C18.9843 29.946 18.8248 29.8891 18.6349 30.0191C18.5893 30.0516 18.5134 30.0841 18.4906 30.0679C18.4222 30.0191 18.3615 29.946 18.3387 29.8648C18.3159 29.7916 18.3843 29.7348 18.4526 29.7266C18.5741 29.7023 18.6956 29.686 18.7716 29.6779L18.7792 29.6941ZM17.564 31.4409C17.564 31.5871 17.6475 31.6927 17.7235 31.6927C17.7918 31.6927 17.8754 31.6277 17.8678 31.5709C17.8678 31.4896 17.7311 31.3596 17.6551 31.3759C17.6172 31.3759 17.5868 31.4246 17.564 31.449V31.4409ZM17.3589 31.644C17.3589 31.5221 17.3134 31.449 17.245 31.449C17.1767 31.449 17.1311 31.5302 17.1311 31.6277C17.1311 31.7333 17.1615 31.7577 17.2602 31.7577C17.3437 31.7577 17.3665 31.7171 17.3589 31.644ZM18.7488 31.4327C18.6653 31.4327 18.6045 31.4815 18.5969 31.5465C18.5969 31.6033 18.6805 31.6846 18.7412 31.6765C18.8096 31.6602 18.8779 31.644 18.8931 31.5546C18.8931 31.4896 18.8324 31.4327 18.7564 31.4327H18.7488ZM16.2425 31.9364C16.3412 31.9283 16.4096 31.9202 16.4096 31.8227C16.4096 31.7577 16.3792 31.709 16.3108 31.709C16.2577 31.709 16.1589 31.8065 16.1741 31.8552C16.1817 31.8958 16.2349 31.9202 16.2501 31.9364H16.2425ZM17.845 32.1152C17.8982 32.0746 17.9361 32.0421 17.9741 32.0096C17.9361 31.9771 17.8982 31.9202 17.8678 31.9283C17.8146 31.9283 17.7691 31.9852 17.7159 32.0177C17.7539 32.0502 17.7918 32.0827 17.845 32.1233V32.1152Z" fill="#192847"/>
<path d="M9.1412 32.7895C9.20196 32.7732 9.23993 32.7651 9.27791 32.757C9.40702 32.757 9.53613 32.7245 9.64246 32.6351C9.81715 32.4808 9.86272 32.2695 9.75639 32.0583C9.7412 32.0339 9.7336 32.0096 9.71841 31.9852C9.61208 31.7983 9.61968 31.7252 9.77158 31.579C9.83993 31.514 9.87791 31.514 9.91588 31.6115C9.96905 31.7333 10.0146 31.8633 10.0602 31.9852C10.0906 32.0746 10.1513 32.1233 10.2425 32.1071C10.3336 32.0908 10.3792 32.0258 10.364 31.9283C10.3564 31.8146 10.3412 31.6927 10.3184 31.5871C10.2956 31.5059 10.2956 31.4409 10.3564 31.3759C10.4171 31.3109 10.4931 31.2865 10.5766 31.3027C10.5994 31.3027 10.6222 31.3434 10.6298 31.3677C10.645 31.4084 10.645 31.449 10.6526 31.4896C10.6678 31.5708 10.7134 31.6277 10.7969 31.6358C10.8501 31.6358 10.9032 31.6521 10.964 31.6602C11.2906 31.6765 11.6096 31.6846 11.9361 31.7008C12.0804 31.7008 12.1184 31.7577 12.1184 31.9121C12.1184 31.9771 12.1184 32.0421 12.1412 32.0989C12.1564 32.1314 12.2096 32.172 12.2475 32.172C12.2779 32.172 12.3311 32.1233 12.3387 32.0827C12.3842 31.8633 12.5134 31.7333 12.7108 31.6846C12.7792 31.6683 12.8399 31.6358 12.9007 31.6115C12.9766 31.579 13.0298 31.6115 13.045 31.6927C13.0754 31.9121 13.0982 32.1233 13.1134 32.3427C13.1134 32.432 13.0678 32.4889 12.9691 32.4889C12.7412 32.4889 12.5058 32.5051 12.2779 32.5051C12.1944 32.5051 12.1336 32.5376 12.126 32.627C12.1032 32.8382 11.9361 32.887 11.7994 32.9601C11.7766 32.9763 11.7235 32.9601 11.7007 32.952C11.5716 32.8789 11.4653 32.7895 11.4273 32.6189C11.4197 32.5783 11.3437 32.5295 11.2906 32.5133C11.1766 32.4889 11.0551 32.4808 10.9336 32.4726C10.7058 32.4564 10.4703 32.4401 10.2425 32.4239C10.1209 32.4158 10.0526 32.4726 10.007 32.5783C9.85512 32.9601 9.42221 32.9438 9.19436 32.8545C9.18677 32.8545 9.17917 32.8382 9.14879 32.8057L9.1412 32.7895ZM11.8602 32.2939C11.8602 32.2452 11.8602 32.2045 11.8602 32.1558C11.8602 32.0177 11.8298 31.9852 11.6931 31.9771C11.6399 31.9771 11.5868 31.9689 11.526 31.9689C11.283 31.9608 11.0399 31.9446 10.7969 31.9364C10.7589 31.9364 10.7134 31.9446 10.6906 31.9689C10.6602 31.9933 10.6222 32.0421 10.6298 32.0746C10.6298 32.1071 10.683 32.1477 10.7134 32.1558C10.8045 32.1802 10.9032 32.1883 11.002 32.1964C11.1842 32.2127 11.3741 32.2127 11.5564 32.2208C11.6551 32.2208 11.6703 32.2533 11.6627 32.3589C11.6627 32.3995 11.6399 32.4483 11.6627 32.4726C11.6931 32.5214 11.7463 32.5864 11.7918 32.5945C11.8602 32.6026 11.8678 32.5295 11.8678 32.4645C11.8678 32.4076 11.8678 32.3508 11.8678 32.2939H11.8602ZM12.7032 32.237C12.7564 32.1883 12.8247 32.1558 12.8323 32.1152C12.8399 32.0664 12.8399 31.9771 12.7564 31.9689C12.6956 31.9689 12.5817 32.0664 12.5969 32.1233C12.6045 32.1639 12.6577 32.1883 12.7032 32.237Z" fill="#192847"/>
<path d="M5.89815 32.1558C5.95891 32.1395 6.01208 32.1314 6.05765 32.1152C6.14119 32.0908 6.22474 32.0746 6.30069 32.0421C6.45258 31.9689 6.54372 31.6358 6.46777 31.4652C6.39182 31.3027 6.41461 31.1728 6.53613 31.0428C6.58929 30.994 6.65005 31.0103 6.66524 31.0915C6.70322 31.2296 6.7336 31.3759 6.74879 31.514C6.76398 31.6196 6.81714 31.6846 6.90069 31.709C6.98423 31.7333 7.08297 31.7415 7.16651 31.7415C7.20448 31.7415 7.25005 31.7171 7.28043 31.6927C7.40195 31.5952 7.39436 31.5059 7.25005 31.4409C7.20448 31.4165 7.15892 31.4084 7.11335 31.3921C7.02221 31.3596 6.99942 31.2784 7.06018 31.2053C7.11335 31.1403 7.1817 31.0915 7.25005 31.059C7.35638 31.0184 7.46271 30.9778 7.50828 30.8559C7.51588 30.8315 7.53866 30.8153 7.55385 30.799C7.6298 30.7178 7.71335 30.6447 7.81968 30.6934C7.92601 30.7422 7.98676 30.8478 7.99436 30.9615C7.99436 31.059 8.04752 31.124 8.10828 31.189C8.16904 31.2459 8.2298 31.3109 8.26778 31.384C8.33613 31.5059 8.29056 31.5871 8.16145 31.6033C8.11588 31.6033 8.0779 31.6033 8.03233 31.6033C7.97157 31.6033 7.91081 31.6196 7.91081 31.709C7.91081 31.7902 7.9412 31.8471 8.02474 31.8633C8.03993 31.8633 8.04752 31.8633 8.06271 31.8633C8.21461 31.8958 8.24499 31.9283 8.24499 32.1071C8.24499 32.1964 8.2298 32.2858 8.35132 32.302C8.41968 32.302 8.46525 32.2858 8.47284 32.2045C8.51841 31.8714 8.55639 31.5384 8.60195 31.2053C8.61714 31.0671 8.63993 30.9209 8.64753 30.7828C8.64753 30.7341 8.62474 30.6853 8.60195 30.6447C8.54879 30.5634 8.56398 30.5147 8.64753 30.4822C8.70069 30.4578 8.75385 30.4172 8.80702 30.3928C8.8374 30.3766 8.87537 30.3766 8.90575 30.3603C8.91335 30.3928 8.93613 30.4335 8.92854 30.466C8.91335 30.6203 8.89056 30.7828 8.86778 30.9372C8.82221 31.3027 8.78423 31.6683 8.73107 32.0258C8.71588 32.1558 8.6855 32.2858 8.63993 32.4076C8.54879 32.6595 8.2298 32.7164 8.0779 32.5051C8.03233 32.4401 8.01715 32.3427 8.00955 32.2533C8.00196 32.1233 8.00196 32.1071 7.88044 32.1071C7.74373 32.1071 7.69056 32.0583 7.66018 31.9121C7.6374 31.8146 7.58423 31.7902 7.50069 31.8389C7.4779 31.8552 7.44752 31.8796 7.43233 31.9121C7.37917 32.0177 7.30322 32.0096 7.21208 31.9933C7.07537 31.9689 6.93866 31.9527 6.79436 31.9364C6.71081 31.9364 6.64246 31.9689 6.58929 32.0502C6.4222 32.3183 6.10322 32.2777 5.91334 32.1883C5.91334 32.1883 5.90575 32.172 5.88296 32.1395L5.89815 32.1558ZM7.4855 31.2865C7.57664 31.4002 7.72094 31.449 7.81968 31.4002C7.85765 31.384 7.90322 31.3677 7.85765 31.3027C7.82727 31.254 7.79689 31.2053 7.7893 31.1565C7.76651 31.0671 7.72854 31.0671 7.67537 31.1159C7.61461 31.1728 7.55385 31.2296 7.49309 31.2865H7.4855Z" fill="#192847"/>
<path d="M5.01714 30.6528C5.13106 30.5878 5.24499 30.5147 5.35891 30.4578C5.41208 30.4335 5.42727 30.4903 5.41967 30.5391C5.3741 30.7422 5.32853 30.9534 5.26777 31.1484C5.24499 31.2378 5.26777 31.2946 5.34372 31.319C5.45005 31.3515 5.55638 31.3759 5.66271 31.4002C5.72347 31.4165 5.77663 31.4002 5.81461 31.3352C5.86018 31.2378 5.89815 31.1403 5.85258 31.0265C5.83739 30.994 5.80701 30.9615 5.80701 30.9372C5.80701 30.9047 5.8222 30.8559 5.85258 30.8478C5.93613 30.799 6.01967 30.7584 6.10322 30.7259C6.1336 30.7097 6.17917 30.7016 6.20195 30.7097C6.22474 30.7259 6.23233 30.7828 6.22474 30.8072C6.16398 31.0671 6.09562 31.3271 6.02727 31.5871C5.99689 31.7008 5.93613 31.7415 5.8298 31.709C5.27537 31.5546 4.72094 31.4002 4.1665 31.2459C4.09815 31.2296 4.0298 31.2215 3.96904 31.189C3.8779 31.1565 3.85511 31.0915 3.88549 30.994C3.96904 30.7097 4.14372 30.5553 4.41714 30.5472C4.50068 30.5472 4.53866 30.5066 4.56144 30.4335C4.61461 30.2547 4.66777 30.0679 4.72094 29.8891C4.73613 29.8241 4.67537 29.751 4.59942 29.7591C4.55385 29.7591 4.51587 29.7916 4.4779 29.8079C4.45511 29.816 4.43992 29.8404 4.42473 29.8485C4.35638 29.8973 4.28043 29.881 4.22726 29.8241C4.20448 29.7998 4.18929 29.7104 4.19688 29.7023C4.25005 29.6698 4.326 29.6129 4.37157 29.6292C4.54625 29.6941 4.69815 29.6454 4.85005 29.5642C4.88803 29.5479 4.9336 29.556 4.97917 29.5479C4.97917 29.5967 5.00195 29.6454 4.98676 29.686C4.926 29.9054 4.86524 30.1166 4.80448 30.3278C4.74372 30.5472 4.67537 30.7665 4.6222 30.9859C4.61461 31.0184 4.63739 31.0834 4.66777 31.1078C4.75891 31.1728 4.86524 31.1971 4.97157 31.1565C4.99435 31.1484 5.01714 31.1321 5.03233 31.1078C5.10828 31.0184 5.11587 30.7665 5.05511 30.6691C5.05511 30.6609 5.04752 30.6447 5.03992 30.6284L5.01714 30.6528ZM4.30321 31.0022C4.34878 30.9453 4.37916 30.9128 4.40954 30.8722C4.38676 30.8559 4.35638 30.8072 4.34878 30.8153C4.30321 30.8397 4.26524 30.8722 4.21967 30.9047C4.24245 30.929 4.26524 30.9534 4.31081 31.0022H4.30321Z" fill="#192847"/>
<path d="M13.7589 30.7747C13.8121 30.7178 13.8804 30.6447 13.9564 30.5797C14.0247 30.5228 14.0779 30.5472 14.0855 30.6366C14.1083 30.8234 14.1235 31.0103 14.1463 31.1971C14.1691 31.449 14.1842 31.6927 14.207 31.9446C14.2222 32.1314 14.3058 32.1883 14.4728 32.1395C14.7007 32.0827 14.7083 32.0583 14.6703 31.8146C14.6551 31.7415 14.6323 31.6765 14.564 31.6358C14.488 31.5952 14.5032 31.5384 14.564 31.4977C14.6172 31.4571 14.6703 31.4165 14.7235 31.384C14.7918 31.3434 14.8526 31.3677 14.8602 31.4571C14.8906 31.6683 14.9134 31.8796 14.9361 32.0827C14.9361 32.1233 14.9513 32.1558 14.9513 32.1964C14.9665 32.2858 14.921 32.3508 14.8298 32.3589C14.4729 32.3995 14.1159 32.4401 13.7589 32.4808C13.721 32.4808 13.683 32.4808 13.645 32.4808C13.4931 32.4808 13.4703 32.4483 13.4931 32.2939C13.4931 32.2533 13.5083 32.2045 13.5083 32.1639C13.5159 31.9364 13.6298 31.7902 13.8197 31.709C13.9184 31.6683 13.9564 31.6115 13.9412 31.5059C13.9184 31.3515 13.9184 31.1971 13.888 31.0509C13.8653 30.9615 13.8045 30.8803 13.7513 30.7828L13.7589 30.7747ZM13.8501 31.9771C13.8197 32.0258 13.7817 32.0664 13.7513 32.1233C13.7513 32.1233 13.8045 32.1964 13.8349 32.1883C13.8804 32.1802 13.964 32.1883 13.9564 32.0908C13.9564 32.0421 13.9488 31.9771 13.8501 31.9771Z" fill="#192847"/>
<path d="M14.9817 32.757C15.0349 32.7245 15.0653 32.7001 15.1032 32.6758C15.2475 32.6108 15.3463 32.5051 15.407 32.3589C15.483 32.1964 15.407 31.9527 15.2551 31.8471C15.126 31.7658 15.126 31.7658 15.202 31.6196C15.2323 31.5546 15.2627 31.4815 15.3007 31.4165C15.3311 31.3515 15.3842 31.3352 15.4222 31.4002C15.5969 31.6927 15.7792 31.9852 15.7108 32.3589C15.6956 32.4401 15.6501 32.5214 15.5969 32.5783C15.4526 32.7489 15.2627 32.8139 15.0425 32.7814C15.0273 32.7814 15.0197 32.7651 14.9817 32.7489V32.757Z" fill="#192847"/>
<path d="M9.21715 30.4578C9.30829 30.5391 9.40702 30.6122 9.49816 30.7016C9.51335 30.7178 9.51335 30.7828 9.49816 30.7828C9.33867 30.864 9.36905 31.0265 9.34626 31.1646C9.30069 31.4896 9.27791 31.8227 9.24753 32.1477C9.23234 32.2777 9.19436 32.3264 9.11082 32.3183C9.03487 32.3183 8.9817 32.2695 8.9893 32.1802C9.01208 31.9771 9.04246 31.7821 9.06525 31.5871C9.10322 31.254 9.1412 30.9209 9.17917 30.5878C9.17917 30.5309 9.20196 30.4822 9.21715 30.4253C9.21715 30.4416 9.21715 30.4497 9.20955 30.466L9.21715 30.4578Z" fill="#192847"/>
<path d="M14.245 32.7651C14.1842 32.8057 14.1235 32.8464 14.0627 32.887C13.9868 32.9357 13.926 32.9357 13.8653 32.8626C13.8273 32.8139 13.8045 32.7651 13.8425 32.7082C13.8956 32.6351 13.9564 32.6026 14.0399 32.6433C14.0779 32.6676 14.1159 32.6839 14.1539 32.7001C14.207 32.7245 14.245 32.7245 14.2906 32.6676C14.3361 32.6026 14.3969 32.5864 14.4729 32.6189C14.5412 32.6514 14.5564 32.7245 14.5412 32.7814C14.526 32.8301 14.4804 32.8789 14.4349 32.8951C14.3665 32.9195 14.2982 32.8951 14.2754 32.7976C14.2754 32.7895 14.2678 32.7814 14.2526 32.757L14.245 32.7651Z" fill="#192847"/>
<path d="M19.7286 31.9364C19.6222 31.9364 19.5615 31.8958 19.5615 31.8065C19.5615 31.7252 19.6754 31.6358 19.7741 31.6358C19.8349 31.6358 19.9032 31.7171 19.9032 31.7902C19.9032 31.8714 19.8273 31.9364 19.7286 31.9364Z" fill="#192847"/>
<path d="M13.5007 31.4734C13.4247 31.4734 13.364 31.4002 13.364 31.3109C13.364 31.2459 13.4475 31.1728 13.5083 31.1728C13.5842 31.1728 13.6678 31.254 13.6602 31.3271C13.6602 31.4084 13.5766 31.4734 13.4931 31.4734H13.5007Z" fill="#192847"/>
<path d="M4.22726 30.3278C4.15132 30.3278 4.09056 30.2628 4.09056 30.1897C4.09056 30.1085 4.1665 30.0191 4.23486 30.0191C4.29562 30.0191 4.39435 30.1166 4.39435 30.1816C4.39435 30.2547 4.30321 30.336 4.23486 30.3278H4.22726Z" fill="#192847"/>
<path d="M13.6222 30.8965C13.6222 30.9778 13.5539 31.0347 13.4627 31.0347C13.3944 31.0347 13.326 30.9615 13.326 30.8965C13.326 30.8315 13.4172 30.7341 13.4703 30.7341C13.5387 30.7341 13.6222 30.8234 13.6222 30.8884V30.8965Z" fill="#192847"/>
<path d="M5.41208 32.1071C5.32094 32.1071 5.26777 32.0583 5.26018 31.9689C5.26018 31.8958 5.31334 31.8389 5.40448 31.8389C5.48043 31.8389 5.55638 31.9039 5.55638 31.9771C5.55638 32.0502 5.49562 32.0989 5.40448 32.1071H5.41208Z" fill="#192847"/>
<path d="M4.25764 31.7658C4.18929 31.7658 4.10574 31.6765 4.12853 31.6277C4.15891 31.5627 4.22726 31.5221 4.28043 31.4734C4.326 31.5302 4.38676 31.579 4.40954 31.6358C4.43233 31.6927 4.33359 31.7658 4.26524 31.7658H4.25764Z" fill="#192847"/>
<path d="M4.72853 31.6277C4.78929 31.6277 4.84245 31.644 4.84245 31.7415C4.84245 31.8308 4.79689 31.8714 4.70575 31.8714C4.6222 31.8714 4.57663 31.8227 4.58423 31.7333C4.58423 31.644 4.6146 31.6196 4.73612 31.6196L4.72853 31.6277Z" fill="#192847"/>
<path d="M12.0121 21.3505C8.99689 18.7102 7.49309 15.3142 7.37917 11.1627C7.59183 11.1627 7.7817 11.1871 7.96398 11.1627C8.42727 11.0896 8.89056 11.0165 9.33867 10.9109C10.0678 10.7403 10.7741 10.4965 11.4425 10.1472C11.6323 10.0497 11.807 9.91971 11.9893 9.80597C12.0197 9.78973 12.0728 9.7816 12.0956 9.80597C12.5361 10.1878 13.0526 10.4072 13.5766 10.6022C14.283 10.8621 15.0045 11.0409 15.7412 11.1465C15.9767 11.179 16.2121 11.1871 16.4475 11.1952C16.5539 11.1952 16.6298 11.2765 16.6222 11.3902C16.607 12.5114 16.4475 13.6081 16.1665 14.6887C15.5665 16.9797 14.4577 18.9458 12.8399 20.5869C12.5741 20.855 12.2931 21.0987 12.0045 21.3749L12.0121 21.3505ZM13.6982 15.103C13.6982 13.6975 13.6982 12.292 13.6982 10.8865C13.6982 10.7971 13.6754 10.7646 13.5918 10.7321C13.1209 10.5615 12.6577 10.3828 12.2551 10.0741C12.0956 9.95221 11.9893 9.95221 11.8222 10.0659C11.3589 10.3747 10.8501 10.5778 10.3336 10.7484C10.2577 10.7728 10.2273 10.8134 10.2273 10.9027C10.2273 13.665 10.2273 16.4191 10.2273 19.1814C10.2273 19.2382 10.2501 19.3114 10.288 19.3601C10.7817 20.0019 11.3361 20.5869 11.9437 21.1068C12.0045 21.1556 12.0349 21.1393 12.088 21.0987C12.6501 20.6112 13.1589 20.075 13.6298 19.4901C13.6754 19.4332 13.6982 19.3682 13.6982 19.2951C13.6982 17.8977 13.6982 16.5085 13.6982 15.1111V15.103Z" fill="#192847"/>
<path d="M15.4146 29.1417C15.2703 29.1417 15.1184 29.1417 14.9741 29.1417C14.9437 29.1417 14.9134 29.1173 14.883 29.1011C14.8982 29.0686 14.9058 29.0198 14.9285 29.0117C14.9969 28.9711 15.0804 28.9386 15.1564 28.9223C15.3918 28.8817 15.6197 28.898 15.8475 28.9955C15.8855 29.0117 15.9083 29.0605 15.9387 29.093C15.9007 29.1092 15.8627 29.1417 15.8248 29.1417C15.688 29.1417 15.5513 29.1417 15.4146 29.1417Z" fill="#192847"/>
<path d="M13.6222 28.9955C13.8349 29.0198 14.0475 29.0442 14.2602 29.0686C14.3134 29.0686 14.3589 29.093 14.4045 29.1254C14.4349 29.1417 14.4501 29.1823 14.4729 29.2148C14.4425 29.2311 14.4045 29.2636 14.3741 29.2636C14.245 29.2554 14.1083 29.2311 13.9792 29.2148C13.8425 29.1986 13.7058 29.1823 13.5766 29.1579C13.5463 29.1579 13.5083 29.1579 13.4855 29.1417C13.4627 29.1254 13.4247 29.093 13.4323 29.0767C13.4323 29.0523 13.4703 29.0198 13.4931 29.0117C13.5387 29.0036 13.5842 29.0117 13.6298 29.0117C13.6298 29.0117 13.6298 29.0117 13.6298 29.0036L13.6222 28.9955Z" fill="#192847"/>
<path d="M18.3463 28.5243C18.3463 28.5243 18.3007 28.5649 18.2703 28.5811C17.9741 28.6705 17.6779 28.7599 17.3817 28.8492C17.3513 28.8573 17.3134 28.833 17.283 28.8249C17.3058 28.7924 17.3134 28.7355 17.3437 28.7274C17.5108 28.6624 17.6779 28.5893 17.845 28.5405C17.9741 28.4999 18.1032 28.4836 18.2324 28.4593C18.2627 28.4593 18.3007 28.4836 18.3387 28.4999C18.3387 28.5161 18.3387 28.5243 18.3387 28.5405L18.3463 28.5243Z" fill="#192847"/>
<path d="M19.5994 28.0043C19.5994 28.0043 19.6526 28.0368 19.6526 28.0612C19.6526 28.0855 19.6222 28.1343 19.5994 28.1424C19.3488 28.2399 19.0906 28.3293 18.8324 28.4186C18.8096 28.4186 18.7792 28.3943 18.7488 28.3861C18.764 28.3536 18.764 28.313 18.7868 28.2968C18.9767 28.1505 19.1893 28.0612 19.4248 28.0287C19.4703 28.0287 19.5235 28.0206 19.5918 28.0124L19.5994 28.0043Z" fill="#192847"/>
<path d="M8.60195 29.1417C8.45765 29.1417 8.31335 29.1417 8.17664 29.1417C8.14626 29.1417 8.12347 29.1092 8.09309 29.093C8.10828 29.0605 8.12347 29.0198 8.14626 29.0117C8.42727 28.8817 8.72347 28.8655 9.01968 28.963C9.04246 28.963 9.06525 28.9792 9.08044 28.9955C9.10322 29.028 9.11841 29.0605 9.1412 29.093C9.11082 29.1092 9.08044 29.1417 9.05006 29.1417C8.90575 29.1417 8.76145 29.1417 8.60955 29.1417H8.60195Z" fill="#192847"/>
<path d="M10.4096 29.0117C10.4096 29.0117 10.4779 29.0117 10.5083 29.0117C10.5387 29.0198 10.569 29.0523 10.5994 29.0686C10.5766 29.093 10.5539 29.1336 10.5235 29.1417C10.402 29.1661 10.2804 29.1823 10.1589 29.1986C10.007 29.2229 9.85512 29.2392 9.70322 29.2636C9.67284 29.2636 9.64246 29.2636 9.61968 29.2636C9.59689 29.2636 9.56651 29.2392 9.55892 29.2229C9.55892 29.1986 9.56651 29.1579 9.5817 29.1417C9.63487 29.1092 9.69563 29.0767 9.76398 29.0686C9.97664 29.0361 10.1969 29.0198 10.4096 28.9955C10.4096 28.9955 10.4096 28.9955 10.4096 29.0036V29.0117Z" fill="#192847"/>
<path d="M5.73866 28.443C6.07284 28.4918 6.38423 28.573 6.67284 28.7192C6.70322 28.7355 6.71081 28.7842 6.7336 28.8086C6.69562 28.8167 6.65765 28.8492 6.62727 28.8411C6.33866 28.7599 6.04246 28.6705 5.75385 28.5811C5.72347 28.573 5.70069 28.5324 5.6779 28.508C5.70069 28.4836 5.72347 28.4593 5.73866 28.443Z" fill="#192847"/>
<path d="M4.42473 28.0124C4.68296 28.0287 4.89562 28.0774 5.09309 28.1912C5.14625 28.2237 5.19942 28.2643 5.24499 28.3049C5.26018 28.3211 5.26777 28.3699 5.26018 28.3943C5.25258 28.4105 5.20701 28.4268 5.17663 28.4186C4.926 28.3374 4.67537 28.248 4.43233 28.1505C4.40195 28.1424 4.37157 28.0937 4.37157 28.0693C4.37157 28.0449 4.41714 28.0206 4.42473 28.0206V28.0124Z" fill="#192847"/>
<path d="M32.4197 0.503704H31.5311V33.5694H32.4197V0.503704Z" fill="#192847"/>
<path d="M66.6805 1.27551H44.883C42.9615 1.27551 41.4045 2.94098 41.4045 4.99642V28.313C41.4045 30.3685 42.9615 32.0339 44.883 32.0339H66.6805C68.6021 32.0339 70.159 30.3685 70.159 28.313V4.99642C70.159 2.94098 68.6021 1.27551 66.6805 1.27551ZM61.235 25.9082C60.7945 26.3795 60.0805 26.3795 59.64 25.9082C59.1995 25.437 59.1995 24.6734 59.64 24.2022C60.9767 22.7885 61.8122 20.8225 61.8122 18.6452C61.8122 18.2308 61.7818 17.8165 61.721 17.4184L63.5818 15.428C63.8932 16.4354 64.0603 17.524 64.0603 18.6452C64.0603 21.4805 62.9818 24.0559 61.235 25.9082ZM66.6198 13.2182C66.6198 13.6812 66.2704 14.0631 65.8299 14.0631C65.397 14.0631 65.04 13.6894 65.04 13.2182V11.967L54.6349 23.0973L52.0299 25.8757V19.4738L48.5514 23.1947C47.6552 24.1534 46.1514 23.8284 45.6653 22.5773C45.6425 22.5204 45.6197 22.4636 45.6045 22.4067C45.1868 21.2693 44.9514 20.0263 44.9362 18.7345C44.8906 13.1207 49.1666 8.4736 54.4147 8.42485C56.8071 8.40048 59.002 9.32664 60.6957 10.8621L59.1008 12.5682C57.521 10.8459 54.4982 10.8296 54.4982 10.8296C50.4653 10.8296 47.1919 14.3312 47.1919 18.6452C47.1919 19.2789 47.2603 19.8963 47.397 20.4894L51.4906 16.1104C51.6653 15.9235 51.8628 15.7854 52.0906 15.6798C52.3109 15.5823 52.5539 15.5336 52.797 15.5336C53.8147 15.5336 54.6349 16.411 54.6349 17.4996V19.1651L63.1033 10.1066H61.8881C61.4552 10.1066 61.0982 9.73286 61.0982 9.26165C61.0982 8.79044 61.4476 8.41673 61.8881 8.41673H65.7084C66.2097 8.41673 66.6122 8.84731 66.6122 9.38351V13.21L66.6198 13.2182Z" fill="#192847"/>
<path d="M77.7008 20.3594V9.88722L75.5286 10.3097V8.98542L77.9059 7.89677H79.6451V20.3594H77.7008Z" fill="#192847"/>
<path d="M81.1034 15.1761V13.5025H85.8274V15.1761H81.1034Z" fill="#192847"/>
<path d="M87.2553 20.3594V8.01051H89.1768V20.3594H87.2553Z" fill="#192847"/>
<path d="M91.4629 20.3594V8.01051H93.0122L98.2679 16.8253V8.01051H100.205V20.3594H98.6553L93.3996 11.5446V20.3594H91.4629Z" fill="#192847"/>
<path d="M105.278 20.3594L101.526 8.01051H103.531L106.501 18.1333L109.47 8.01051H111.476L107.724 20.3594H105.278Z" fill="#192847"/>
<path d="M115.174 20.4487C114.924 20.4487 114.643 20.4244 114.339 20.3756C114.027 20.3269 113.739 20.2131 113.458 20.0425C113.177 19.8719 112.949 19.6119 112.767 19.2626C112.584 18.9133 112.501 18.4421 112.501 17.8409V10.7159C112.501 10.1878 112.577 9.75723 112.721 9.39976C112.865 9.04229 113.063 8.77419 113.306 8.57109C113.549 8.36798 113.822 8.22987 114.119 8.1405C114.415 8.05114 114.711 8.01864 115 8.01864C115.729 8.01864 116.389 8.02676 116.967 8.05114C117.552 8.07551 118.083 8.09988 118.569 8.11613C119.055 8.1405 119.503 8.16488 119.921 8.19737V9.91971H115.554C115.197 9.91971 114.924 10.0172 114.719 10.2041C114.514 10.3909 114.415 10.6915 114.415 11.0896V13.2832L119.215 13.3969V15.0217L114.415 15.1355V17.264C114.415 17.5971 114.468 17.8571 114.582 18.0358C114.688 18.2146 114.833 18.3364 115.007 18.4014C115.182 18.4664 115.357 18.4989 115.546 18.4989H119.929V20.2213C119.473 20.27 118.972 20.3025 118.425 20.3269C117.878 20.3513 117.331 20.3756 116.777 20.3919C116.222 20.4081 115.683 20.4244 115.174 20.4325V20.4487Z" fill="#192847"/>
<path d="M125.207 20.465C124.926 20.465 124.622 20.4569 124.311 20.4406C124 20.4244 123.673 20.4 123.339 20.3594C123.012 20.3188 122.701 20.2781 122.405 20.2456C122.116 20.205 121.85 20.1563 121.622 20.1075V18.4827C121.911 18.507 122.253 18.5233 122.648 18.5477C123.035 18.572 123.445 18.5883 123.878 18.5964C124.303 18.6045 124.721 18.6127 125.116 18.6127C125.534 18.6127 125.906 18.572 126.225 18.4827C126.544 18.4014 126.795 18.2552 126.977 18.0358C127.152 17.8246 127.243 17.524 127.243 17.1341V16.5491C127.243 16.1104 127.129 15.7773 126.901 15.5417C126.673 15.3061 126.331 15.1924 125.883 15.1924H124.805C123.749 15.1924 122.936 14.9486 122.374 14.453C121.805 13.9656 121.524 13.1207 121.524 11.9264V11.2927C121.524 10.0984 121.835 9.23728 122.45 8.7092C123.073 8.18112 123.962 7.91302 125.116 7.91302C125.511 7.91302 125.921 7.92927 126.346 7.96989C126.772 8.01051 127.174 8.05926 127.562 8.108C127.949 8.16488 128.276 8.22174 128.549 8.29486V9.91971C128.093 9.88722 127.569 9.85472 126.977 9.82222C126.384 9.78973 125.845 9.77348 125.344 9.77348C124.949 9.77348 124.6 9.82222 124.296 9.90347C123.992 9.99283 123.764 10.1553 123.605 10.3828C123.445 10.6103 123.369 10.9515 123.369 11.3983V11.7964C123.369 12.3245 123.498 12.6901 123.772 12.9013C124.045 13.1125 124.417 13.2182 124.919 13.2182H126.126C126.802 13.2182 127.364 13.3481 127.797 13.6162C128.238 13.8843 128.564 14.2499 128.777 14.713C128.99 15.1761 129.096 15.7042 129.096 16.2973V17.0853C129.096 18.0033 128.929 18.702 128.595 19.1976C128.26 19.6932 127.805 20.0263 127.22 20.205C126.635 20.3838 125.967 20.4731 125.215 20.4731L125.207 20.465Z" fill="#192847"/>
<path d="M133.433 20.3594V9.87097H130.114V8.01051H138.673V9.87097H135.369V20.3594H133.433Z" fill="#192847"/>
<path d="M139.326 20.3756C139.129 20.3756 139.03 20.2781 139.03 20.075V18.4827C139.03 18.2714 139.129 18.1658 139.326 18.1658H140.435C140.633 18.1658 140.731 18.2714 140.731 18.4827V20.075C140.731 20.1888 140.701 20.2619 140.648 20.3106C140.595 20.3594 140.519 20.3756 140.435 20.3756H139.326Z" fill="#192847"/>
<path d="M146.222 20.465C145.547 20.465 144.947 20.3838 144.43 20.2131C143.914 20.0425 143.481 19.7419 143.131 19.2951C142.782 18.8483 142.516 18.2146 142.341 17.3859C142.167 16.5572 142.076 15.4767 142.076 14.1362C142.076 12.8769 142.167 11.837 142.349 11.0246C142.531 10.2122 142.805 9.57037 143.162 9.11541C143.519 8.66045 143.959 8.34361 144.483 8.16488C145.007 7.98614 145.6 7.89677 146.268 7.89677C146.724 7.89677 147.172 7.92115 147.605 7.97802C148.038 8.03489 148.44 8.09988 148.812 8.18112C149.184 8.26237 149.503 8.34361 149.777 8.43298V10.0253C149.602 9.98471 149.352 9.93596 149.025 9.90347C148.698 9.86284 148.334 9.83035 147.931 9.80597C147.521 9.7816 147.103 9.76535 146.663 9.76535C146.184 9.76535 145.774 9.82222 145.433 9.94409C145.091 10.0578 144.817 10.2772 144.612 10.5859C144.407 10.8946 144.255 11.3415 144.157 11.9264C144.065 12.5032 144.02 13.2588 144.02 14.1849C144.02 15.1111 144.065 15.8504 144.149 16.4272C144.24 17.0041 144.377 17.459 144.574 17.7759C144.764 18.0927 145.03 18.3121 145.372 18.4339C145.714 18.5558 146.139 18.6208 146.648 18.6208C147.43 18.6208 148.068 18.6045 148.569 18.5639C149.071 18.5233 149.473 18.4827 149.777 18.4421V20.0344C149.488 20.1238 149.154 20.205 148.782 20.27C148.41 20.335 148.015 20.3919 147.59 20.4325C147.164 20.4731 146.709 20.4894 146.222 20.4894V20.465Z" fill="#192847"/>
<path d="M155.709 20.465C154.934 20.465 154.258 20.3838 153.681 20.2213C153.103 20.0588 152.617 19.7663 152.222 19.3357C151.828 18.9051 151.539 18.2796 151.349 17.4509C151.159 16.6222 151.06 15.5498 151.06 14.2256C151.06 12.9013 151.159 11.8045 151.357 10.9677C151.554 10.1391 151.85 9.49725 152.238 9.05854C152.625 8.61983 153.111 8.31111 153.696 8.14863C154.273 7.97802 154.941 7.89677 155.709 7.89677C156.476 7.89677 157.174 7.97802 157.759 8.14863C158.344 8.31924 158.83 8.61983 159.217 9.05854C159.605 9.49725 159.893 10.1391 160.083 10.9677C160.273 11.7964 160.372 12.8851 160.372 14.2256C160.372 15.5661 160.273 16.6303 160.083 17.4509C159.893 18.2796 159.597 18.9051 159.21 19.3357C158.822 19.7663 158.336 20.0588 157.752 20.2213C157.174 20.3838 156.491 20.465 155.709 20.465ZM155.709 18.6045C156.217 18.6045 156.65 18.5477 157 18.4258C157.349 18.3039 157.63 18.1008 157.835 17.7921C158.04 17.4834 158.192 17.0447 158.291 16.4679C158.382 15.891 158.435 15.1436 158.435 14.2174C158.435 13.2344 158.382 12.4545 158.283 11.8695C158.184 11.2846 158.033 10.8378 157.82 10.529C157.615 10.2203 157.334 10.0172 156.992 9.91159C156.65 9.80597 156.217 9.7491 155.709 9.7491C155.23 9.7491 154.82 9.80597 154.471 9.91159C154.129 10.0172 153.848 10.2203 153.635 10.529C153.422 10.8378 153.263 11.2846 153.157 11.8695C153.05 12.4545 152.997 13.2425 152.997 14.2174C152.997 15.1436 153.043 15.891 153.126 16.4679C153.217 17.0447 153.362 17.4834 153.574 17.7921C153.787 18.1008 154.06 18.3121 154.41 18.4258C154.759 18.5395 155.192 18.6045 155.701 18.6045H155.709Z" fill="#192847"/>
<path d="M161.602 20.3594L162.931 8.01051H164.807L167.61 17.8977L170.397 8.01051H172.273L173.633 20.3594H171.757L170.693 10.6509L171.005 10.6834L168.498 20.3513H166.683L164.147 10.6834L164.473 10.6671L163.455 20.3513H161.595L161.602 20.3594Z" fill="#192847"/>
<path d="M76.4856 27.4437V24.909C76.4856 24.7871 76.5008 24.6815 76.5388 24.6002C76.5692 24.519 76.6147 24.454 76.6755 24.4053C76.7287 24.3565 76.797 24.324 76.8654 24.2996C76.9337 24.2753 77.0021 24.2671 77.078 24.2671C77.1995 24.2671 77.3287 24.2671 77.4654 24.2753C77.6021 24.2834 77.7464 24.2753 77.8907 24.2834C78.035 24.2834 78.1793 24.2915 78.3236 24.3078V24.5759H77.1616C77.0552 24.5759 76.9717 24.6084 76.9109 24.6734C76.8502 24.7384 76.8198 24.8277 76.8198 24.9577V25.7783L78.1489 25.8026V26.0626L76.8198 26.087V27.4437H76.4856Z" fill="#192847"/>
<path d="M78.7717 27.4437V24.2671H79.0907V27.4437H78.7717Z" fill="#192847"/>
<path d="M79.7135 27.4437V24.2671H80.8831C80.9818 24.2671 81.073 24.2834 81.1641 24.3078C81.2552 24.3321 81.3388 24.3809 81.4147 24.4459C81.4907 24.5109 81.5439 24.6084 81.5894 24.7302C81.635 24.8521 81.6578 25.0146 81.6578 25.2096C81.6578 25.3802 81.6426 25.5264 81.6046 25.632C81.5666 25.7458 81.5211 25.827 81.4679 25.892C81.4147 25.957 81.354 26.0057 81.2856 26.0382C81.2173 26.0707 81.1565 26.087 81.0957 26.1032L81.7034 27.4519H81.3768L80.7996 26.152C80.754 26.152 80.7008 26.152 80.6401 26.152C80.5793 26.152 80.5109 26.152 80.435 26.152C80.359 26.152 80.2907 26.152 80.2223 26.152C80.154 26.152 80.0932 26.152 80.0401 26.152V27.4681H79.7211L79.7135 27.4437ZM80.8299 25.8676C80.8983 25.8676 80.9666 25.8595 81.0198 25.8433C81.0806 25.827 81.1337 25.7945 81.1793 25.7458C81.2249 25.697 81.2628 25.632 81.2856 25.5427C81.3084 25.4533 81.3236 25.3477 81.3236 25.2096C81.3236 25.0714 81.3084 24.974 81.2856 24.8846C81.2628 24.7952 81.2249 24.7384 81.1717 24.6977C81.1261 24.6571 81.073 24.6246 81.0122 24.6084C80.9514 24.5921 80.8907 24.584 80.8223 24.584H80.0249V25.8676H80.8299Z" fill="#192847"/>
<path d="M83.0097 27.4681C82.9489 27.4681 82.8806 27.4681 82.797 27.4681C82.7135 27.4681 82.6299 27.46 82.5464 27.4519C82.4628 27.4519 82.3793 27.4356 82.3033 27.4275C82.2274 27.4194 82.159 27.4112 82.1135 27.395V27.135C82.1818 27.135 82.2654 27.1431 82.3565 27.1513C82.4552 27.1513 82.554 27.1594 82.6679 27.1675C82.7818 27.1675 82.8882 27.1675 82.9945 27.1675C83.116 27.1675 83.2223 27.1513 83.3211 27.1269C83.4198 27.1025 83.4958 27.0538 83.5565 26.9806C83.6173 26.9075 83.6401 26.81 83.6401 26.68V26.4607C83.6401 26.3145 83.6021 26.2007 83.5337 26.1276C83.4654 26.0545 83.3515 26.0139 83.192 26.0139H82.873C82.6299 26.0139 82.4401 25.957 82.2958 25.8433C82.1515 25.7295 82.0907 25.5264 82.0907 25.2502V25.0714C82.0907 24.7708 82.1666 24.5596 82.3185 24.4296C82.4704 24.2996 82.6831 24.2428 82.9565 24.2428C83.0401 24.2428 83.1388 24.2428 83.2451 24.259C83.3515 24.2671 83.4578 24.2834 83.5565 24.2915C83.6553 24.3078 83.7388 24.3159 83.8072 24.3321V24.5921C83.6856 24.584 83.5565 24.5677 83.4046 24.5596C83.2527 24.5515 83.116 24.5434 82.9869 24.5434C82.8654 24.5434 82.759 24.5596 82.6755 24.5921C82.5844 24.6246 82.516 24.6734 82.4704 24.7546C82.4249 24.8277 82.4021 24.9415 82.4021 25.0796V25.2258C82.4021 25.4045 82.4476 25.5183 82.5312 25.5914C82.6147 25.6645 82.7363 25.6889 82.8882 25.6889H83.2299C83.397 25.6889 83.5261 25.7214 83.6325 25.7864C83.7388 25.8514 83.8148 25.9407 83.8679 26.0464C83.9211 26.152 83.9439 26.282 83.9439 26.4282V26.6719C83.9439 26.8832 83.8983 27.0456 83.8147 27.1675C83.7312 27.2812 83.6173 27.3625 83.473 27.4031C83.3287 27.4437 83.1768 27.4681 83.0021 27.4681H83.0097Z" fill="#192847"/>
<path d="M85.1666 27.4437V24.5759H84.2477V24.2671H86.397V24.5759H85.478V27.4437H85.1591H85.1666Z" fill="#192847"/>
<path d="M87.8629 27.4437V24.2671H88.1818V27.4437H87.8629Z" fill="#192847"/>
<path d="M88.8654 27.4437V24.2671H89.1312L90.6806 26.8507V24.2671H90.9996V27.4437H90.7337L89.1844 24.8602V27.4437H88.8654Z" fill="#192847"/>
<path d="M92.4046 27.4437L91.3869 24.2671H91.7135L92.6097 27.0863L93.4983 24.2671H93.8249L92.8072 27.4437H92.397H92.4046Z" fill="#192847"/>
<path d="M94.8122 27.46C94.7439 27.46 94.6831 27.46 94.6072 27.4437C94.5312 27.4275 94.4629 27.4031 94.4021 27.3625C94.3413 27.3219 94.2882 27.2569 94.2426 27.1756C94.2046 27.0944 94.1818 26.9806 94.1818 26.8425V24.909C94.1818 24.7871 94.197 24.6815 94.235 24.6002C94.2654 24.519 94.311 24.454 94.3717 24.4053C94.4249 24.3565 94.4932 24.324 94.5616 24.2996C94.63 24.2753 94.6983 24.2671 94.7743 24.2671C94.9413 24.2671 95.0932 24.2671 95.2375 24.2753C95.3819 24.2753 95.5186 24.2834 95.6401 24.2915C95.7616 24.2996 95.8907 24.2996 96.0122 24.3078V24.584H94.8502C94.7439 24.584 94.6603 24.6165 94.5996 24.6734C94.5388 24.7302 94.5084 24.8277 94.5084 24.9658V25.7133L95.8376 25.7376V25.9976L94.5084 26.022V26.7694C94.5084 26.875 94.5236 26.9563 94.5616 27.0131C94.5996 27.07 94.6376 27.1025 94.6983 27.1188C94.7515 27.135 94.8122 27.1431 94.873 27.1431H96.0198V27.4194C95.8983 27.4275 95.7692 27.4356 95.6325 27.4437C95.4958 27.4437 95.3591 27.4519 95.2224 27.46C95.0857 27.46 94.9565 27.46 94.8198 27.4681L94.8122 27.46Z" fill="#192847"/>
<path d="M97.3869 27.4681C97.3262 27.4681 97.2578 27.4681 97.1743 27.4681C97.0907 27.4681 97.0072 27.46 96.9236 27.4519C96.8401 27.4519 96.7565 27.4356 96.6806 27.4275C96.6046 27.4194 96.5363 27.4112 96.4907 27.395V27.135C96.5591 27.135 96.6426 27.1431 96.7337 27.1513C96.8325 27.1513 96.9312 27.1594 97.0451 27.1675C97.1591 27.1675 97.2654 27.1675 97.3717 27.1675C97.4932 27.1675 97.5996 27.1513 97.6983 27.1269C97.7971 27.1025 97.873 27.0538 97.9338 26.9806C97.9945 26.9075 98.0173 26.81 98.0173 26.68V26.4607C98.0173 26.3145 97.9793 26.2007 97.911 26.1276C97.8426 26.0545 97.7287 26.0139 97.5692 26.0139H97.2502C97.0072 26.0139 96.8173 25.957 96.673 25.8433C96.5287 25.7295 96.4679 25.5264 96.4679 25.2502V25.0714C96.4679 24.7708 96.5439 24.5596 96.6958 24.4296C96.8477 24.2996 97.0603 24.2428 97.3338 24.2428C97.4173 24.2428 97.516 24.2428 97.6224 24.259C97.7287 24.2671 97.835 24.2834 97.9338 24.2915C98.0325 24.3078 98.116 24.3159 98.1844 24.3321V24.5921C98.0629 24.584 97.9338 24.5677 97.7819 24.5596C97.63 24.5515 97.4932 24.5434 97.3641 24.5434C97.2426 24.5434 97.1363 24.5596 97.0527 24.5921C96.9616 24.6246 96.8932 24.6734 96.8477 24.7546C96.8021 24.8277 96.7793 24.9415 96.7793 25.0796V25.2258C96.7793 25.4045 96.8249 25.5183 96.9084 25.5914C96.992 25.6645 97.1135 25.6889 97.2654 25.6889H97.6072C97.7743 25.6889 97.9034 25.7214 98.0097 25.7864C98.116 25.8514 98.192 25.9407 98.2451 26.0464C98.2983 26.152 98.3211 26.282 98.3211 26.4282V26.6719C98.3211 26.8832 98.2755 27.0456 98.192 27.1675C98.1084 27.2812 97.9945 27.3625 97.8502 27.4031C97.7059 27.4437 97.554 27.4681 97.3793 27.4681H97.3869Z" fill="#192847"/>
<path d="M99.5439 27.4437V24.5759H98.6249V24.2671H100.774V24.5759H99.8553V27.4437H99.5363H99.5439Z" fill="#192847"/>
<path d="M100.957 27.4437L101.298 24.2671H101.625L102.415 27.0131L103.189 24.2671H103.524L103.873 27.4437H103.562L103.265 24.6652H103.319L102.567 27.4437H102.27L101.503 24.6734H101.564L101.276 27.4437H100.957Z" fill="#192847"/>
<path d="M104.951 27.46C104.883 27.46 104.822 27.46 104.746 27.4437C104.67 27.4275 104.602 27.4031 104.541 27.3625C104.481 27.3219 104.427 27.2569 104.382 27.1756C104.344 27.0944 104.321 26.9806 104.321 26.8425V24.909C104.321 24.7871 104.336 24.6815 104.374 24.6002C104.405 24.519 104.45 24.454 104.511 24.4053C104.564 24.3565 104.632 24.324 104.701 24.2996C104.769 24.2753 104.838 24.2671 104.914 24.2671C105.081 24.2671 105.233 24.2671 105.377 24.2753C105.521 24.2753 105.658 24.2834 105.779 24.2915C105.901 24.2996 106.03 24.2996 106.151 24.3078V24.584H104.989C104.883 24.584 104.8 24.6165 104.739 24.6734C104.678 24.7302 104.648 24.8277 104.648 24.9658V25.7133L105.977 25.7376V25.9976L104.648 26.022V26.7694C104.648 26.875 104.663 26.9563 104.701 27.0131C104.739 27.07 104.777 27.1025 104.838 27.1188C104.891 27.135 104.951 27.1431 105.012 27.1431H106.159V27.4194C106.038 27.4275 105.908 27.4356 105.772 27.4437C105.635 27.4437 105.498 27.4519 105.362 27.46C105.225 27.46 105.096 27.46 104.959 27.4681L104.951 27.46Z" fill="#192847"/>
<path d="M106.751 27.4437V24.2671H107.017L108.567 26.8507V24.2671H108.886V27.4437H108.62L107.07 24.8602V27.4437H106.751Z" fill="#192847"/>
<path d="M110.116 27.4437V24.5759H109.197V24.2671H111.346V24.5759H110.427V27.4437H110.108H110.116Z" fill="#192847"/>
<path d="M112.82 27.4437V24.2671H114.005C114.088 24.2671 114.179 24.2834 114.27 24.3078C114.362 24.3321 114.445 24.3809 114.521 24.454C114.597 24.5271 114.658 24.6246 114.711 24.7627C114.764 24.9008 114.779 25.0714 114.779 25.2908C114.779 25.5102 114.757 25.697 114.703 25.8351C114.65 25.9732 114.589 26.0789 114.514 26.152C114.438 26.2251 114.346 26.2738 114.255 26.2982C114.164 26.3226 114.073 26.3388 113.989 26.3388C113.951 26.3388 113.891 26.3388 113.815 26.3388C113.739 26.3388 113.655 26.3388 113.564 26.3307C113.481 26.3307 113.397 26.3226 113.321 26.3145C113.245 26.3145 113.184 26.3063 113.146 26.2982V27.46H112.827L112.82 27.4437ZM113.139 26.022H113.944C114.035 26.022 114.126 25.9976 114.202 25.957C114.278 25.9164 114.339 25.8351 114.384 25.7295C114.43 25.6239 114.453 25.4777 114.453 25.2827C114.453 25.0877 114.43 24.9496 114.384 24.8521C114.339 24.7465 114.278 24.6815 114.21 24.6409C114.141 24.6002 114.058 24.584 113.974 24.584H113.146V26.022H113.139Z" fill="#192847"/>
<path d="M115.85 27.4437C115.736 27.4437 115.63 27.4275 115.539 27.3869C115.448 27.3462 115.379 27.2812 115.326 27.1919C115.273 27.0944 115.25 26.9725 115.25 26.81V24.2753H115.569V26.7613C115.569 26.8669 115.584 26.94 115.615 26.9969C115.645 27.0538 115.691 27.0863 115.744 27.1025C115.797 27.1188 115.85 27.1269 115.911 27.1269H116.974V27.4437H115.843H115.85Z" fill="#192847"/>
<path d="M117.225 27.4437L118.243 24.2671H118.653L119.67 27.4437H119.336L119.04 26.5419H117.848L117.559 27.4437H117.225ZM117.924 26.2251H118.957L118.448 24.5677L117.924 26.2251Z" fill="#192847"/>
<path d="M120.582 27.4437V24.5759H119.663V24.2671H121.812V24.5759H120.893V27.4437H120.574H120.582Z" fill="#192847"/>
<path d="M122.154 27.4437V24.909C122.154 24.7871 122.169 24.6815 122.207 24.6002C122.238 24.519 122.283 24.454 122.344 24.4053C122.397 24.3565 122.465 24.324 122.534 24.2996C122.602 24.2753 122.671 24.2671 122.746 24.2671C122.868 24.2671 122.997 24.2671 123.134 24.2753C123.271 24.2834 123.415 24.2753 123.559 24.2834C123.703 24.2834 123.848 24.2915 123.992 24.3078V24.5759H122.83C122.724 24.5759 122.64 24.6084 122.579 24.6734C122.519 24.7384 122.488 24.8277 122.488 24.9577V25.7783L123.817 25.8026V26.0626L122.488 26.087V27.4437H122.154Z" fill="#192847"/>
<path d="M125.519 27.4681C125.329 27.4681 125.162 27.4519 125.017 27.4112C124.873 27.3706 124.752 27.2975 124.66 27.1919C124.562 27.0863 124.493 26.9238 124.448 26.7125C124.402 26.5013 124.379 26.217 124.379 25.8757C124.379 25.5345 124.402 25.2502 124.455 25.0389C124.508 24.8277 124.577 24.6571 124.676 24.5434C124.774 24.4296 124.896 24.3565 125.033 24.3078C125.177 24.2671 125.344 24.2428 125.526 24.2428C125.708 24.2428 125.891 24.2671 126.035 24.3078C126.179 24.3484 126.301 24.4296 126.392 24.5434C126.491 24.6571 126.559 24.8196 126.605 25.0389C126.65 25.2502 126.673 25.5345 126.673 25.8757C126.673 26.217 126.65 26.5013 126.605 26.7125C126.559 26.9238 126.483 27.0863 126.392 27.1919C126.293 27.2975 126.179 27.3787 126.035 27.4112C125.891 27.4519 125.724 27.4681 125.534 27.4681H125.519ZM125.519 27.1594C125.671 27.1594 125.8 27.1431 125.898 27.1106C126.005 27.0781 126.088 27.0213 126.157 26.9238C126.225 26.8344 126.271 26.7044 126.301 26.5338C126.331 26.3632 126.346 26.1357 126.346 25.8595C126.346 25.5833 126.331 25.3395 126.301 25.1608C126.271 24.9821 126.225 24.8521 126.157 24.7627C126.088 24.6734 126.005 24.6165 125.906 24.584C125.807 24.5515 125.678 24.5434 125.526 24.5434C125.39 24.5434 125.268 24.5596 125.162 24.584C125.055 24.6084 124.972 24.6734 124.903 24.7627C124.835 24.8521 124.782 24.9821 124.752 25.1608C124.721 25.3395 124.698 25.567 124.698 25.8595C124.698 26.152 124.714 26.3632 124.744 26.5338C124.774 26.7044 124.82 26.8344 124.881 26.9238C124.941 27.0131 125.033 27.0781 125.139 27.1106C125.245 27.1431 125.374 27.1594 125.526 27.1594H125.519Z" fill="#192847"/>
<path d="M127.205 27.4437V24.2671H128.374C128.473 24.2671 128.564 24.2834 128.655 24.3078C128.746 24.3321 128.83 24.3809 128.906 24.4459C128.982 24.5109 129.035 24.6084 129.081 24.7302C129.126 24.8521 129.149 25.0146 129.149 25.2096C129.149 25.3802 129.134 25.5264 129.096 25.632C129.058 25.7458 129.012 25.827 128.959 25.892C128.906 25.957 128.845 26.0057 128.777 26.0382C128.708 26.0707 128.648 26.087 128.587 26.1032L129.195 27.4519H128.868L128.291 26.152C128.245 26.152 128.192 26.152 128.131 26.152C128.071 26.152 128.002 26.152 127.926 26.152C127.85 26.152 127.782 26.152 127.714 26.152C127.645 26.152 127.584 26.152 127.531 26.152V27.4681H127.212L127.205 27.4437ZM128.321 25.8676C128.39 25.8676 128.458 25.8595 128.511 25.8433C128.572 25.827 128.625 25.7945 128.671 25.7458C128.716 25.697 128.754 25.632 128.777 25.5427C128.8 25.4533 128.815 25.3477 128.815 25.2096C128.815 25.0714 128.8 24.974 128.777 24.8846C128.754 24.7952 128.716 24.7384 128.663 24.6977C128.617 24.6571 128.564 24.6246 128.503 24.6084C128.443 24.5921 128.382 24.584 128.314 24.584H127.516V25.8676H128.321Z" fill="#192847"/>
<path d="M129.582 27.4437L129.924 24.2671H130.25L131.04 27.0131L131.815 24.2671H132.149L132.498 27.4437H132.187L131.891 24.6652H131.944L131.192 27.4437H130.896L130.129 24.6734H130.19L129.901 27.4437H129.582Z" fill="#192847"/>
</svg>
