<svg width="9" height="9" viewBox="0 0 9 9" fill="none" xmlns="http://www.w3.org/2000/svg">
<path d="M4.05 7.2H4.95V6.3H4.05V7.2ZM4.5 0C3.90905 0 3.32389 0.116396 2.77792 0.342542C2.23196 0.568688 1.73588 0.900156 1.31802 1.31802C0.474106 2.16193 0 3.30653 0 4.5C0 5.69347 0.474106 6.83807 1.31802 7.68198C1.73588 8.09984 2.23196 8.43131 2.77792 8.65746C3.32389 8.8836 3.90905 9 4.5 9C5.69347 9 6.83807 8.52589 7.68198 7.68198C8.52589 6.83807 9 5.69347 9 4.5C9 3.90905 8.8836 3.32389 8.65746 2.77792C8.43131 2.23196 8.09984 1.73588 7.68198 1.31802C7.26412 0.900156 6.76804 0.568688 6.22208 0.342542C5.67611 0.116396 5.09095 0 4.5 0ZM4.5 8.1C2.5155 8.1 0.9 6.4845 0.9 4.5C0.9 2.5155 2.5155 0.9 4.5 0.9C6.4845 0.9 8.1 2.5155 8.1 4.5C8.1 6.4845 6.4845 8.1 4.5 8.1ZM4.5 1.8C4.02261 1.8 3.56477 1.98964 3.22721 2.32721C2.88964 2.66477 2.7 3.12261 2.7 3.6H3.6C3.6 3.3613 3.69482 3.13239 3.8636 2.9636C4.03239 2.79482 4.2613 2.7 4.5 2.7C4.73869 2.7 4.96761 2.79482 5.1364 2.9636C5.30518 3.13239 5.4 3.3613 5.4 3.6C5.4 4.5 4.05 4.3875 4.05 5.85H4.95C4.95 4.8375 6.3 4.725 6.3 3.6C6.3 3.12261 6.11036 2.66477 5.77279 2.32721C5.43523 1.98964 4.97739 1.8 4.5 1.8Z" fill="#AAAAAA"/>
</svg>
